SplineFontDB: 3.0
FontName: Inconsesi-Bold
FullName: Inconsesi Bold
FamilyName: Inconsesi
Weight: Bold
Copyright: Copyright (c) 2012, Alexei Vanyashin (a@cyreal.org). Based on Inconsolata by Raph Levien (firstname.lastname@gmail.com), Copyright (c) 2006-2012.
Version: 1.002
ItalicAngle: 0
UnderlinePosition: -50
UnderlineWidth: 50
Ascent: 1520
Descent: 528
sfntRevision: 0x00010083
LayerCount: 2
Layer: 0 1 "Back"  1
Layer: 1 1 "Fore"  0
XUID: [1021 940 612839030 10341337]
FSType: 0
OS2Version: 3
OS2_WeightWidthSlopeOnly: 0
OS2_UseTypoMetrics: 1
CreationTime: 1346730960
ModificationTime: 1354987189
PfmFamily: 81
TTFWeight: 700
TTFWidth: 5
LineGap: 350
VLineGap: 0
Panose: 0 0 8 0 0 0 0 0 0 0
OS2TypoAscent: 1520
OS2TypoAOffset: 0
OS2TypoDescent: -528
OS2TypoDOffset: 0
OS2TypoLinegap: 350
OS2WinAscent: 1520
OS2WinAOffset: 0
OS2WinDescent: 528
OS2WinDOffset: 0
HheadAscent: 1520
HheadAOffset: 0
HheadDescent: -528
HheadDOffset: 0
OS2SubXSize: 1331
OS2SubYSize: 1228
OS2SubXOff: 0
OS2SubYOff: 153
OS2SupXSize: 1331
OS2SupYSize: 1228
OS2SupXOff: 0
OS2SupYOff: 716
OS2StrikeYSize: 50
OS2StrikeYPos: 573
OS2Vendor: 'UKWN'
OS2CodePages: 20000093.00000000
OS2UnicodeRanges: a00000ef.500001fb.00000000.00000000
DEI: 91125
TtTable: prep
PUSHW_1
 511
SCANCTRL
PUSHB_1
 4
SCANTYPE
EndTTInstrs
ShortTable: maxp 16
  1
  0
  438
  83
  7
  0
  0
  2
  0
  1
  1
  0
  64
  0
  0
  0
EndShort
LangName: 1033 "" "" "" "Cyreal.org: Inconsesi Bold: 2012" "" "Version 1.002" "" "Please refer to the Copyright section for the font trademark attribution notices." "Cyreal.org" "Alexei Vanyashin" "" "http://www.cyreal.org" "http://www.cyreal.org" "This Font Software is licensed under the SIL Open Font License,+AAoA-Version 1.1. This license is available with a FAQ at:+AAoA-http://scripts.sil.org/OFL" "http://scripts.sil.org/OFL" 
GaspTable: 1 65535 15 1
Encoding: UnicodeBmp
UnicodeInterp: none
NameList: AGL For New Fonts
DisplaySize: -24
AntiAlias: 1
FitToEm: 1
BeginChars: 65557 438

StartChar: exclam
Encoding: 33 33 4
Width: 1126
GlyphClass: 2
Flags: W
LayerCount: 2
Fore
SplineSet
459 406 m 1,0,-1
 397 1374 l 1,1,-1
 695 1374 l 1,2,-1
 633 406 l 1,3,-1
 459 406 l 1,0,-1
428 23 m 128,-1,5
 382 66 382 66 382 126.5 c 128,-1,6
 382 187 382 187 428.5 231.5 c 128,-1,7
 475 276 475 276 541 276 c 128,-1,8
 607 276 607 276 654 230.5 c 128,-1,9
 701 185 701 185 701 126 c 128,-1,10
 701 67 701 67 652.5 23.5 c 128,-1,11
 604 -20 604 -20 539 -20 c 128,-1,4
 474 -20 474 -20 428 23 c 128,-1,5
EndSplineSet
EndChar

StartChar: quotedbl
Encoding: 34 34 5
Width: 1126
GlyphClass: 2
Flags: W
LayerCount: 2
Fore
SplineSet
701 1020 m 1,0,-1
 650 1521 l 1,1,-1
 886 1521 l 1,2,-1
 835 1020 l 1,3,-1
 701 1020 l 1,0,-1
330 1020 m 1,4,-1
 279 1521 l 1,5,-1
 515 1521 l 1,6,-1
 464 1020 l 1,7,-1
 330 1020 l 1,4,-1
EndSplineSet
EndChar

StartChar: numbersign
Encoding: 35 35 6
Width: 1126
GlyphClass: 2
Flags: W
LayerCount: 2
Fore
SplineSet
200 23 m 1,0,-1
 241 375 l 1,1,-1
 78 375 l 1,2,-1
 97 536 l 1,3,-1
 260 536 l 1,4,-1
 290 795 l 1,5,-1
 78 795 l 1,6,-1
 97 956 l 1,7,-1
 309 956 l 1,8,-1
 346 1276 l 1,9,-1
 557 1276 l 1,10,-1
 518 956 l 1,11,-1
 719 956 l 1,12,-1
 756 1276 l 1,13,-1
 967 1276 l 1,14,-1
 928 956 l 1,15,-1
 1070 956 l 1,16,-1
 1051 795 l 1,17,-1
 909 795 l 1,18,-1
 877 536 l 1,19,-1
 1070 536 l 1,20,-1
 1051 375 l 1,21,-1
 858 375 l 1,22,-1
 815 23 l 1,23,-1
 610 23 l 1,24,-1
 651 375 l 1,25,-1
 448 375 l 1,26,-1
 405 23 l 1,27,-1
 200 23 l 1,0,-1
467 536 m 1,28,-1
 670 536 l 1,29,-1
 700 795 l 1,30,-1
 499 795 l 1,31,-1
 467 536 l 1,28,-1
EndSplineSet
EndChar

StartChar: dollar
Encoding: 36 36 7
Width: 1126
GlyphClass: 2
Flags: W
LayerCount: 2
Fore
SplineSet
243 740.5 m 128,-1,1
 178 813 178 813 178 930 c 128,-1,2
 178 1047 178 1047 268.5 1129.5 c 128,-1,3
 359 1212 359 1212 503 1232 c 1,4,-1
 503 1366 l 1,5,-1
 693 1366 l 1,6,7
 693 1352 693 1352 686 1335 c 128,-1,8
 679 1318 679 1318 679 1300 c 2,9,-1
 679 1227 l 1,10,11
 835 1193 835 1193 942 1066 c 1,12,-1
 811 895 l 1,13,14
 797 908 797 908 794 931.5 c 128,-1,15
 791 955 791 955 777 970 c 0,16,17
 724 1026 724 1026 669 1046 c 1,18,-1
 669 706 l 1,19,20
 838 622 838 622 913 543 c 128,-1,21
 988 464 988 464 988 362 c 0,22,23
 988 224 988 224 899 133.5 c 128,-1,24
 810 43 810 43 659 16 c 1,25,-1
 659 -100 l 1,26,-1
 483 -100 l 1,27,-1
 483 9 l 1,28,29
 391 20 391 20 302.5 65.5 c 128,-1,30
 214 111 214 111 144 183 c 1,31,-1
 257 381 l 1,32,33
 274 367 274 367 280.5 346 c 128,-1,34
 287 325 287 325 299 312 c 0,35,36
 382 220 382 220 493 193 c 1,37,-1
 493 577 l 1,38,0
 308 668 308 668 243 740.5 c 128,-1,1
412.5 1012 m 128,-1,40
 383 983 383 983 383 940 c 128,-1,41
 383 897 383 897 405 866.5 c 128,-1,42
 427 836 427 836 493 797 c 1,43,-1
 493 1054 l 1,44,39
 442 1041 442 1041 412.5 1012 c 128,-1,40
775 332 m 0,45,46
 775 376 775 376 752 410.5 c 128,-1,47
 729 445 729 445 669 484 c 1,48,-1
 669 203 l 1,49,50
 775 241 775 241 775 332 c 0,45,46
EndSplineSet
EndChar

StartChar: percent
Encoding: 37 37 8
Width: 1126
GlyphClass: 2
Flags: W
LayerCount: 2
Fore
SplineSet
503 898.5 m 128,-1,1
 431 820 431 820 323.5 820 c 128,-1,2
 216 820 216 820 141.5 900.5 c 128,-1,3
 67 981 67 981 67 1099 c 128,-1,4
 67 1217 67 1217 142 1298 c 128,-1,5
 217 1379 217 1379 321.5 1379 c 128,-1,6
 426 1379 426 1379 500.5 1297.5 c 128,-1,7
 575 1216 575 1216 575 1096.5 c 128,-1,0
 575 977 575 977 503 898.5 c 128,-1,1
125 0 m 1,8,-1
 842 1376 l 1,9,-1
 1019 1376 l 1,10,-1
 296 0 l 1,11,-1
 125 0 l 1,8,-1
316 970 m 128,-1,13
 350 970 350 970 373 1007.5 c 128,-1,14
 396 1045 396 1045 396 1099.5 c 128,-1,15
 396 1154 396 1154 373 1192 c 128,-1,16
 350 1230 350 1230 316.5 1230 c 128,-1,17
 283 1230 283 1230 260 1191.5 c 128,-1,18
 237 1153 237 1153 237 1099 c 128,-1,19
 237 1045 237 1045 259.5 1007.5 c 128,-1,12
 282 970 282 970 316 970 c 128,-1,13
638.5 60 m 128,-1,21
 564 140 564 140 564 258 c 128,-1,22
 564 376 564 376 639 457.5 c 128,-1,23
 714 539 714 539 818.5 539 c 128,-1,24
 923 539 923 539 997 457 c 128,-1,25
 1071 375 1071 375 1071 255.5 c 128,-1,26
 1071 136 1071 136 999.5 58 c 128,-1,27
 928 -20 928 -20 820.5 -20 c 128,-1,20
 713 -20 713 -20 638.5 60 c 128,-1,21
734 258 m 128,-1,29
 734 204 734 204 756.5 166.5 c 128,-1,30
 779 129 779 129 813 129 c 128,-1,31
 847 129 847 129 870 166.5 c 128,-1,32
 893 204 893 204 893 258 c 128,-1,33
 893 312 893 312 870 350.5 c 128,-1,34
 847 389 847 389 813.5 389 c 128,-1,35
 780 389 780 389 757 350.5 c 128,-1,28
 734 312 734 312 734 258 c 128,-1,29
EndSplineSet
EndChar

StartChar: ampersand
Encoding: 38 38 9
Width: 1126
GlyphClass: 2
Flags: W
LayerCount: 2
Fore
SplineSet
175.5 59 m 128,-1,1
 72 151 72 151 72 288 c 128,-1,2
 72 425 72 425 140.5 525.5 c 128,-1,3
 209 626 209 626 330 693 c 1,4,5
 255 803 255 803 226.5 878.5 c 128,-1,6
 198 954 198 954 198 1035 c 0,7,8
 198 1160 198 1160 289 1228 c 128,-1,9
 380 1296 380 1296 537.5 1296 c 128,-1,10
 695 1296 695 1296 783.5 1215 c 128,-1,11
 872 1134 872 1134 872 1020 c 0,12,13
 872 928 872 928 809 828 c 128,-1,14
 746 728 746 728 626 641 c 1,15,16
 702 546 702 546 834 401 c 1,17,18
 870 450 870 450 887 490 c 128,-1,19
 904 530 904 530 904 549 c 0,20,21
 906 599 906 599 927 625 c 1,22,-1
 1135 496 l 1,23,24
 1011 309 1011 309 969 254 c 1,25,26
 1057 159 1057 159 1104 103 c 1,27,-1
 910 -24 l 1,28,29
 870 29 870 29 812 96 c 1,30,31
 738 30 738 30 661 -1.5 c 128,-1,32
 584 -33 584 -33 475 -33 c 0,33,0
 279 -33 279 -33 175.5 59 c 128,-1,1
665 1000 m 0,34,35
 665 1056 665 1056 632.5 1093 c 128,-1,36
 600 1130 600 1130 541 1130 c 0,37,38
 413 1130 413 1130 413 1015 c 0,39,40
 413 935 413 935 515 787 c 1,41,42
 665 893 665 893 665 1000 c 0,34,35
343.5 454 m 128,-1,44
 315 398 315 398 315 321.5 c 128,-1,45
 315 245 315 245 365 202.5 c 128,-1,46
 415 160 415 160 494 160 c 0,47,48
 608 160 608 160 690 238 c 1,49,50
 527 429 527 429 435 549 c 1,51,43
 372 510 372 510 343.5 454 c 128,-1,44
EndSplineSet
EndChar

StartChar: quotesingle
Encoding: 39 39 10
Width: 1126
GlyphClass: 2
Flags: W
LayerCount: 2
Fore
SplineSet
515 1020 m 1,0,-1
 464 1521 l 1,1,-1
 700 1521 l 1,2,-1
 649 1020 l 1,3,-1
 515 1020 l 1,0,-1
EndSplineSet
EndChar

StartChar: parenleft
Encoding: 40 40 11
Width: 1126
GlyphClass: 2
Flags: W
LayerCount: 2
Fore
SplineSet
855 1180 m 1,0,-1
 816 1185 l 1,1,2
 805 1185 805 1185 795 1180 c 0,3,4
 643 1103 643 1103 548 927 c 128,-1,5
 453 751 453 751 453 521.5 c 128,-1,6
 453 292 453 292 567.5 98 c 128,-1,7
 682 -96 682 -96 881 -213 c 1,8,-1
 791 -367 l 1,9,10
 534 -236 534 -236 387 0.5 c 128,-1,11
 240 237 240 237 240 525.5 c 128,-1,12
 240 814 240 814 388 1036 c 128,-1,13
 536 1258 536 1258 791 1372 c 1,14,-1
 884 1186 l 1,15,16
 871 1180 871 1180 855 1180 c 1,0,-1
EndSplineSet
EndChar

StartChar: parenright
Encoding: 41 41 12
Width: 1126
GlyphClass: 2
Flags: W
LayerCount: 2
Fore
SplineSet
268 -175 m 1,0,-1
 308 -180 l 1,1,2
 319 -180 319 -180 329 -175 c 0,3,4
 481 -98 481 -98 576 78 c 128,-1,5
 671 254 671 254 671 483.5 c 128,-1,6
 671 713 671 713 556.5 907 c 128,-1,7
 442 1101 442 1101 243 1218 c 1,8,-1
 333 1372 l 1,9,10
 590 1241 590 1241 737 1004.5 c 128,-1,11
 884 768 884 768 884 479.5 c 128,-1,12
 884 191 884 191 736 -31 c 128,-1,13
 588 -253 588 -253 333 -367 c 1,14,-1
 240 -181 l 1,15,16
 256 -175 256 -175 268 -175 c 1,0,-1
EndSplineSet
EndChar

StartChar: asterisk
Encoding: 42 42 13
Width: 1126
GlyphClass: 2
Flags: W
LayerCount: 2
Fore
SplineSet
371 506 m 1,0,-1
 210 635 l 1,1,-1
 449 913 l 1,2,-1
 130 1012 l 1,3,-1
 201 1198 l 1,4,-1
 494 1061 l 1,5,-1
 466 1376 l 1,6,-1
 707 1376 l 1,7,-1
 664 1061 l 1,8,-1
 949 1190 l 1,9,-1
 1025 1014 l 1,10,-1
 705 915 l 1,11,-1
 939 635 l 1,12,-1
 775 508 l 1,13,-1
 576 809 l 1,14,-1
 371 506 l 1,0,-1
EndSplineSet
EndChar

StartChar: plus
Encoding: 43 43 14
Width: 1126
GlyphClass: 2
Flags: W
LayerCount: 2
Fore
SplineSet
469 243 m 1,0,-1
 469 563 l 1,1,-1
 149 563 l 1,2,-1
 149 750 l 1,3,-1
 469 750 l 1,4,-1
 469 1070 l 1,5,-1
 657 1070 l 1,6,-1
 657 750 l 1,7,-1
 977 750 l 1,8,-1
 977 563 l 1,9,-1
 657 563 l 1,10,-1
 657 243 l 1,11,-1
 469 243 l 1,0,-1
EndSplineSet
EndChar

StartChar: comma
Encoding: 44 44 15
Width: 1126
GlyphClass: 2
Flags: W
LayerCount: 2
Fore
SplineSet
408 104 m 0,0,1
 408 165 408 165 450.5 206 c 128,-1,2
 493 247 493 247 561 247 c 128,-1,3
 629 247 629 247 679 193 c 128,-1,4
 729 139 729 139 729 51 c 128,-1,5
 729 -37 729 -37 651.5 -170 c 128,-1,6
 574 -303 574 -303 415 -424 c 1,7,-1
 300 -319 l 1,8,9
 391 -244 391 -244 448.5 -162.5 c 128,-1,10
 506 -81 506 -81 506 -44 c 0,11,12
 506 -25 506 -25 457 16 c 0,13,14
 439 31 439 31 423.5 55 c 128,-1,15
 408 79 408 79 408 104 c 0,0,1
EndSplineSet
EndChar

StartChar: hyphen
Encoding: 45 45 16
Width: 1126
GlyphClass: 2
Flags: W
LayerCount: 2
Fore
SplineSet
179 563 m 1,0,-1
 179 750 l 1,1,-1
 947 750 l 1,2,-1
 947 563 l 1,3,-1
 179 563 l 1,0,-1
EndSplineSet
EndChar

StartChar: period
Encoding: 46 46 17
Width: 1126
GlyphClass: 2
Flags: W
LayerCount: 2
Fore
SplineSet
431 8 m 128,-1,1
 386 49 386 49 386 112 c 128,-1,2
 386 175 386 175 431 216.5 c 128,-1,3
 476 258 476 258 544 258 c 128,-1,4
 612 258 612 258 657.5 216.5 c 128,-1,5
 703 175 703 175 703 112 c 128,-1,6
 703 49 703 49 657.5 8 c 128,-1,7
 612 -33 612 -33 544 -33 c 128,-1,0
 476 -33 476 -33 431 8 c 128,-1,1
EndSplineSet
EndChar

StartChar: slash
Encoding: 47 47 18
Width: 1126
GlyphClass: 2
Flags: W
LayerCount: 2
Fore
SplineSet
156 -10 m 1,0,-1
 791 1366 l 1,1,-1
 970 1274 l 1,2,-1
 337 -96 l 1,3,-1
 156 -10 l 1,0,-1
EndSplineSet
EndChar

StartChar: zero
Encoding: 48 48 19
Width: 1126
GlyphClass: 2
Flags: W
LayerCount: 2
Fore
SplineSet
900 134.5 m 128,-1,1
 782 -39 782 -39 573 -39 c 128,-1,2
 364 -39 364 -39 247 137.5 c 128,-1,3
 130 314 130 314 130 630.5 c 128,-1,4
 130 947 130 947 246.5 1125 c 128,-1,5
 363 1303 363 1303 572 1303 c 0,6,7
 807 1303 807 1303 924 1081 c 1,8,-1
 925 1079 l 1,9,10
 1018 904 1018 904 1018 606 c 128,-1,0
 1018 308 1018 308 900 134.5 c 128,-1,1
574 1104 m 0,11,12
 468 1104 468 1104 408.5 980 c 128,-1,13
 349 856 349 856 349 635 c 0,14,15
 349 565 349 565 355 505 c 1,16,-1
 710 1030 l 1,17,18
 654 1104 654 1104 574 1104 c 0,11,12
402 305 m 1,19,20
 461 166 461 166 570.5 166 c 128,-1,21
 680 166 680 166 739.5 290 c 128,-1,22
 799 414 799 414 799 635 c 0,23,24
 799 765 799 765 778 861 c 1,25,-1
 402 305 l 1,19,20
EndSplineSet
EndChar

StartChar: one
Encoding: 49 49 20
Width: 1126
GlyphClass: 2
Flags: W
LayerCount: 2
Fore
SplineSet
468 0 m 1,0,-1
 468 1016 l 1,1,-1
 249 950 l 1,2,-1
 194 1090 l 1,3,-1
 540 1276 l 1,4,-1
 704 1276 l 1,5,-1
 704 0 l 1,6,-1
 468 0 l 1,0,-1
EndSplineSet
EndChar

StartChar: two
Encoding: 50 50 21
Width: 1126
GlyphClass: 2
Flags: W
LayerCount: 2
Fore
SplineSet
137 0 m 1,0,-1
 137 127 l 1,1,2
 186 246 186 246 269.5 354.5 c 128,-1,3
 353 463 353 463 466 582 c 0,4,5
 486 603 486 603 525.5 639 c 128,-1,6
 565 675 565 675 594.5 703.5 c 128,-1,7
 624 732 624 732 654 770 c 0,8,9
 719 849 719 849 719 931 c 128,-1,10
 719 1013 719 1013 662.5 1061.5 c 128,-1,11
 606 1110 606 1110 532 1110 c 128,-1,12
 458 1110 458 1110 405 1076 c 128,-1,13
 352 1042 352 1042 331 1000 c 0,14,15
 323 983 323 983 322 955.5 c 128,-1,16
 321 928 321 928 300 902 c 1,17,-1
 105 1047 l 1,18,19
 228 1305 228 1305 526 1305 c 0,20,21
 725 1305 725 1305 841 1202 c 128,-1,22
 957 1099 957 1099 957 945 c 0,23,24
 957 814 957 814 870 699 c 0,25,26
 800 607 800 607 676 496 c 0,27,28
 622 448 622 448 573 402 c 0,29,30
 457 293 457 293 413 201 c 1,31,-1
 903 201 l 2,32,33
 925 201 925 201 944 208 c 128,-1,34
 963 215 963 215 971 215 c 2,35,-1
 975 215 l 1,36,-1
 975 0 l 1,37,-1
 137 0 l 1,0,-1
EndSplineSet
EndChar

StartChar: three
Encoding: 51 51 22
Width: 1126
GlyphClass: 2
Flags: W
LayerCount: 2
Fore
SplineSet
493 160 m 0,0,1
 572 160 572 160 624 211 c 128,-1,2
 676 262 676 262 676 355 c 0,3,4
 676 575 676 575 401 575 c 2,5,-1
 387 575 l 1,6,-1
 387 740 l 1,7,8
 526 740 526 740 585.5 795.5 c 128,-1,9
 645 851 645 851 645 952 c 0,10,11
 645 1024 645 1024 601 1068.5 c 128,-1,12
 557 1113 557 1113 481 1113 c 0,13,14
 370 1113 370 1113 268 990 c 1,15,-1
 137 1133 l 1,16,17
 268 1308 268 1308 497 1308 c 0,18,19
 664 1308 664 1308 765.5 1215.5 c 128,-1,20
 867 1123 867 1123 867 980 c 0,21,22
 867 881 867 881 814.5 801 c 128,-1,23
 762 721 762 721 664 670 c 1,24,25
 797 620 797 620 851 543 c 128,-1,26
 905 466 905 466 905 344 c 0,27,28
 905 270 905 270 877 202 c 128,-1,29
 849 134 849 134 797.5 80.5 c 128,-1,30
 746 27 746 27 664.5 -5 c 128,-1,31
 583 -37 583 -37 483 -37 c 0,32,33
 233 -37 233 -37 96 133 c 1,34,-1
 264 327 l 1,35,36
 279 308 279 308 283 288 c 128,-1,37
 287 268 287 268 295 256 c 0,38,39
 361 160 361 160 493 160 c 0,0,1
EndSplineSet
EndChar

StartChar: four
Encoding: 52 52 23
Width: 1126
GlyphClass: 2
Flags: W
LayerCount: 2
Fore
SplineSet
100 263 m 1,0,-1
 100 389 l 1,1,-1
 743 1276 l 1,2,-1
 942 1276 l 1,3,-1
 942 444 l 1,4,-1
 1078 444 l 1,5,-1
 1078 263 l 1,6,-1
 942 263 l 1,7,-1
 942 0 l 1,8,-1
 707 0 l 1,9,-1
 707 263 l 1,10,-1
 100 263 l 1,0,-1
706 444 m 1,11,-1
 706 723 l 1,12,-1
 716 904 l 1,13,-1
 367 444 l 1,14,-1
 706 444 l 1,11,-1
EndSplineSet
EndChar

StartChar: five
Encoding: 53 53 24
Width: 1126
GlyphClass: 2
Flags: W
LayerCount: 2
Fore
SplineSet
533 160 m 0,0,1
 632 160 632 160 697.5 225 c 128,-1,2
 763 290 763 290 763 411 c 128,-1,3
 763 532 763 532 704.5 597 c 128,-1,4
 646 662 646 662 542 662 c 0,5,6
 482 662 482 662 436 648 c 128,-1,7
 390 634 390 634 331 594 c 1,8,-1
 195 637 l 1,9,-1
 245 1272 l 1,10,-1
 953 1272 l 1,11,-1
 953 1077 l 1,12,-1
 428 1077 l 1,13,-1
 409 812 l 1,14,15
 484 852 484 852 594 852 c 0,16,17
 769 852 769 852 881.5 730 c 128,-1,18
 994 608 994 608 994 406.5 c 128,-1,19
 994 205 994 205 871.5 81 c 128,-1,20
 749 -43 749 -43 538 -43 c 0,21,22
 243 -43 243 -43 107 199 c 1,23,-1
 309 346 l 1,24,25
 320 331 320 331 321.5 309 c 128,-1,26
 323 287 323 287 332 272 c 0,27,28
 361 224 361 224 412.5 192 c 128,-1,29
 464 160 464 160 533 160 c 0,0,1
EndSplineSet
EndChar

StartChar: six
Encoding: 54 54 25
Width: 1126
GlyphClass: 2
Flags: W
LayerCount: 2
Fore
SplineSet
577 -39 m 0,0,1
 348 -39 348 -39 223.5 126.5 c 128,-1,2
 99 292 99 292 99 582 c 0,3,4
 99 920 99 920 246 1111.5 c 128,-1,5
 393 1303 393 1303 652 1303 c 0,6,7
 844 1303 844 1303 996 1149 c 1,8,-1
 837 975 l 1,9,10
 821 990 821 990 814.5 1013 c 128,-1,11
 808 1036 808 1036 797 1049 c 0,12,13
 747 1106 747 1106 641 1106 c 0,14,15
 367 1106 367 1106 322 768 c 1,16,17
 367 800 367 800 453.5 825 c 128,-1,18
 540 850 540 850 622 850 c 0,19,20
 796 850 796 850 905.5 731.5 c 128,-1,21
 1015 613 1015 613 1015 413.5 c 128,-1,22
 1015 214 1015 214 898 87.5 c 128,-1,23
 781 -39 781 -39 577 -39 c 0,0,1
578 156 m 0,24,25
 778 156 778 156 778 413 c 0,26,27
 778 533 778 533 729 595 c 128,-1,28
 680 657 680 657 557.5 657 c 128,-1,29
 435 657 435 657 326 595 c 1,30,31
 326 365 326 365 390.5 260.5 c 128,-1,32
 455 156 455 156 578 156 c 0,24,25
EndSplineSet
EndChar

StartChar: seven
Encoding: 55 55 26
Width: 1126
GlyphClass: 2
Flags: W
LayerCount: 2
Fore
SplineSet
155 1075 m 1,0,-1
 155 1276 l 1,1,-1
 993 1276 l 1,2,-1
 993 1159 l 1,3,4
 717 540 717 540 551 0 c 1,5,-1
 303 0 l 1,6,7
 443 417 443 417 717 1075 c 1,8,-1
 155 1075 l 1,0,-1
EndSplineSet
EndChar

StartChar: eight
Encoding: 56 56 27
Width: 1126
GlyphClass: 2
Flags: W
LayerCount: 2
Fore
SplineSet
91 345 m 0,0,1
 91 551 91 551 341 688 c 1,2,3
 250 752 250 752 213.5 820.5 c 128,-1,4
 177 889 177 889 177 973 c 0,5,6
 177 1130 177 1130 280 1219.5 c 128,-1,7
 383 1309 383 1309 570 1309 c 128,-1,8
 757 1309 757 1309 867 1218.5 c 128,-1,9
 977 1128 977 1128 977 992 c 0,10,11
 977 820 977 820 778 684 c 1,12,13
 886 623 886 623 952 552 c 0,14,15
 1035 464 1035 464 1035 341 c 0,16,17
 1035 179 1035 179 898.5 70 c 128,-1,18
 762 -39 762 -39 561.5 -39 c 128,-1,19
 361 -39 361 -39 226 70.5 c 128,-1,20
 91 180 91 180 91 345 c 0,0,1
731 963 m 0,21,22
 731 1029 731 1029 687 1068.5 c 128,-1,23
 643 1108 643 1108 568.5 1108 c 128,-1,24
 494 1108 494 1108 453 1069.5 c 128,-1,25
 412 1031 412 1031 412 972.5 c 128,-1,26
 412 914 412 914 456 871 c 128,-1,27
 500 828 500 828 610 770 c 1,28,29
 731 853 731 853 731 963 c 0,21,22
345 364 m 0,30,31
 345 269 345 269 407.5 215.5 c 128,-1,32
 470 162 470 162 562.5 162 c 128,-1,33
 655 162 655 162 711.5 211.5 c 128,-1,34
 768 261 768 261 768 337.5 c 128,-1,35
 768 414 768 414 716.5 459.5 c 128,-1,36
 665 505 665 505 504 592 c 1,37,38
 345 505 345 505 345 364 c 0,30,31
EndSplineSet
EndChar

StartChar: nine
Encoding: 57 57 28
Width: 1126
GlyphClass: 2
Flags: W
LayerCount: 2
Fore
SplineSet
453 158 m 0,0,1
 727 158 727 158 772 496 c 1,2,3
 727 464 727 464 640.5 439 c 128,-1,4
 554 414 554 414 472 414 c 0,5,6
 298 414 298 414 188.5 532.5 c 128,-1,7
 79 651 79 651 79 850.5 c 128,-1,8
 79 1050 79 1050 196 1176.5 c 128,-1,9
 313 1303 313 1303 517 1303 c 0,10,11
 746 1303 746 1303 870.5 1137.5 c 128,-1,12
 995 972 995 972 995 682 c 0,13,14
 995 344 995 344 848 152.5 c 128,-1,15
 701 -39 701 -39 442 -39 c 0,16,17
 250 -39 250 -39 98 115 c 1,18,-1
 257 289 l 1,19,20
 273 274 273 274 279.5 251 c 128,-1,21
 286 228 286 228 297 215 c 0,22,23
 347 158 347 158 453 158 c 0,0,1
365 669 m 128,-1,25
 414 607 414 607 536.5 607 c 128,-1,26
 659 607 659 607 768 669 c 1,27,28
 768 899 768 899 703.5 1003.5 c 128,-1,29
 639 1108 639 1108 516 1108 c 0,30,31
 316 1108 316 1108 316 851 c 0,32,24
 316 731 316 731 365 669 c 128,-1,25
EndSplineSet
EndChar

StartChar: colon
Encoding: 58 58 29
Width: 1126
GlyphClass: 2
Flags: W
LayerCount: 2
Fore
SplineSet
544 597 m 128,-1,1
 476 597 476 597 431 638 c 128,-1,2
 386 679 386 679 386 742 c 128,-1,3
 386 805 386 805 431 846.5 c 128,-1,4
 476 888 476 888 544 888 c 128,-1,5
 612 888 612 888 657.5 846.5 c 128,-1,6
 703 805 703 805 703 742 c 128,-1,7
 703 679 703 679 657.5 638 c 128,-1,0
 612 597 612 597 544 597 c 128,-1,1
431 8 m 128,-1,9
 386 49 386 49 386 112 c 128,-1,10
 386 175 386 175 431 216.5 c 128,-1,11
 476 258 476 258 544 258 c 128,-1,12
 612 258 612 258 657.5 216.5 c 128,-1,13
 703 175 703 175 703 112 c 128,-1,14
 703 49 703 49 657.5 8 c 128,-1,15
 612 -33 612 -33 544 -33 c 128,-1,8
 476 -33 476 -33 431 8 c 128,-1,9
EndSplineSet
EndChar

StartChar: semicolon
Encoding: 59 59 30
Width: 1126
GlyphClass: 2
Flags: W
LayerCount: 2
Fore
SplineSet
544 597 m 128,-1,1
 476 597 476 597 431 638 c 128,-1,2
 386 679 386 679 386 742 c 128,-1,3
 386 805 386 805 431 846.5 c 128,-1,4
 476 888 476 888 544 888 c 128,-1,5
 612 888 612 888 657.5 846.5 c 128,-1,6
 703 805 703 805 703 742 c 128,-1,7
 703 679 703 679 657.5 638 c 128,-1,0
 612 597 612 597 544 597 c 128,-1,1
408 104 m 0,8,9
 408 165 408 165 450.5 206 c 128,-1,10
 493 247 493 247 561 247 c 128,-1,11
 629 247 629 247 679 193 c 128,-1,12
 729 139 729 139 729 51 c 128,-1,13
 729 -37 729 -37 651.5 -170 c 128,-1,14
 574 -303 574 -303 415 -424 c 1,15,-1
 300 -319 l 1,16,17
 391 -244 391 -244 448.5 -162.5 c 128,-1,18
 506 -81 506 -81 506 -44 c 0,19,20
 506 -25 506 -25 457 16 c 0,21,22
 439 31 439 31 423.5 55 c 128,-1,23
 408 79 408 79 408 104 c 0,8,9
EndSplineSet
EndChar

StartChar: less
Encoding: 60 60 31
Width: 1126
GlyphClass: 2
Flags: W
LayerCount: 2
Fore
SplineSet
76 604 m 1,0,-1
 76 723 l 1,1,-1
 964 1192 l 1,2,-1
 964 989 l 1,3,-1
 325 662 l 1,4,-1
 971 299 l 1,5,-1
 971 80 l 1,6,-1
 76 604 l 1,0,-1
EndSplineSet
EndChar

StartChar: equal
Encoding: 61 61 32
Width: 1126
GlyphClass: 2
Flags: W
LayerCount: 2
Fore
SplineSet
149 763 m 1,0,-1
 149 950 l 1,1,-1
 977 950 l 1,2,-1
 977 763 l 1,3,-1
 149 763 l 1,0,-1
149 363 m 1,4,-1
 149 550 l 1,5,-1
 977 550 l 1,6,-1
 977 363 l 1,7,-1
 149 363 l 1,4,-1
EndSplineSet
EndChar

StartChar: greater
Encoding: 62 62 33
Width: 1126
GlyphClass: 2
Flags: W
LayerCount: 2
Fore
SplineSet
146 80 m 1,0,-1
 146 299 l 1,1,-1
 789 662 l 1,2,-1
 148 989 l 1,3,-1
 148 1192 l 1,4,-1
 1041 723 l 1,5,-1
 1041 604 l 1,6,-1
 146 80 l 1,0,-1
EndSplineSet
EndChar

StartChar: question
Encoding: 63 63 34
Width: 1126
GlyphClass: 2
Flags: W
LayerCount: 2
Fore
SplineSet
462 379 m 1,0,-1
 462 492 l 2,1,2
 462 586 462 586 496 647.5 c 128,-1,3
 530 709 530 709 633 812 c 1,4,5
 752 929 752 929 752 1051 c 0,6,7
 752 1128 752 1128 708.5 1163 c 128,-1,8
 665 1198 665 1198 580.5 1198 c 128,-1,9
 496 1198 496 1198 431 1164 c 128,-1,10
 366 1130 366 1130 297 1050 c 1,11,-1
 157 1164 l 1,12,13
 333 1376 333 1376 593 1376 c 0,14,15
 762 1376 762 1376 860.5 1291.5 c 128,-1,16
 959 1207 959 1207 959 1066 c 0,17,18
 959 951 959 951 892 853 c 0,19,20
 858 802 858 802 832 771.5 c 128,-1,21
 806 741 806 741 757.5 689.5 c 128,-1,22
 709 638 709 638 688.5 596 c 128,-1,23
 668 554 668 554 668 492 c 2,24,-1
 668 379 l 1,25,-1
 462 379 l 1,0,-1
458 8 m 128,-1,27
 413 49 413 49 413 112 c 128,-1,28
 413 175 413 175 458 216.5 c 128,-1,29
 503 258 503 258 571 258 c 128,-1,30
 639 258 639 258 684.5 216.5 c 128,-1,31
 730 175 730 175 730 112 c 128,-1,32
 730 49 730 49 684.5 8 c 128,-1,33
 639 -33 639 -33 571 -33 c 128,-1,26
 503 -33 503 -33 458 8 c 128,-1,27
EndSplineSet
EndChar

StartChar: at
Encoding: 64 64 35
Width: 1126
GlyphClass: 2
Flags: W
LayerCount: 2
Fore
SplineSet
191.5 151 m 128,-1,1
 22 331 22 331 22 640.5 c 128,-1,2
 22 950 22 950 180.5 1129.5 c 128,-1,3
 339 1309 339 1309 600 1309 c 0,4,5
 811 1309 811 1309 929.5 1189.5 c 128,-1,6
 1048 1070 1048 1070 1048 856 c 2,7,-1
 1048 334 l 1,8,-1
 846 334 l 1,9,-1
 846 427 l 1,10,11
 816 376 816 376 756 347.5 c 128,-1,12
 696 319 696 319 619 319 c 0,13,14
 490 319 490 319 409 397 c 128,-1,15
 328 475 328 475 328 606 c 0,16,17
 328 915 328 915 831 920 c 1,18,19
 824 1027 824 1027 759 1082 c 128,-1,20
 694 1137 694 1137 587 1137 c 0,21,22
 422 1137 422 1137 324 1011.5 c 128,-1,23
 226 886 226 886 226 650.5 c 128,-1,24
 226 415 226 415 341.5 276 c 128,-1,25
 457 137 457 137 654 137 c 0,26,27
 796 137 796 137 904 221 c 1,28,-1
 993 70 l 1,29,30
 854 -29 854 -29 648 -29 c 0,31,0
 361 -29 361 -29 191.5 151 c 128,-1,1
534 606 m 0,32,33
 534 547 534 547 565.5 514 c 128,-1,34
 597 481 597 481 656 481 c 0,35,36
 748 481 748 481 794 558 c 128,-1,37
 840 635 840 635 840 776 c 1,38,39
 680 774 680 774 607 736.5 c 128,-1,40
 534 699 534 699 534 606 c 0,32,33
EndSplineSet
EndChar

StartChar: A
Encoding: 65 65 36
Width: 1126
GlyphClass: 2
Flags: W
LayerCount: 2
Fore
SplineSet
30 0 m 1,0,-1
 480 1298 l 1,1,-1
 625 1298 l 1,2,-1
 1086 0 l 1,3,-1
 856 0 l 1,4,-1
 748 319 l 1,5,-1
 357 319 l 1,6,-1
 256 0 l 1,7,-1
 30 0 l 1,0,-1
417 510 m 1,8,-1
 683 510 l 1,9,-1
 545 915 l 1,10,-1
 417 510 l 1,8,-1
EndSplineSet
EndChar

StartChar: B
Encoding: 66 66 37
Width: 1126
GlyphClass: 2
Flags: W
LayerCount: 2
Fore
SplineSet
115 0 m 1,0,-1
 115 1276 l 1,1,-1
 579 1276 l 2,2,3
 782 1276 782 1276 878.5 1201 c 128,-1,4
 975 1126 975 1126 975 970 c 0,5,6
 975 795 975 795 830 684 c 1,7,8
 931 631 931 631 978 553.5 c 128,-1,9
 1025 476 1025 476 1025 360 c 0,10,11
 1025 177 1025 177 903.5 88.5 c 128,-1,12
 782 0 782 0 527 0 c 2,13,-1
 115 0 l 1,0,-1
351 784 m 1,14,-1
 561 784 l 2,15,16
 655 784 655 784 699.5 820.5 c 128,-1,17
 744 857 744 857 744 932 c 128,-1,18
 744 1007 744 1007 692.5 1041 c 128,-1,19
 641 1075 641 1075 531 1075 c 2,20,-1
 351 1075 l 1,21,-1
 351 784 l 1,14,-1
351 201 m 1,22,-1
 549 201 l 2,23,24
 671 201 671 201 728 244.5 c 128,-1,25
 785 288 785 288 785 386 c 128,-1,26
 785 484 785 484 734.5 533.5 c 128,-1,27
 684 583 684 583 577 583 c 2,28,-1
 351 583 l 1,29,-1
 351 201 l 1,22,-1
EndSplineSet
EndChar

StartChar: C
Encoding: 67 67 38
Width: 1126
GlyphClass: 2
Flags: W
LayerCount: 2
Fore
SplineSet
541 -37 m 0,0,1
 319 -37 319 -37 191 140.5 c 128,-1,2
 63 318 63 318 63 634.5 c 128,-1,3
 63 951 63 951 199 1130 c 128,-1,4
 335 1309 335 1309 577 1309 c 0,5,6
 734 1309 734 1309 829.5 1232.5 c 128,-1,7
 925 1156 925 1156 974 997 c 1,8,-1
 757 918 l 1,9,10
 745 939 745 939 744.5 971 c 128,-1,11
 744 1003 744 1003 736 1020 c 0,12,13
 716 1060 716 1060 674 1087.5 c 128,-1,14
 632 1115 632 1115 575 1115 c 0,15,16
 446 1115 446 1115 374.5 991 c 128,-1,17
 303 867 303 867 303 640 c 128,-1,18
 303 413 303 413 375.5 284.5 c 128,-1,19
 448 156 448 156 575 156 c 0,20,21
 648 156 648 156 702 197 c 128,-1,22
 756 238 756 238 799 326 c 1,23,-1
 973 213 l 1,24,25
 903 84 903 84 802 23.5 c 128,-1,26
 701 -37 701 -37 541 -37 c 0,0,1
EndSplineSet
EndChar

StartChar: D
Encoding: 68 68 39
Width: 1126
GlyphClass: 2
Flags: W
LayerCount: 2
Fore
SplineSet
127 0 m 1,0,-1
 127 1276 l 1,1,-1
 490 1276 l 2,2,3
 752 1276 752 1276 899 1107.5 c 128,-1,4
 1046 939 1046 939 1046 638.5 c 128,-1,5
 1046 338 1046 338 892.5 169 c 128,-1,6
 739 0 739 0 465 0 c 2,7,-1
 127 0 l 1,0,-1
363 201 m 1,8,-1
 481 201 l 2,9,10
 635 201 635 201 725 316 c 128,-1,11
 815 431 815 431 815 635.5 c 128,-1,12
 815 840 815 840 728.5 957.5 c 128,-1,13
 642 1075 642 1075 492 1075 c 2,14,-1
 363 1075 l 1,15,-1
 363 201 l 1,8,-1
EndSplineSet
EndChar

StartChar: E
Encoding: 69 69 40
Width: 1126
GlyphClass: 2
Flags: W
LayerCount: 2
Fore
SplineSet
142 0 m 1,0,-1
 142 1276 l 1,1,-1
 976 1276 l 1,2,-1
 976 1075 l 1,3,-1
 368 1075 l 1,4,-1
 368 764 l 1,5,-1
 872 764 l 1,6,-1
 872 563 l 1,7,-1
 368 563 l 1,8,-1
 368 201 l 1,9,-1
 972 201 l 1,10,-1
 972 0 l 1,11,-1
 142 0 l 1,0,-1
EndSplineSet
EndChar

StartChar: F
Encoding: 70 70 41
Width: 1126
GlyphClass: 2
Flags: W
LayerCount: 2
Fore
SplineSet
203 0 m 1,0,-1
 203 1276 l 1,1,-1
 1002 1276 l 1,2,-1
 1002 1075 l 1,3,-1
 439 1075 l 1,4,-1
 439 787 l 1,5,-1
 893 787 l 1,6,-1
 893 586 l 1,7,-1
 439 586 l 1,8,-1
 439 0 l 1,9,-1
 203 0 l 1,0,-1
EndSplineSet
EndChar

StartChar: G
Encoding: 71 71 42
Width: 1126
GlyphClass: 2
Flags: W
LayerCount: 2
Fore
SplineSet
593 -37 m 0,0,1
 343 -37 343 -37 203 141.5 c 128,-1,2
 63 320 63 320 63 637.5 c 128,-1,3
 63 955 63 955 203 1132 c 128,-1,4
 343 1309 343 1309 593 1309 c 0,5,6
 737 1309 737 1309 849.5 1246 c 128,-1,7
 962 1183 962 1183 1026 1065 c 1,8,-1
 862 902 l 1,9,10
 850 913 850 913 837 944 c 128,-1,11
 824 975 824 975 809 995 c 0,12,13
 764 1055 764 1055 716.5 1084.5 c 128,-1,14
 669 1114 669 1114 589 1114 c 0,15,16
 453 1114 453 1114 377 992 c 128,-1,17
 301 870 301 870 301 645 c 128,-1,18
 301 420 301 420 378 289 c 128,-1,19
 455 158 455 158 590.5 158 c 128,-1,20
 726 158 726 158 795 211 c 1,21,-1
 795 451 l 1,22,-1
 558 451 l 1,23,-1
 558 652 l 1,24,-1
 1031 652 l 1,25,-1
 1031 109 l 1,26,27
 959 43 959 43 832 3 c 128,-1,28
 705 -37 705 -37 593 -37 c 0,0,1
EndSplineSet
EndChar

StartChar: H
Encoding: 72 72 43
Width: 1126
GlyphClass: 2
Flags: W
LayerCount: 2
Fore
SplineSet
88 0 m 1,0,-1
 88 1276 l 1,1,-1
 338 1276 l 1,2,-1
 338 1272 l 2,3,4
 338 1264 338 1264 331 1245 c 128,-1,5
 324 1226 324 1226 324 1204 c 2,6,-1
 324 762 l 1,7,-1
 790 762 l 1,8,-1
 790 1276 l 1,9,-1
 1040 1276 l 1,10,-1
 1040 1272 l 2,11,12
 1040 1264 1040 1264 1033 1245 c 128,-1,13
 1026 1226 1026 1226 1026 1204 c 2,14,-1
 1026 0 l 1,15,-1
 790 0 l 1,16,-1
 790 561 l 1,17,-1
 324 561 l 1,18,-1
 324 0 l 1,19,-1
 88 0 l 1,0,-1
EndSplineSet
EndChar

StartChar: I
Encoding: 73 73 44
Width: 1126
GlyphClass: 2
Flags: W
LayerCount: 2
Fore
SplineSet
207 0 m 1,0,-1
 207 203 l 1,1,-1
 438 203 l 1,2,-1
 438 1075 l 1,3,-1
 207 1075 l 1,4,-1
 207 1276 l 1,5,-1
 919 1276 l 1,6,-1
 919 1075 l 1,7,-1
 674 1075 l 1,8,-1
 674 201 l 1,9,-1
 919 201 l 1,10,-1
 919 0 l 1,11,-1
 207 0 l 1,0,-1
EndSplineSet
EndChar

StartChar: J
Encoding: 74 74 45
Width: 1126
GlyphClass: 2
Flags: W
LayerCount: 2
Fore
SplineSet
531.5 226.5 m 128,-1,1
 565 291 565 291 565 438 c 2,2,-1
 565 1075 l 1,3,-1
 301 1075 l 1,4,-1
 301 1276 l 1,5,-1
 1010 1276 l 1,6,-1
 1010 1075 l 1,7,-1
 801 1075 l 1,8,-1
 801 412 l 2,9,10
 801 299 801 299 772 211.5 c 128,-1,11
 743 124 743 124 692 71 c 0,12,13
 588 -35 588 -35 433 -35 c 0,14,15
 226 -35 226 -35 91 143 c 1,16,-1
 237 319 l 1,17,18
 252 310 252 310 272 270.5 c 128,-1,19
 292 231 292 231 308 210 c 0,20,21
 346 162 346 162 422 162 c 128,-1,0
 498 162 498 162 531.5 226.5 c 128,-1,1
EndSplineSet
EndChar

StartChar: K
Encoding: 75 75 46
Width: 1126
GlyphClass: 2
Flags: W
LayerCount: 2
Fore
SplineSet
128 0 m 1,0,-1
 128 1276 l 1,1,-1
 378 1276 l 1,2,-1
 378 1272 l 2,3,4
 378 1264 378 1264 371 1245 c 128,-1,5
 364 1226 364 1226 364 1204 c 2,6,-1
 364 788 l 1,7,-1
 798 1292 l 1,8,9
 870 1276 870 1276 917 1276 c 2,10,-1
 1058 1276 l 1,11,-1
 606 784 l 1,12,-1
 1076 2 l 1,13,-1
 798 -10 l 1,14,-1
 445 609 l 1,15,-1
 364 522 l 1,16,-1
 364 0 l 1,17,-1
 128 0 l 1,0,-1
EndSplineSet
EndChar

StartChar: L
Encoding: 76 76 47
Width: 1126
GlyphClass: 2
Flags: W
LayerCount: 2
Fore
SplineSet
186 0 m 1,0,-1
 186 1276 l 1,1,-1
 436 1276 l 1,2,-1
 436 1272 l 2,3,4
 436 1264 436 1264 429 1245 c 128,-1,5
 422 1226 422 1226 422 1204 c 2,6,-1
 422 193 l 1,7,-1
 967 193 l 1,8,-1
 967 0 l 1,9,-1
 186 0 l 1,0,-1
EndSplineSet
EndChar

StartChar: M
Encoding: 77 77 48
Width: 1126
GlyphClass: 2
Flags: W
LayerCount: 2
Fore
SplineSet
71 0 m 1,0,-1
 71 1276 l 1,1,-1
 319 1276 l 1,2,-1
 473 903 l 1,3,-1
 564 660 l 1,4,-1
 659 905 l 1,5,-1
 813 1278 l 1,6,-1
 1055 1278 l 1,7,-1
 1055 0 l 1,8,-1
 829 0 l 1,9,-1
 829 683 l 1,10,-1
 845 935 l 1,11,-1
 763 700 l 1,12,-1
 617 364 l 1,13,-1
 501 364 l 1,14,-1
 269 936 l 1,15,-1
 287 685 l 1,16,-1
 287 0 l 1,17,-1
 71 0 l 1,0,-1
EndSplineSet
EndChar

StartChar: N
Encoding: 78 78 49
Width: 1126
GlyphClass: 2
Flags: W
LayerCount: 2
Fore
SplineSet
122 0 m 1,0,-1
 122 1276 l 1,1,-1
 402 1276 l 1,2,-1
 676 668 l 1,3,-1
 818 362 l 1,4,-1
 798 685 l 1,5,-1
 798 1276 l 1,6,-1
 1028 1276 l 1,7,-1
 1028 1272 l 2,8,9
 1028 1264 1028 1264 1021 1245 c 128,-1,10
 1014 1226 1014 1226 1014 1204 c 2,11,-1
 1014 0 l 1,12,-1
 781 0 l 1,13,-1
 427 769 l 1,14,-1
 318 1023 l 1,15,-1
 338 766 l 1,16,-1
 338 0 l 1,17,-1
 122 0 l 1,0,-1
EndSplineSet
EndChar

StartChar: O
Encoding: 79 79 50
Width: 1126
GlyphClass: 2
Flags: W
LayerCount: 2
Fore
SplineSet
932.5 141.5 m 128,-1,1
 801 -37 801 -37 565 -37 c 128,-1,2
 329 -37 329 -37 196 142.5 c 128,-1,3
 63 322 63 322 63 639 c 128,-1,4
 63 956 63 956 196.5 1132.5 c 128,-1,5
 330 1309 330 1309 566 1309 c 128,-1,6
 802 1309 802 1309 933 1132 c 128,-1,7
 1064 955 1064 955 1064 637.5 c 128,-1,0
 1064 320 1064 320 932.5 141.5 c 128,-1,1
373 289.5 m 128,-1,9
 443 158 443 158 565.5 158 c 128,-1,10
 688 158 688 158 756 287 c 128,-1,11
 824 416 824 416 824 640.5 c 128,-1,12
 824 865 824 865 757 989.5 c 128,-1,13
 690 1114 690 1114 567 1114 c 128,-1,14
 444 1114 444 1114 373.5 992.5 c 128,-1,15
 303 871 303 871 303 646 c 128,-1,8
 303 421 303 421 373 289.5 c 128,-1,9
EndSplineSet
EndChar

StartChar: P
Encoding: 80 80 51
Width: 1126
GlyphClass: 2
Flags: W
LayerCount: 2
Fore
SplineSet
140 0 m 1,0,-1
 140 1276 l 1,1,-1
 575 1276 l 2,2,3
 779 1276 779 1276 892 1178.5 c 128,-1,4
 1005 1081 1005 1081 1005 901.5 c 128,-1,5
 1005 722 1005 722 893.5 619 c 128,-1,6
 782 516 782 516 585 516 c 2,7,-1
 376 516 l 1,8,-1
 376 0 l 1,9,-1
 140 0 l 1,0,-1
376 717 m 1,10,-1
 568 717 l 2,11,12
 769 717 769 717 769 892 c 0,13,14
 769 982 769 982 717 1028.5 c 128,-1,15
 665 1075 665 1075 570 1075 c 2,16,-1
 376 1075 l 1,17,-1
 376 717 l 1,10,-1
EndSplineSet
EndChar

StartChar: Q
Encoding: 81 81 52
Width: 1126
GlyphClass: 2
Flags: W
LayerCount: 2
Fore
SplineSet
63 641 m 0,0,1
 63 956 63 956 196.5 1132.5 c 128,-1,2
 330 1309 330 1309 566 1309 c 128,-1,3
 802 1309 802 1309 933 1132 c 128,-1,4
 1064 955 1064 955 1064 651.5 c 128,-1,5
 1064 348 1064 348 953.5 172.5 c 128,-1,6
 843 -3 843 -3 642 -32 c 1,7,8
 653 -100 653 -100 731 -100 c 1,9,-1
 933 -92 l 1,10,-1
 927 -299 l 1,11,-1
 763 -299 l 2,12,13
 587 -299 587 -299 506 -232.5 c 128,-1,14
 425 -166 425 -166 421 -17 c 1,15,16
 250 33 250 33 156.5 204 c 128,-1,17
 63 375 63 375 63 641 c 0,0,1
373 289.5 m 128,-1,19
 443 158 443 158 565.5 158 c 128,-1,20
 688 158 688 158 756 287 c 128,-1,21
 824 416 824 416 824 640.5 c 128,-1,22
 824 865 824 865 757 989.5 c 128,-1,23
 690 1114 690 1114 567 1114 c 128,-1,24
 444 1114 444 1114 373.5 992.5 c 128,-1,25
 303 871 303 871 303 646 c 128,-1,18
 303 421 303 421 373 289.5 c 128,-1,19
EndSplineSet
EndChar

StartChar: R
Encoding: 82 82 53
Width: 1126
GlyphClass: 2
Flags: W
LayerCount: 2
Fore
SplineSet
140 0 m 1,0,-1
 140 1276 l 1,1,-1
 575 1276 l 2,2,3
 782 1276 782 1276 893.5 1187 c 128,-1,4
 1005 1098 1005 1098 1005 921 c 0,5,6
 1005 796 1005 796 948 711 c 128,-1,7
 891 626 891 626 784 587 c 1,8,-1
 1041 0 l 1,9,-1
 783 0 l 1,10,-1
 560 556 l 1,11,-1
 376 556 l 1,12,-1
 376 0 l 1,13,-1
 140 0 l 1,0,-1
376 757 m 1,14,-1
 568 757 l 2,15,16
 671 757 671 757 720 791 c 128,-1,17
 769 825 769 825 769 912 c 128,-1,18
 769 999 769 999 718.5 1037 c 128,-1,19
 668 1075 668 1075 570 1075 c 2,20,-1
 376 1075 l 1,21,-1
 376 757 l 1,14,-1
EndSplineSet
EndChar

StartChar: S
Encoding: 83 83 54
Width: 1126
GlyphClass: 2
Flags: W
LayerCount: 2
Fore
SplineSet
399.5 196.5 m 128,-1,1
 474 160 474 160 558.5 160 c 128,-1,2
 643 160 643 160 696 205 c 128,-1,3
 749 250 749 250 749 323 c 128,-1,4
 749 396 749 396 697.5 452 c 128,-1,5
 646 508 646 508 513 571 c 0,6,7
 311 668 311 668 225.5 756 c 128,-1,8
 140 844 140 844 140 970 c 0,9,10
 140 1122 140 1122 254.5 1215.5 c 128,-1,11
 369 1309 369 1309 558 1309 c 0,12,13
 669 1309 669 1309 773 1259.5 c 128,-1,14
 877 1210 877 1210 951 1122 c 1,15,-1
 815 941 l 1,16,17
 803 951 803 951 791.5 975.5 c 128,-1,18
 780 1000 780 1000 767 1014 c 0,19,20
 721 1063 721 1063 661 1090 c 128,-1,21
 601 1117 601 1117 532 1117 c 128,-1,22
 463 1117 463 1117 420.5 1083 c 128,-1,23
 378 1049 378 1049 378 982 c 128,-1,24
 378 915 378 915 432.5 865.5 c 128,-1,25
 487 816 487 816 648.5 739.5 c 128,-1,26
 810 663 810 663 896 562.5 c 128,-1,27
 982 462 982 462 982 352 c 0,28,29
 982 168 982 168 862.5 65.5 c 128,-1,30
 743 -37 743 -37 529 -37 c 0,31,32
 415 -37 415 -37 300.5 14 c 128,-1,33
 186 65 186 65 97 156 c 1,34,-1
 221 373 l 1,35,36
 240 358 240 358 247 335 c 128,-1,37
 254 312 254 312 267 297 c 0,38,0
 325 233 325 233 399.5 196.5 c 128,-1,1
EndSplineSet
EndChar

StartChar: T
Encoding: 84 84 55
Width: 1126
GlyphClass: 2
Flags: W
LayerCount: 2
Fore
SplineSet
426 0 m 1,0,-1
 426 1075 l 1,1,-1
 81 1075 l 1,2,-1
 81 1276 l 1,3,-1
 1021 1276 l 1,4,-1
 1021 1075 l 1,5,-1
 662 1075 l 1,6,-1
 662 0 l 1,7,-1
 426 0 l 1,0,-1
EndSplineSet
EndChar

StartChar: U
Encoding: 85 85 56
Width: 1126
GlyphClass: 2
Flags: W
LayerCount: 2
Fore
SplineSet
99 451 m 2,0,-1
 99 1276 l 1,1,-1
 349 1276 l 1,2,-1
 349 1272 l 2,3,4
 349 1264 349 1264 342.5 1246.5 c 128,-1,5
 336 1229 336 1229 336 1213 c 2,6,-1
 336 449 l 2,7,8
 336 316 336 316 400 237 c 128,-1,9
 464 158 464 158 564.5 158 c 128,-1,10
 665 158 665 158 729.5 238.5 c 128,-1,11
 794 319 794 319 794 455 c 2,12,-1
 794 1276 l 1,13,-1
 1020 1276 l 1,14,-1
 1020 457 l 2,15,16
 1020 230 1020 230 894.5 96.5 c 128,-1,17
 769 -37 769 -37 560.5 -37 c 128,-1,18
 352 -37 352 -37 225.5 94.5 c 128,-1,19
 99 226 99 226 99 451 c 2,0,-1
EndSplineSet
EndChar

StartChar: V
Encoding: 86 86 57
Width: 1126
GlyphClass: 2
Flags: W
LayerCount: 2
Fore
SplineSet
484 0 m 1,0,-1
 50 1276 l 1,1,-1
 292 1276 l 1,2,-1
 580 371 l 1,3,-1
 854 1276 l 1,4,-1
 1090 1276 l 1,5,-1
 660 0 l 1,6,-1
 484 0 l 1,0,-1
EndSplineSet
EndChar

StartChar: W
Encoding: 87 87 58
Width: 1126
GlyphClass: 2
Flags: W
LayerCount: 2
Fore
SplineSet
199 0 m 1,0,-1
 13 1276 l 1,1,-1
 237 1276 l 1,2,-1
 307 695 l 1,3,-1
 338 404 l 1,4,-1
 399 690 l 1,5,-1
 508 1171 l 1,6,-1
 630 1171 l 1,7,-1
 750 691 l 1,8,-1
 807 404 l 1,9,-1
 835 691 l 1,10,-1
 900 1276 l 1,11,-1
 1113 1276 l 1,12,-1
 911 0 l 1,13,-1
 739 0 l 1,14,-1
 611 536 l 1,15,-1
 566 747 l 1,16,-1
 524 537 l 1,17,-1
 378 0 l 1,18,-1
 199 0 l 1,0,-1
EndSplineSet
EndChar

StartChar: X
Encoding: 88 88 59
Width: 1126
GlyphClass: 2
Flags: W
LayerCount: 2
Fore
SplineSet
53 0 m 1,0,-1
 431 654 l 1,1,-1
 47 1276 l 1,2,-1
 297 1276 l 1,3,-1
 584 816 l 1,4,-1
 853 1276 l 1,5,-1
 1081 1276 l 1,6,-1
 705 622 l 1,7,-1
 1092 0 l 1,8,-1
 834 0 l 1,9,-1
 551 459 l 1,10,-1
 303 0 l 1,11,-1
 53 0 l 1,0,-1
EndSplineSet
EndChar

StartChar: Y
Encoding: 89 89 60
Width: 1126
GlyphClass: 2
Flags: W
LayerCount: 2
Fore
SplineSet
457 0 m 1,0,-1
 457 499 l 1,1,-1
 48 1276 l 1,2,-1
 304 1276 l 1,3,-1
 467 942 l 1,4,-1
 577 711 l 1,5,-1
 675 943 l 1,6,-1
 820 1276 l 1,7,-1
 1074 1276 l 1,8,-1
 693 497 l 1,9,-1
 693 0 l 1,10,-1
 457 0 l 1,0,-1
EndSplineSet
EndChar

StartChar: Z
Encoding: 90 90 61
Width: 1126
GlyphClass: 2
Flags: W
LayerCount: 2
Fore
SplineSet
114 0 m 1,0,-1
 114 139 l 1,1,-1
 682 1073 l 1,2,-1
 126 1073 l 1,3,-1
 126 1276 l 1,4,-1
 974 1276 l 1,5,-1
 974 1137 l 1,6,-1
 417 201 l 1,7,-1
 933 201 l 2,8,9
 955 201 955 201 974 208 c 128,-1,10
 993 215 993 215 1001 215 c 2,11,-1
 1005 215 l 1,12,-1
 1005 0 l 1,13,-1
 114 0 l 1,0,-1
EndSplineSet
EndChar

StartChar: bracketleft
Encoding: 91 91 62
Width: 1126
GlyphClass: 2
Flags: W
LayerCount: 2
Fore
SplineSet
242 -416 m 1,0,-1
 242 1343 l 1,1,-1
 877 1343 l 1,2,-1
 877 1153 l 1,3,-1
 457 1153 l 1,4,-1
 457 -232 l 1,5,-1
 877 -232 l 1,6,-1
 877 -416 l 1,7,-1
 242 -416 l 1,0,-1
EndSplineSet
EndChar

StartChar: backslash
Encoding: 92 92 63
Width: 1126
GlyphClass: 2
Flags: W
LayerCount: 2
Fore
SplineSet
773 -96 m 1,0,-1
 134 1280 l 1,1,-1
 313 1374 l 1,2,-1
 952 -10 l 1,3,-1
 773 -96 l 1,0,-1
EndSplineSet
EndChar

StartChar: bracketright
Encoding: 93 93 64
Width: 1126
GlyphClass: 2
Flags: W
LayerCount: 2
Fore
SplineSet
242 -232 m 1,0,-1
 662 -232 l 1,1,-1
 662 1153 l 1,2,-1
 242 1153 l 1,3,-1
 242 1343 l 1,4,-1
 877 1343 l 1,5,-1
 877 -416 l 1,6,-1
 242 -416 l 1,7,-1
 242 -232 l 1,0,-1
EndSplineSet
EndChar

StartChar: asciicircum
Encoding: 94 94 65
Width: 1126
GlyphClass: 2
Flags: W
LayerCount: 2
Fore
SplineSet
366 680 m 1,0,-1
 198 760 l 1,1,-1
 529 1280 l 1,2,-1
 603 1280 l 1,3,-1
 896 760 l 1,4,-1
 728 680 l 1,5,-1
 558 1034 l 1,6,-1
 366 680 l 1,0,-1
EndSplineSet
EndChar

StartChar: underscore
Encoding: 95 95 66
Width: 1126
GlyphClass: 2
Flags: W
LayerCount: 2
Fore
SplineSet
123 -39 m 1,0,-1
 1005 -39 l 1,1,-1
 1005 -226 l 1,2,-1
 123 -226 l 1,3,-1
 123 -39 l 1,0,-1
EndSplineSet
EndChar

StartChar: grave
Encoding: 96 96 67
Width: 1126
GlyphClass: 2
Flags: W
LayerCount: 2
Fore
SplineSet
480 1019 m 1,0,-1
 268 1350 l 1,1,-1
 438 1446 l 1,2,-1
 596 1076 l 1,3,-1
 480 1019 l 1,0,-1
EndSplineSet
EndChar

StartChar: a
Encoding: 97 97 68
Width: 1126
GlyphClass: 2
Flags: W
LayerCount: 2
Fore
SplineSet
117 254 m 0,0,1
 117 407 117 407 246.5 498.5 c 128,-1,2
 376 590 376 590 624 590 c 2,3,-1
 760 590 l 1,4,5
 759 698 759 698 712 747.5 c 128,-1,6
 665 797 665 797 567.5 797 c 128,-1,7
 470 797 470 797 355 717 c 0,8,9
 347 712 347 712 336 694.5 c 128,-1,10
 325 677 325 677 307 665 c 1,11,-1
 175 821 l 1,12,13
 339 977 339 977 572 977 c 0,14,15
 997 977 997 977 997 582 c 2,16,-1
 997 0 l 1,17,-1
 762 0 l 1,18,-1
 762 86 l 1,19,20
 702 35 702 35 619 5 c 128,-1,21
 536 -25 536 -25 454 -25 c 0,22,23
 281 -25 281 -25 199 53 c 128,-1,24
 117 131 117 131 117 254 c 0,0,1
370 350 m 1,25,26
 345 318 345 318 345 264.5 c 128,-1,27
 345 211 345 211 386.5 180.5 c 128,-1,28
 428 150 428 150 500 150 c 0,29,30
 629 150 629 150 697.5 227.5 c 128,-1,31
 766 305 766 305 766 418 c 1,32,-1
 672 418 l 2,33,34
 426 418 426 418 370 350 c 1,25,26
EndSplineSet
EndChar

StartChar: b
Encoding: 98 98 69
Width: 1126
GlyphClass: 2
Flags: W
LayerCount: 2
Fore
SplineSet
143 0 m 1,0,-1
 143 1362 l 1,1,-1
 388 1362 l 1,2,3
 388 1341 388 1341 381 1315 c 128,-1,4
 374 1289 374 1289 374 1269 c 2,5,-1
 374 860 l 1,6,7
 419 924 419 924 493 955.5 c 128,-1,8
 567 987 567 987 647 987 c 128,-1,9
 727 987 727 987 799 957 c 128,-1,10
 871 927 871 927 927.5 869.5 c 128,-1,11
 984 812 984 812 1016.5 717.5 c 128,-1,12
 1049 623 1049 623 1049 503 c 0,13,14
 1049 241 1049 241 942 110 c 128,-1,15
 835 -21 835 -21 653 -21 c 0,16,17
 547 -21 547 -21 478 7 c 128,-1,18
 409 35 409 35 340 115 c 1,19,-1
 303 0 l 1,20,-1
 143 0 l 1,0,-1
374 469 m 0,21,22
 374 333 374 333 437 248 c 128,-1,23
 500 163 500 163 607.5 163 c 128,-1,24
 715 163 715 163 768 249.5 c 128,-1,25
 821 336 821 336 821 491 c 0,26,27
 821 664 821 664 754 737 c 0,28,29
 693 802 693 802 610 802 c 0,30,31
 507 802 507 802 440.5 722 c 128,-1,32
 374 642 374 642 374 469 c 0,21,22
EndSplineSet
EndChar

StartChar: c
Encoding: 99 99 70
Width: 1126
GlyphClass: 2
Flags: W
LayerCount: 2
Fore
SplineSet
123 469 m 0,0,1
 123 612 123 612 179.5 726.5 c 128,-1,2
 236 841 236 841 346 909 c 128,-1,3
 456 977 456 977 590 977 c 128,-1,4
 724 977 724 977 825 929.5 c 128,-1,5
 926 882 926 882 985 793 c 1,6,-1
 836 620 l 1,7,8
 824 631 824 631 820.5 651 c 128,-1,9
 817 671 817 671 810 681 c 0,10,11
 729 791 729 791 606.5 791 c 128,-1,12
 484 791 484 791 417 707 c 128,-1,13
 350 623 350 623 350 474.5 c 128,-1,14
 350 326 350 326 419.5 238.5 c 128,-1,15
 489 151 489 151 604 151 c 0,16,17
 663 151 663 151 725.5 186.5 c 128,-1,18
 788 222 788 222 844 291 c 1,19,-1
 977 137 l 1,20,21
 827 -33 827 -33 594 -33 c 0,22,23
 386 -33 386 -33 254.5 109 c 128,-1,24
 123 251 123 251 123 469 c 0,0,1
EndSplineSet
EndChar

StartChar: d
Encoding: 100 100 71
Width: 1126
GlyphClass: 2
Flags: W
LayerCount: 2
Fore
SplineSet
495 -21 m 0,0,1
 313 -21 313 -21 206 110 c 128,-1,2
 99 241 99 241 99 503 c 0,3,4
 99 623 99 623 132 717 c 128,-1,5
 165 811 165 811 222 869 c 0,6,7
 338 987 338 987 513 987 c 0,8,9
 589 987 589 987 661 961 c 128,-1,10
 733 935 733 935 774 893 c 1,11,-1
 774 1362 l 1,12,-1
 1019 1362 l 1,13,14
 1019 1341 1019 1341 1012 1315 c 128,-1,15
 1005 1289 1005 1289 1005 1269 c 2,16,-1
 1007 1212 l 1,17,-1
 1007 0 l 1,18,-1
 784 0 l 1,19,-1
 784 98 l 1,20,21
 742 39 742 39 657 9 c 128,-1,22
 572 -21 572 -21 495 -21 c 0,0,1
380 249.5 m 128,-1,24
 433 163 433 163 542.5 163 c 128,-1,25
 652 163 652 163 713 247 c 128,-1,26
 774 331 774 331 774 469 c 0,27,28
 774 642 774 642 707.5 722 c 128,-1,29
 641 802 641 802 538 802 c 0,30,31
 455 802 455 802 394 737 c 0,32,33
 327 664 327 664 327 500 c 128,-1,23
 327 336 327 336 380 249.5 c 128,-1,24
EndSplineSet
EndChar

StartChar: e
Encoding: 101 101 72
Width: 1126
GlyphClass: 2
Flags: W
LayerCount: 2
Fore
SplineSet
228.5 100.5 m 128,-1,1
 91 234 91 234 91 467 c 128,-1,2
 91 700 91 700 221.5 838.5 c 128,-1,3
 352 977 352 977 565 977 c 0,4,5
 760 977 760 977 875 856.5 c 128,-1,6
 990 736 990 736 990 516 c 0,7,8
 990 482 990 482 983 414 c 1,9,-1
 332 414 l 1,10,11
 347 285 347 285 421.5 217.5 c 128,-1,12
 496 150 496 150 601 150 c 0,13,14
 672 150 672 150 741.5 180 c 128,-1,15
 811 210 811 210 858 266 c 1,16,-1
 997 139 l 1,17,18
 836 -33 836 -33 601 -33 c 128,-1,0
 366 -33 366 -33 228.5 100.5 c 128,-1,1
767 582 m 1,19,20
 767 675 767 675 710 736 c 128,-1,21
 653 797 653 797 558.5 797 c 128,-1,22
 464 797 464 797 407.5 740.5 c 128,-1,23
 351 684 351 684 340 582 c 1,24,-1
 767 582 l 1,19,20
EndSplineSet
EndChar

StartChar: f
Encoding: 102 102 73
Width: 1126
GlyphClass: 2
Flags: W
LayerCount: 2
Fore
SplineSet
274 0 m 1,0,-1
 274 719 l 1,1,-1
 67 719 l 1,2,-1
 67 905 l 1,3,-1
 274 905 l 1,4,-1
 274 973 l 2,5,6
 274 1173 274 1173 383.5 1286 c 128,-1,7
 493 1399 493 1399 667 1399 c 0,8,9
 874 1399 874 1399 1001 1252 c 1,10,-1
 901 1053 l 1,11,12
 892 1061 892 1061 880 1082.5 c 128,-1,13
 868 1104 868 1104 854.5 1125.5 c 128,-1,14
 841 1147 841 1147 819 1168 c 0,15,16
 769 1217 769 1217 667 1217 c 0,17,18
 589 1217 589 1217 547 1149 c 128,-1,19
 505 1081 505 1081 505 954 c 2,20,-1
 505 905 l 1,21,-1
 878 905 l 1,22,-1
 878 719 l 1,23,-1
 505 719 l 1,24,-1
 505 0 l 1,25,-1
 274 0 l 1,0,-1
EndSplineSet
EndChar

StartChar: g
Encoding: 103 103 74
Width: 1126
GlyphClass: 2
Flags: W
LayerCount: 2
Fore
SplineSet
205 -285 m 128,-1,1
 96 -216 96 -216 96 -108.5 c 128,-1,2
 96 -1 96 -1 232 72 c 1,3,4
 159 116 159 116 159 210.5 c 128,-1,5
 159 305 159 305 278 393 c 1,6,7
 145 490 145 490 145 641 c 0,8,9
 145 735 145 735 197 815 c 128,-1,10
 249 895 249 895 333 940 c 128,-1,11
 417 985 417 985 509 985 c 0,12,13
 644 985 644 985 741 905 c 1,14,15
 851 979 851 979 999 979 c 1,16,-1
 1029 798 l 1,17,18
 994 805 994 805 946 805 c 128,-1,19
 898 805 898 805 833 780 c 1,20,21
 858 718 858 718 858 647 c 0,22,23
 858 498 858 498 758.5 407.5 c 128,-1,24
 659 317 659 317 507 317 c 0,25,26
 455 317 455 317 404 332 c 1,27,28
 379 316 379 316 370.5 303 c 128,-1,29
 362 290 362 290 362 268 c 0,30,31
 362 232 362 232 436.5 220.5 c 128,-1,32
 511 209 511 209 648 209 c 0,33,34
 814 209 814 209 895 139.5 c 128,-1,35
 976 70 976 70 976 -55.5 c 128,-1,36
 976 -181 976 -181 861.5 -267.5 c 128,-1,37
 747 -354 747 -354 530.5 -354 c 128,-1,0
 314 -354 314 -354 205 -285 c 128,-1,1
398.5 539 m 128,-1,39
 439 494 439 494 506 494 c 128,-1,40
 573 494 573 494 614 539 c 128,-1,41
 655 584 655 584 655 650 c 128,-1,42
 655 716 655 716 614 762.5 c 128,-1,43
 573 809 573 809 507.5 809 c 128,-1,44
 442 809 442 809 400 766 c 128,-1,45
 358 723 358 723 358 653.5 c 128,-1,38
 358 584 358 584 398.5 539 c 128,-1,39
303 -74 m 0,46,47
 303 -128 303 -128 370 -156 c 128,-1,48
 437 -184 437 -184 537 -184 c 128,-1,49
 637 -184 637 -184 701 -151.5 c 128,-1,50
 765 -119 765 -119 765 -69.5 c 128,-1,51
 765 -20 765 -20 739 0 c 128,-1,52
 713 20 713 20 646 20 c 0,53,54
 431 20 431 20 352 33 c 1,55,56
 323 8 323 8 313 -16.5 c 128,-1,57
 303 -41 303 -41 303 -74 c 0,46,47
EndSplineSet
EndChar

StartChar: h
Encoding: 104 104 75
Width: 1126
GlyphClass: 2
Flags: W
LayerCount: 2
Fore
SplineSet
143 0 m 1,0,-1
 143 1362 l 1,1,-1
 388 1362 l 1,2,3
 388 1341 388 1341 381 1315 c 128,-1,4
 374 1289 374 1289 374 1269 c 2,5,-1
 374 848 l 1,6,7
 522 977 522 977 734 977 c 0,8,9
 871 977 871 977 944 895.5 c 128,-1,10
 1017 814 1017 814 1017 630 c 2,11,-1
 1017 0 l 1,12,-1
 786 0 l 1,13,-1
 786 628 l 2,14,15
 786 788 786 788 649 788 c 0,16,17
 551 788 551 788 462.5 723.5 c 128,-1,18
 374 659 374 659 374 573 c 2,19,-1
 374 0 l 1,20,-1
 143 0 l 1,0,-1
EndSplineSet
EndChar

StartChar: i
Encoding: 105 105 76
Width: 1126
GlyphClass: 2
Flags: W
LayerCount: 2
Fore
SplineSet
515 1103 m 128,-1,1
 450 1103 450 1103 404 1148 c 128,-1,2
 358 1193 358 1193 358 1257.5 c 128,-1,3
 358 1322 358 1322 404 1368 c 128,-1,4
 450 1414 450 1414 515 1414 c 128,-1,5
 580 1414 580 1414 624.5 1369 c 128,-1,6
 669 1324 669 1324 669 1258.5 c 128,-1,7
 669 1193 669 1193 624.5 1148 c 128,-1,0
 580 1103 580 1103 515 1103 c 128,-1,1
173 0 m 1,8,-1
 173 186 l 1,9,-1
 448 186 l 1,10,-1
 448 770 l 1,11,-1
 178 770 l 1,12,-1
 178 956 l 1,13,-1
 679 956 l 1,14,-1
 679 186 l 1,15,-1
 954 186 l 1,16,-1
 954 0 l 1,17,-1
 173 0 l 1,8,-1
EndSplineSet
EndChar

StartChar: j
Encoding: 106 106 77
Width: 1126
GlyphClass: 2
Flags: W
LayerCount: 2
Fore
SplineSet
615 1103 m 128,-1,1
 550 1103 550 1103 504 1148 c 128,-1,2
 458 1193 458 1193 458 1257.5 c 128,-1,3
 458 1322 458 1322 504 1368 c 128,-1,4
 550 1414 550 1414 615 1414 c 128,-1,5
 680 1414 680 1414 724.5 1369 c 128,-1,6
 769 1324 769 1324 769 1258.5 c 128,-1,7
 769 1193 769 1193 724.5 1148 c 128,-1,0
 680 1103 680 1103 615 1103 c 128,-1,1
383 -178 m 0,8,9
 450 -178 450 -178 492.5 -122.5 c 128,-1,10
 535 -67 535 -67 535 39 c 2,11,-1
 535 770 l 1,12,-1
 203 770 l 1,13,-1
 203 956 l 1,14,-1
 766 956 l 1,15,-1
 766 47 l 2,16,17
 766 -159 766 -159 658.5 -260.5 c 128,-1,18
 551 -362 551 -362 370.5 -362 c 128,-1,19
 190 -362 190 -362 59 -203 c 1,20,-1
 197 -12 l 1,21,22
 212 -24 212 -24 218.5 -52 c 128,-1,23
 225 -80 225 -80 229 -86 c 0,24,25
 283 -178 283 -178 383 -178 c 0,8,9
EndSplineSet
EndChar

StartChar: k
Encoding: 107 107 78
Width: 1126
GlyphClass: 2
Flags: W
LayerCount: 2
Fore
SplineSet
153 0 m 1,0,-1
 153 1326 l 1,1,-1
 398 1326 l 1,2,3
 398 1305 398 1305 391 1279 c 128,-1,4
 384 1253 384 1253 384 1233 c 2,5,-1
 384 604 l 1,6,-1
 751 973 l 1,7,8
 824 956 824 956 868 956 c 2,9,-1
 1017 956 l 1,10,-1
 620 581 l 1,11,-1
 1058 2 l 1,12,-1
 779 -8 l 1,13,-1
 465 434 l 1,14,-1
 384 358 l 1,15,-1
 384 0 l 1,16,-1
 153 0 l 1,0,-1
EndSplineSet
EndChar

StartChar: l
Encoding: 108 108 79
Width: 1126
GlyphClass: 2
Flags: W
LayerCount: 2
Fore
SplineSet
167 0 m 1,0,-1
 167 186 l 1,1,-1
 429 186 l 1,2,-1
 429 1196 l 1,3,-1
 180 1196 l 1,4,-1
 180 1382 l 1,5,-1
 660 1382 l 1,6,-1
 660 186 l 1,7,-1
 922 186 l 1,8,-1
 922 0 l 1,9,-1
 167 0 l 1,0,-1
EndSplineSet
EndChar

StartChar: m
Encoding: 109 109 80
Width: 1126
GlyphClass: 2
Flags: W
LayerCount: 2
Fore
SplineSet
49 0 m 1,0,-1
 49 956 l 1,1,-1
 245 956 l 1,2,-1
 245 907 l 1,3,4
 329 997 329 997 449 997 c 0,5,6
 505 997 505 997 553 967 c 128,-1,7
 601 937 601 937 630 877 c 1,8,9
 690 946 690 946 748 971.5 c 128,-1,10
 806 997 806 997 873 997 c 0,11,12
 979 997 979 997 1021.5 926.5 c 128,-1,13
 1064 856 1064 856 1064 707 c 2,14,-1
 1064 0 l 1,15,-1
 851 0 l 1,16,-1
 851 688 l 2,17,18
 851 757 851 757 838.5 787 c 128,-1,19
 826 817 826 817 793.5 817 c 128,-1,20
 761 817 761 817 731.5 802.5 c 128,-1,21
 702 788 702 788 660 741 c 1,22,-1
 660 0 l 1,23,-1
 449 0 l 1,24,-1
 449 657 l 2,25,26
 449 747 449 747 431 782 c 128,-1,27
 413 817 413 817 368.5 817 c 128,-1,28
 324 817 324 817 289.5 785 c 128,-1,29
 255 753 255 753 255 694 c 2,30,-1
 255 0 l 1,31,-1
 49 0 l 1,0,-1
EndSplineSet
EndChar

StartChar: n
Encoding: 110 110 81
Width: 1126
GlyphClass: 2
Flags: W
LayerCount: 2
Fore
SplineSet
123 0 m 1,0,-1
 123 956 l 1,1,-1
 354 956 l 1,2,-1
 354 848 l 1,3,4
 502 977 502 977 714 977 c 0,5,6
 851 977 851 977 924 895.5 c 128,-1,7
 997 814 997 814 997 630 c 2,8,-1
 997 0 l 1,9,-1
 766 0 l 1,10,-1
 766 628 l 2,11,12
 766 788 766 788 629 788 c 0,13,14
 531 788 531 788 442.5 723.5 c 128,-1,15
 354 659 354 659 354 573 c 2,16,-1
 354 0 l 1,17,-1
 123 0 l 1,0,-1
EndSplineSet
EndChar

StartChar: o
Encoding: 111 111 82
Width: 1126
GlyphClass: 2
Flags: W
LayerCount: 2
Fore
SplineSet
216.5 99.5 m 128,-1,1
 91 232 91 232 91 470 c 128,-1,2
 91 708 91 708 217.5 842.5 c 128,-1,3
 344 977 344 977 566.5 977 c 128,-1,4
 789 977 789 977 911 844 c 128,-1,5
 1033 711 1033 711 1033 472.5 c 128,-1,6
 1033 234 1033 234 910.5 100.5 c 128,-1,7
 788 -33 788 -33 565 -33 c 128,-1,0
 342 -33 342 -33 216.5 99.5 c 128,-1,1
390 709.5 m 128,-1,9
 328 626 328 626 328 474.5 c 128,-1,10
 328 323 328 323 391.5 237 c 128,-1,11
 455 151 455 151 565.5 151 c 128,-1,12
 676 151 676 151 736 235 c 128,-1,13
 796 319 796 319 796 470.5 c 128,-1,14
 796 622 796 622 735 707.5 c 128,-1,15
 674 793 674 793 563 793 c 128,-1,8
 452 793 452 793 390 709.5 c 128,-1,9
EndSplineSet
EndChar

StartChar: p
Encoding: 112 112 83
Width: 1126
GlyphClass: 2
Flags: W
LayerCount: 2
Fore
SplineSet
129 -342 m 1,0,-1
 129 956 l 1,1,-1
 352 956 l 1,2,-1
 352 858 l 1,3,4
 394 917 394 917 479 947 c 128,-1,5
 564 977 564 977 641 977 c 0,6,7
 823 977 823 977 930 846 c 128,-1,8
 1037 715 1037 715 1037 453 c 0,9,10
 1037 333 1037 333 1004.5 238.5 c 128,-1,11
 972 144 972 144 916 86 c 1,12,13
 800 -31 800 -31 633 -31 c 0,14,15
 568 -31 568 -31 484.5 -4 c 128,-1,16
 401 23 401 23 362 63 c 1,17,-1
 362 -342 l 1,18,-1
 129 -342 l 1,0,-1
362 487 m 0,19,20
 362 314 362 314 428.5 234 c 128,-1,21
 495 154 495 154 598 154 c 0,22,23
 681 154 681 154 742 219 c 0,24,25
 809 292 809 292 809 456 c 0,26,27
 809 793 809 793 592 793 c 0,28,29
 484 793 484 793 423 709 c 128,-1,30
 362 625 362 625 362 487 c 0,19,20
EndSplineSet
EndChar

StartChar: q
Encoding: 113 113 84
Width: 1126
GlyphClass: 2
Flags: W
LayerCount: 2
Fore
SplineSet
89 453 m 0,0,1
 89 715 89 715 196 846 c 128,-1,2
 303 977 303 977 485 977 c 0,3,4
 562 977 562 977 647 947 c 128,-1,5
 732 917 732 917 774 858 c 1,6,-1
 774 956 l 1,7,-1
 997 956 l 1,8,-1
 997 -342 l 1,9,-1
 764 -342 l 1,10,-1
 764 63 l 1,11,12
 725 23 725 23 641.5 -4 c 128,-1,13
 558 -31 558 -31 484.5 -31 c 128,-1,14
 411 -31 411 -31 339 -1 c 128,-1,15
 267 29 267 29 210.5 86.5 c 128,-1,16
 154 144 154 144 121.5 238.5 c 128,-1,17
 89 333 89 333 89 453 c 0,0,1
528 154 m 0,18,19
 631 154 631 154 697.5 234 c 128,-1,20
 764 314 764 314 764 487 c 0,21,22
 764 625 764 625 703 709 c 128,-1,23
 642 793 642 793 532.5 793 c 128,-1,24
 423 793 423 793 370 706.5 c 128,-1,25
 317 620 317 620 317 465 c 0,26,27
 317 292 317 292 384 219 c 0,28,29
 445 154 445 154 528 154 c 0,18,19
EndSplineSet
EndChar

StartChar: r
Encoding: 114 114 85
Width: 1126
GlyphClass: 2
Flags: W
LayerCount: 2
Fore
SplineSet
193 0 m 1,0,-1
 193 956 l 1,1,-1
 425 956 l 1,2,-1
 425 852 l 1,3,4
 473 907 473 907 545.5 942 c 128,-1,5
 618 977 618 977 698 977 c 0,6,7
 860 977 860 977 971 872 c 1,8,-1
 861 647 l 1,9,10
 840 664 840 664 831 690.5 c 128,-1,11
 822 717 822 717 812 728 c 0,12,13
 784 758 784 758 753.5 770 c 128,-1,14
 723 782 723 782 676 782 c 0,15,16
 572 782 572 782 498 698.5 c 128,-1,17
 424 615 424 615 424 500 c 2,18,-1
 424 0 l 1,19,-1
 193 0 l 1,0,-1
EndSplineSet
EndChar

StartChar: s
Encoding: 115 115 86
Width: 1126
GlyphClass: 2
Flags: W
LayerCount: 2
Fore
SplineSet
300 263 m 0,0,1
 411 156 411 156 562 156 c 0,2,3
 641 156 641 156 684.5 182 c 128,-1,4
 728 208 728 208 728 253.5 c 128,-1,5
 728 299 728 299 691 326.5 c 128,-1,6
 654 354 654 354 563 387 c 128,-1,7
 472 420 472 420 429 437.5 c 128,-1,8
 386 455 386 455 341.5 477.5 c 128,-1,9
 297 500 297 500 274 520 c 128,-1,10
 251 540 251 540 231 568 c 0,11,12
 196 617 196 617 196 704 c 0,13,14
 196 840 196 840 300.5 908.5 c 128,-1,15
 405 977 405 977 572 977 c 0,16,17
 826 977 826 977 965 822 c 1,18,-1
 846 652 l 1,19,20
 829 665 829 665 821.5 687.5 c 128,-1,21
 814 710 814 710 799 724 c 0,22,23
 712 799 712 799 567 799 c 0,24,25
 500 799 500 799 454.5 780 c 128,-1,26
 409 761 409 761 409 720.5 c 128,-1,27
 409 680 409 680 446 656.5 c 128,-1,28
 483 633 483 633 594.5 591 c 128,-1,29
 706 549 706 549 754.5 527.5 c 128,-1,30
 803 506 803 506 847 479 c 128,-1,31
 891 452 891 452 913 424 c 0,32,33
 960 363 960 363 960 270 c 0,34,35
 960 140 960 140 846.5 53.5 c 128,-1,36
 733 -33 733 -33 548 -33 c 0,37,38
 291 -33 291 -33 129 122 c 1,39,-1
 248 337 l 1,40,41
 271 323 271 323 280 298 c 128,-1,42
 289 273 289 273 300 263 c 0,0,1
EndSplineSet
EndChar

StartChar: t
Encoding: 116 116 87
Width: 1126
GlyphClass: 2
Flags: W
LayerCount: 2
Fore
SplineSet
348 308 m 2,0,-1
 348 770 l 1,1,-1
 126 770 l 1,2,-1
 126 956 l 1,3,-1
 347 956 l 1,4,-1
 347 1180 l 1,5,-1
 597 1223 l 1,6,7
 597 1200 597 1200 588 1179.5 c 128,-1,8
 579 1159 579 1159 579 1141 c 2,9,-1
 579 956 l 1,10,-1
 889 956 l 1,11,-1
 889 770 l 1,12,-1
 579 770 l 1,13,-1
 579 295 l 2,14,15
 579 229 579 229 600.5 200.5 c 128,-1,16
 622 172 622 172 676.5 172 c 128,-1,17
 731 172 731 172 782.5 191.5 c 128,-1,18
 834 211 834 211 900 266 c 1,19,-1
 972 77 l 1,20,21
 819 -33 819 -33 636 -33 c 0,22,23
 479 -33 479 -33 413.5 48 c 128,-1,24
 348 129 348 129 348 308 c 2,0,-1
EndSplineSet
EndChar

StartChar: u
Encoding: 117 117 88
Width: 1126
GlyphClass: 2
Flags: W
LayerCount: 2
Fore
SplineSet
118 326 m 2,0,-1
 118 956 l 1,1,-1
 349 956 l 1,2,-1
 349 328 l 2,3,4
 349 168 349 168 486 168 c 0,5,6
 584 168 584 168 672.5 232.5 c 128,-1,7
 761 297 761 297 761 383 c 2,8,-1
 761 956 l 1,9,-1
 992 956 l 1,10,-1
 992 0 l 1,11,-1
 761 0 l 1,12,-1
 761 108 l 1,13,14
 613 -21 613 -21 401 -21 c 0,15,16
 264 -21 264 -21 191 60.5 c 128,-1,17
 118 142 118 142 118 326 c 2,0,-1
EndSplineSet
EndChar

StartChar: v
Encoding: 118 118 89
Width: 1126
GlyphClass: 2
Flags: W
LayerCount: 2
Fore
SplineSet
317 935 m 1,0,-1
 310 893 l 1,1,2
 310 877 310 877 319 856 c 2,3,-1
 461 519 l 1,4,-1
 582 212 l 1,5,6
 739 541 739 541 788 704 c 1,7,8
 813 791 813 791 823.5 841.5 c 128,-1,9
 834 892 834 892 842 956 c 1,10,-1
 1068 956 l 1,11,12
 1051 849 1051 849 1023.5 758 c 128,-1,13
 996 667 996 667 907.5 476.5 c 128,-1,14
 819 286 819 286 662 0 c 1,15,-1
 475 0 l 1,16,-1
 47 956 l 1,17,-1
 313 956 l 1,18,19
 317 945 317 945 317 935 c 1,0,-1
EndSplineSet
EndChar

StartChar: w
Encoding: 119 119 90
Width: 1126
GlyphClass: 2
Flags: W
LayerCount: 2
Fore
SplineSet
268 956 m 1,0,1
 269 951 269 951 269 940.5 c 128,-1,2
 269 930 269 930 264.5 913 c 128,-1,3
 260 896 260 896 260 886.5 c 128,-1,4
 260 877 260 877 261 873 c 2,5,-1
 331 488 l 1,6,-1
 372 241 l 1,7,-1
 429 486 l 1,8,-1
 525 816 l 1,9,-1
 659 816 l 1,10,-1
 746 489 l 1,11,-1
 810 233 l 1,12,13
 893 552 893 552 893 844 c 0,14,15
 893 882 893 882 891 956 c 1,16,-1
 1108 956 l 1,17,18
 1097 499 1097 499 923 0 c 1,19,-1
 731 0 l 1,20,-1
 637 322 l 1,21,-1
 586 562 l 1,22,-1
 534 320 l 1,23,-1
 436 0 l 1,24,-1
 247 0 l 1,25,-1
 26 956 l 1,26,-1
 268 956 l 1,0,1
EndSplineSet
EndChar

StartChar: x
Encoding: 120 120 91
Width: 1126
GlyphClass: 2
Flags: W
LayerCount: 2
Fore
SplineSet
81 0 m 1,0,-1
 414 503 l 1,1,-1
 75 956 l 1,2,-1
 333 956 l 1,3,-1
 562 651 l 1,4,-1
 754 956 l 1,5,-1
 1002 956 l 1,6,-1
 689 482 l 1,7,-1
 1051 0 l 1,8,-1
 789 0 l 1,9,-1
 544 329 l 1,10,-1
 343 0 l 1,11,-1
 81 0 l 1,0,-1
EndSplineSet
EndChar

StartChar: y
Encoding: 121 121 92
Width: 1126
GlyphClass: 2
Flags: W
LayerCount: 2
Fore
SplineSet
269 -176 m 0,0,1
 305 -176 305 -176 339 -156 c 128,-1,2
 373 -136 373 -136 398 -104 c 0,3,4
 450 -40 450 -40 472 27 c 1,5,-1
 88 956 l 1,6,-1
 363 956 l 1,7,8
 364 951 364 951 364 941.5 c 128,-1,9
 364 932 364 932 357 917 c 128,-1,10
 350 902 350 902 350 892.5 c 128,-1,11
 350 883 350 883 354 874 c 2,12,-1
 489 529 l 1,13,-1
 591 215 l 1,14,15
 692 437 692 437 766.5 653 c 128,-1,16
 841 869 841 869 841 956 c 1,17,-1
 1066 956 l 1,18,19
 1032 793 1032 793 966.5 634 c 128,-1,20
 901 475 901 475 633 -104 c 0,21,22
 570 -239 570 -239 484.5 -300.5 c 128,-1,23
 399 -362 399 -362 283 -362 c 0,24,25
 122 -362 122 -362 -7 -254 c 1,26,-1
 130 -48 l 1,27,28
 150 -64 150 -64 157 -90 c 128,-1,29
 164 -116 164 -116 171 -127 c 0,30,31
 202 -176 202 -176 269 -176 c 0,0,1
EndSplineSet
EndChar

StartChar: z
Encoding: 122 122 93
Width: 1126
GlyphClass: 2
Flags: W
LayerCount: 2
Fore
SplineSet
103 0 m 1,0,-1
 103 143 l 1,1,-1
 682 770 l 1,2,-1
 125 770 l 1,3,-1
 125 956 l 1,4,-1
 983 956 l 1,5,-1
 983 813 l 1,6,-1
 399 186 l 1,7,-1
 902 186 l 2,8,9
 931 186 931 186 961 199.5 c 128,-1,10
 991 213 991 213 1021 213 c 1,11,-1
 1021 0 l 1,12,-1
 103 0 l 1,0,-1
EndSplineSet
EndChar

StartChar: braceleft
Encoding: 123 123 94
Width: 1126
GlyphClass: 2
Flags: W
LayerCount: 2
Fore
SplineSet
524 227 m 1,0,-1
 520 42 l 1,1,2
 520 -54 520 -54 566 -99.5 c 128,-1,3
 612 -145 612 -145 709 -145 c 2,4,-1
 852 -145 l 1,5,-1
 852 -326 l 1,6,-1
 737 -326 l 2,7,8
 496 -326 496 -326 393.5 -242.5 c 128,-1,9
 291 -159 291 -159 291 48 c 1,10,-1
 297 254 l 1,11,12
 297 352 297 352 268 390 c 128,-1,13
 239 428 239 428 178 428 c 2,14,-1
 92 428 l 1,15,-1
 92 610 l 1,16,-1
 176 610 l 2,17,18
 240 610 240 610 270.5 649.5 c 128,-1,19
 301 689 301 689 301 774 c 1,20,-1
 297 945 l 1,21,22
 297 1120 297 1120 394 1212.5 c 128,-1,23
 491 1305 491 1305 688 1305 c 2,24,-1
 854 1305 l 1,25,-1
 854 1120 l 1,26,-1
 653 1120 l 2,27,28
 524 1120 524 1120 524 955 c 1,29,-1
 528 795 l 1,30,31
 528 707 528 707 489 635 c 128,-1,32
 450 563 450 563 383 520 c 1,33,34
 447 479 447 479 485.5 401.5 c 128,-1,35
 524 324 524 324 524 227 c 1,0,-1
EndSplineSet
EndChar

StartChar: bar
Encoding: 124 124 95
Width: 1126
GlyphClass: 2
Flags: W
LayerCount: 2
Fore
SplineSet
454 -309 m 1,0,-1
 454 1335 l 1,1,-1
 674 1335 l 1,2,-1
 674 -309 l 1,3,-1
 454 -309 l 1,0,-1
EndSplineSet
EndChar

StartChar: braceright
Encoding: 125 125 96
Width: 1126
GlyphClass: 2
Flags: W
LayerCount: 2
Fore
SplineSet
799 254 m 1,0,-1
 805 48 l 1,1,2
 805 -159 805 -159 702.5 -242.5 c 128,-1,3
 600 -326 600 -326 359 -326 c 2,4,-1
 244 -326 l 1,5,-1
 244 -145 l 1,6,-1
 387 -145 l 2,7,8
 484 -145 484 -145 530 -99.5 c 128,-1,9
 576 -54 576 -54 576 42 c 1,10,-1
 572 227 l 1,11,12
 572 324 572 324 610.5 401.5 c 128,-1,13
 649 479 649 479 713 520 c 1,14,15
 646 563 646 563 607 635 c 128,-1,16
 568 707 568 707 568 795 c 1,17,-1
 572 955 l 1,18,19
 572 1120 572 1120 443 1120 c 2,20,-1
 242 1120 l 1,21,-1
 242 1305 l 1,22,-1
 408 1305 l 2,23,24
 605 1305 605 1305 702 1212.5 c 128,-1,25
 799 1120 799 1120 799 945 c 1,26,-1
 795 774 l 1,27,28
 795 689 795 689 825.5 649.5 c 128,-1,29
 856 610 856 610 920 610 c 2,30,-1
 1004 610 l 1,31,-1
 1004 428 l 1,32,-1
 918 428 l 2,33,34
 857 428 857 428 828 390 c 128,-1,35
 799 352 799 352 799 254 c 1,0,-1
EndSplineSet
EndChar

StartChar: asciitilde
Encoding: 126 126 97
Width: 1126
GlyphClass: 2
Flags: W
LayerCount: 2
Fore
SplineSet
398 999 m 0,0,1
 450 999 450 999 502.5 976 c 128,-1,2
 555 953 555 953 590 926 c 0,3,4
 685 852 685 852 747 852 c 0,5,6
 784 852 784 852 817 883.5 c 128,-1,7
 850 915 850 915 906 993 c 1,8,-1
 1049 870 l 1,9,10
 913 649 913 649 762 649 c 0,11,12
 710 649 710 649 660.5 672 c 128,-1,13
 611 695 611 695 579 722 c 0,14,15
 492 795 492 795 431 795 c 0,16,17
 350 795 350 795 271 664 c 1,18,-1
 105 776 l 1,19,20
 248 999 248 999 398 999 c 0,0,1
EndSplineSet
EndChar

StartChar: Zcaron
Encoding: 142 142 98
Width: 1126
GlyphClass: 2
Flags: W
LayerCount: 2
Fore
SplineSet
563 1339 m 1,0,-1
 295 1576 l 1,1,-1
 373 1668 l 1,2,-1
 598 1513 l 1,3,-1
 839 1662 l 1,4,-1
 909 1580 l 1,5,-1
 626 1339 l 1,6,-1
 563 1339 l 1,0,-1
114 0 m 1,7,-1
 114 139 l 1,8,-1
 682 1073 l 1,9,-1
 126 1073 l 1,10,-1
 126 1276 l 1,11,-1
 974 1276 l 1,12,-1
 974 1137 l 1,13,-1
 417 201 l 1,14,-1
 933 201 l 2,15,16
 955 201 955 201 974 208 c 128,-1,17
 993 215 993 215 1001 215 c 2,18,-1
 1005 215 l 1,19,-1
 1005 0 l 1,20,-1
 114 0 l 1,7,-1
EndSplineSet
EndChar

StartChar: zcaron
Encoding: 158 158 99
Width: 1126
GlyphClass: 2
Flags: W
LayerCount: 2
Fore
SplineSet
531 1040 m 1,0,-1
 285 1349 l 1,1,-1
 390 1433 l 1,2,-1
 508 1295 l 1,3,-1
 568 1201 l 1,4,-1
 627 1284 l 1,5,-1
 747 1433 l 1,6,-1
 842 1347 l 1,7,-1
 597 1040 l 1,8,-1
 531 1040 l 1,0,-1
103 0 m 1,9,-1
 103 143 l 1,10,-1
 682 770 l 1,11,-1
 125 770 l 1,12,-1
 125 956 l 1,13,-1
 983 956 l 1,14,-1
 983 813 l 1,15,-1
 399 186 l 1,16,-1
 902 186 l 2,17,18
 931 186 931 186 961 199.5 c 128,-1,19
 991 213 991 213 1021 213 c 1,20,-1
 1021 0 l 1,21,-1
 103 0 l 1,9,-1
EndSplineSet
EndChar

StartChar: exclamdown
Encoding: 161 161 101
Width: 1126
GlyphClass: 2
Flags: W
LayerCount: 2
Fore
SplineSet
634.5 1122.5 m 128,-1,1
 588 1078 588 1078 522 1078 c 128,-1,2
 456 1078 456 1078 409 1123.5 c 128,-1,3
 362 1169 362 1169 362 1228 c 128,-1,4
 362 1287 362 1287 410.5 1330.5 c 128,-1,5
 459 1374 459 1374 524 1374 c 128,-1,6
 589 1374 589 1374 635 1331 c 128,-1,7
 681 1288 681 1288 681 1227.5 c 128,-1,0
 681 1167 681 1167 634.5 1122.5 c 128,-1,1
368 -20 m 1,8,-1
 430 948 l 1,9,-1
 604 948 l 1,10,-1
 666 -20 l 1,11,-1
 368 -20 l 1,8,-1
EndSplineSet
EndChar

StartChar: cent
Encoding: 162 162 102
Width: 1126
GlyphClass: 2
Flags: W
LayerCount: 2
Fore
SplineSet
133 570 m 0,0,1
 133 778 133 778 251 919.5 c 128,-1,2
 369 1061 369 1061 570 1076 c 1,3,-1
 595 1278 l 1,4,-1
 775 1262 l 1,5,6
 775 1253 775 1253 766.5 1233 c 128,-1,7
 758 1213 758 1213 756 1204 c 2,8,-1
 738 1064 l 1,9,10
 908 1024 908 1024 995 894 c 1,11,-1
 846 721 l 1,12,13
 834 732 834 732 830.5 752 c 128,-1,14
 827 772 827 772 820 782 c 0,15,16
 774 844 774 844 712 872 c 1,17,-1
 631 253 l 1,18,19
 750 263 750 263 854 392 c 1,20,-1
 987 238 l 1,21,22
 838 70 838 70 607 68 c 1,23,-1
 576 -164 l 1,24,-1
 417 -147 l 1,25,-1
 447 93 l 1,26,27
 302 141 302 141 217.5 269 c 128,-1,28
 133 397 133 397 133 570 c 0,0,1
360 582 m 0,29,30
 360 382 360 382 472 297 c 1,31,-1
 546 884 l 1,32,33
 457 862 457 862 408.5 782.5 c 128,-1,34
 360 703 360 703 360 582 c 0,29,30
EndSplineSet
EndChar

StartChar: sterling
Encoding: 163 163 103
Width: 1126
GlyphClass: 2
Flags: W
LayerCount: 2
Fore
SplineSet
281 428 m 0,0,1
 281 494 281 494 261 631 c 1,2,-1
 131 631 l 1,3,-1
 131 817 l 1,4,-1
 234 817 l 1,5,6
 231 848 231 848 231 880 c 0,7,8
 231 1076 231 1076 330 1186.5 c 128,-1,9
 429 1297 429 1297 621 1297 c 0,10,11
 721 1297 721 1297 790.5 1261 c 128,-1,12
 860 1225 860 1225 930 1151 c 1,13,-1
 781 968 l 1,14,15
 752 978 752 978 752 1013 c 128,-1,16
 752 1048 752 1048 720 1080 c 128,-1,17
 688 1112 688 1112 612 1112 c 0,18,19
 437 1112 437 1112 437 869 c 0,20,21
 437 853 437 853 439 817 c 1,22,-1
 699 817 l 1,23,-1
 699 631 l 1,24,-1
 463 631 l 1,25,26
 486 472 486 472 486 409 c 0,27,28
 486 298 486 298 432 236 c 1,29,30
 465 241 465 241 487 241 c 0,31,32
 548 241 548 241 621.5 206 c 128,-1,33
 695 171 695 171 738.5 171 c 128,-1,34
 782 171 782 171 813.5 187.5 c 128,-1,35
 845 204 845 204 902 253 c 1,36,-1
 983 80 l 1,37,38
 915 23 915 23 857 -3 c 128,-1,39
 799 -29 799 -29 735 -29 c 128,-1,40
 671 -29 671 -29 554.5 8.5 c 128,-1,41
 438 46 438 46 389 46 c 0,42,43
 293 46 293 46 139 -35 c 1,44,-1
 57 147 l 1,45,46
 185 200 185 200 233 261 c 128,-1,47
 281 322 281 322 281 428 c 0,0,1
EndSplineSet
EndChar

StartChar: currency
Encoding: 164 164 104
Width: 1126
GlyphClass: 2
Flags: W
LayerCount: 2
Fore
SplineSet
232 711 m 128,-1,1
 232 797 232 797 278 874 c 1,2,-1
 165 987 l 1,3,-1
 299 1108 l 1,4,-1
 409 997 l 1,5,6
 489 1038 489 1038 572.5 1038 c 128,-1,7
 656 1038 656 1038 733 999 c 1,8,-1
 843 1108 l 1,9,-1
 977 987 l 1,10,-1
 864 877 l 1,11,12
 911 804 911 804 911 710.5 c 128,-1,13
 911 617 911 617 864 541 c 1,14,-1
 977 430 l 1,15,-1
 843 309 l 1,16,-1
 735 418 l 1,17,18
 665 378 665 378 572 378 c 128,-1,19
 479 378 479 378 407 420 c 1,20,-1
 299 309 l 1,21,-1
 165 430 l 1,22,-1
 278 545 l 1,23,0
 232 625 232 625 232 711 c 128,-1,1
571 541 m 128,-1,25
 635 541 635 541 679 589 c 128,-1,26
 723 637 723 637 723 706.5 c 128,-1,27
 723 776 723 776 679 825 c 128,-1,28
 635 874 635 874 571 874 c 128,-1,29
 507 874 507 874 463 825 c 128,-1,30
 419 776 419 776 419 706.5 c 128,-1,31
 419 637 419 637 463 589 c 128,-1,24
 507 541 507 541 571 541 c 128,-1,25
EndSplineSet
EndChar

StartChar: yen
Encoding: 165 165 105
Width: 1126
GlyphClass: 2
Flags: W
LayerCount: 2
Fore
SplineSet
190 161 m 1,0,-1
 190 338 l 1,1,-1
 457 338 l 1,2,-1
 457 441 l 1,3,-1
 190 441 l 1,4,-1
 190 618 l 1,5,-1
 394 618 l 1,6,-1
 48 1276 l 1,7,-1
 304 1276 l 1,8,-1
 467 942 l 1,9,-1
 577 711 l 1,10,-1
 675 943 l 1,11,-1
 820 1276 l 1,12,-1
 1074 1276 l 1,13,-1
 752 618 l 1,14,-1
 958 618 l 1,15,-1
 958 441 l 1,16,-1
 693 441 l 1,17,-1
 693 338 l 1,18,-1
 958 338 l 1,19,-1
 958 161 l 1,20,-1
 693 161 l 1,21,-1
 693 0 l 1,22,-1
 457 0 l 1,23,-1
 457 161 l 1,24,-1
 190 161 l 1,0,-1
EndSplineSet
EndChar

StartChar: brokenbar
Encoding: 166 166 106
Width: 1126
GlyphClass: 2
Flags: W
LayerCount: 2
Fore
SplineSet
454 606 m 1,0,-1
 454 1335 l 1,1,-1
 674 1335 l 1,2,-1
 674 606 l 1,3,-1
 454 606 l 1,0,-1
454 -309 m 1,4,-1
 454 396 l 1,5,-1
 674 396 l 1,6,-1
 674 -309 l 1,7,-1
 454 -309 l 1,4,-1
EndSplineSet
EndChar

StartChar: section
Encoding: 167 167 107
Width: 1126
GlyphClass: 2
Flags: W
LayerCount: 2
Fore
SplineSet
715 1072 m 2,0,-1
 716 1094 l 1,1,2
 716 1141 716 1141 676.5 1170.5 c 128,-1,3
 637 1200 637 1200 575 1200 c 0,4,5
 451 1200 451 1200 451 1098 c 0,6,7
 451 1069 451 1069 459 1055 c 128,-1,8
 467 1041 467 1041 472.5 1033 c 128,-1,9
 478 1025 478 1025 492 1014.5 c 128,-1,10
 506 1004 506 1004 515.5 997 c 128,-1,11
 525 990 525 990 547 977.5 c 128,-1,12
 569 965 569 965 584 957 c 128,-1,13
 599 949 599 949 630 933 c 0,14,15
 818 838 818 838 871 780 c 128,-1,16
 924 722 924 722 924 628 c 0,17,18
 924 559 924 559 900 515.5 c 128,-1,19
 876 472 876 472 813 418 c 1,20,21
 906 343 906 343 906 220 c 0,22,23
 906 75 906 75 802.5 -21 c 128,-1,24
 699 -117 699 -117 538 -117 c 0,25,26
 306 -117 306 -117 159 86 c 1,27,-1
 322 282 l 1,28,29
 337 263 337 263 338 239 c 128,-1,30
 339 215 339 215 341 205 c 0,31,32
 352 153 352 153 407.5 118.5 c 128,-1,33
 463 84 463 84 533 84 c 128,-1,34
 603 84 603 84 641 114.5 c 128,-1,35
 679 145 679 145 679 202 c 128,-1,36
 679 259 679 259 644.5 284.5 c 128,-1,37
 610 310 610 310 515.5 348 c 128,-1,38
 421 386 421 386 384 402.5 c 128,-1,39
 347 419 347 419 305 444.5 c 128,-1,40
 263 470 263 470 244 496 c 0,41,42
 201 555 201 555 201 636 c 128,-1,43
 201 717 201 717 229 771 c 128,-1,44
 257 825 257 825 332 876 c 1,45,46
 274 920 274 920 247 968.5 c 128,-1,47
 220 1017 220 1017 220 1085 c 0,48,49
 220 1221 220 1221 315.5 1303.5 c 128,-1,50
 411 1386 411 1386 568 1386 c 0,51,52
 792 1386 792 1386 905 1192 c 1,53,-1
 727 1039 l 1,54,55
 715 1057 715 1057 715 1072 c 2,0,-1
696 487 m 1,56,57
 731 529 731 529 731 577.5 c 128,-1,58
 731 626 731 626 702 650 c 128,-1,59
 673 674 673 674 533 754 c 2,60,-1
 457 797 l 1,61,62
 427 769 427 769 413 744.5 c 128,-1,63
 399 720 399 720 399 686 c 0,64,65
 399 636 399 636 435.5 608 c 128,-1,66
 472 580 472 580 557.5 545.5 c 128,-1,67
 643 511 643 511 696 487 c 1,56,57
EndSplineSet
EndChar

StartChar: dieresis
Encoding: 168 168 108
Width: 1126
GlyphClass: 2
Flags: W
LayerCount: 2
Fore
SplineSet
763 1122 m 128,-1,1
 705 1122 705 1122 663.5 1160.5 c 128,-1,2
 622 1199 622 1199 622 1253.5 c 128,-1,3
 622 1308 622 1308 663.5 1347 c 128,-1,4
 705 1386 705 1386 761.5 1386 c 128,-1,5
 818 1386 818 1386 861.5 1348.5 c 128,-1,6
 905 1311 905 1311 905 1255.5 c 128,-1,7
 905 1200 905 1200 863 1161 c 128,-1,0
 821 1122 821 1122 763 1122 c 128,-1,1
387 1122 m 128,-1,9
 329 1122 329 1122 287 1161 c 128,-1,10
 245 1200 245 1200 245 1253.5 c 128,-1,11
 245 1307 245 1307 287 1346.5 c 128,-1,12
 329 1386 329 1386 386 1386 c 128,-1,13
 443 1386 443 1386 486.5 1348.5 c 128,-1,14
 530 1311 530 1311 530 1255.5 c 128,-1,15
 530 1200 530 1200 487.5 1161 c 128,-1,8
 445 1122 445 1122 387 1122 c 128,-1,9
EndSplineSet
EndChar

StartChar: copyright
Encoding: 169 169 109
Width: 1126
GlyphClass: 2
Flags: W
LayerCount: 2
Fore
SplineSet
216.5 177 m 128,-1,1
 80 317 80 317 80 561 c 128,-1,2
 80 805 80 805 215 943 c 128,-1,3
 350 1081 350 1081 580 1081 c 128,-1,4
 810 1081 810 1081 949 941 c 128,-1,5
 1088 801 1088 801 1088 559 c 128,-1,6
 1088 317 1088 317 947 177 c 128,-1,7
 806 37 806 37 579.5 37 c 128,-1,0
 353 37 353 37 216.5 177 c 128,-1,1
315.5 858.5 m 128,-1,9
 216 750 216 750 216 560 c 128,-1,10
 216 370 216 370 315.5 263 c 128,-1,11
 415 156 415 156 586 156 c 128,-1,12
 757 156 757 156 857 263.5 c 128,-1,13
 957 371 957 371 957 561 c 128,-1,14
 957 751 957 751 857 859 c 128,-1,15
 757 967 757 967 586 967 c 128,-1,8
 415 967 415 967 315.5 858.5 c 128,-1,9
704 631 m 2,16,-1
 705 651 l 1,17,18
 705 677 705 677 679 706 c 128,-1,19
 653 735 653 735 593.5 735 c 128,-1,20
 534 735 534 735 494 693 c 128,-1,21
 454 651 454 651 454 565.5 c 128,-1,22
 454 480 454 480 495 433.5 c 128,-1,23
 536 387 536 387 606 387 c 0,24,25
 687 387 687 387 730 474 c 1,26,-1
 852 390 l 1,27,28
 818 320 818 320 751 280 c 128,-1,29
 684 240 684 240 598 240 c 0,30,31
 469 240 469 240 388 327.5 c 128,-1,32
 307 415 307 415 307 562.5 c 128,-1,33
 307 710 307 710 384.5 794.5 c 128,-1,34
 462 879 462 879 584 879 c 0,35,36
 801 879 801 879 867 676 c 1,37,-1
 707 615 l 1,38,39
 704 624 704 624 704 631 c 2,16,-1
EndSplineSet
EndChar

StartChar: ordfeminine
Encoding: 170 170 110
Width: 1126
GlyphClass: 2
Flags: W
LayerCount: 2
Fore
SplineSet
453 514 m 0,0,1
 346 514 346 514 273.5 574.5 c 128,-1,2
 201 635 201 635 201 732 c 0,3,4
 201 799 201 799 239.5 849 c 128,-1,5
 278 899 278 899 346 927 c 0,6,7
 476 981 476 981 667 981 c 1,8,9
 667 1115 667 1115 541 1115 c 0,10,11
 423 1115 423 1115 322 1029 c 1,12,-1
 213 1143 l 1,13,14
 311 1219 311 1219 388 1247.5 c 128,-1,15
 465 1276 465 1276 568 1276 c 0,16,17
 719 1276 719 1276 801 1205.5 c 128,-1,18
 883 1135 883 1135 883 1001 c 2,19,-1
 883 535 l 1,20,-1
 669 535 l 1,21,-1
 669 616 l 1,22,23
 635 571 635 571 578.5 542.5 c 128,-1,24
 522 514 522 514 453 514 c 0,0,1
438 690.5 m 128,-1,26
 467 671 467 671 529 671 c 128,-1,27
 591 671 591 671 632 715 c 128,-1,28
 673 759 673 759 673 852 c 1,29,30
 527 852 527 852 468 830.5 c 128,-1,31
 409 809 409 809 409 759.5 c 128,-1,25
 409 710 409 710 438 690.5 c 128,-1,26
158 293 m 1,32,-1
 158 453 l 1,33,-1
 952 453 l 1,34,-1
 952 293 l 1,35,-1
 158 293 l 1,32,-1
EndSplineSet
EndChar

StartChar: guillemotleft
Encoding: 171 171 111
Width: 1126
GlyphClass: 2
Flags: W
LayerCount: 2
Fore
SplineSet
513 465 m 1,0,-1
 513 532 l 1,1,-1
 847 856 l 1,2,-1
 980 719 l 1,3,-1
 746 496 l 1,4,-1
 990 231 l 1,5,-1
 855 96 l 1,6,-1
 513 465 l 1,0,-1
463 96 m 1,7,-1
 121 465 l 1,8,-1
 121 532 l 1,9,-1
 457 856 l 1,10,-1
 588 719 l 1,11,-1
 356 496 l 1,12,-1
 600 231 l 1,13,-1
 463 96 l 1,7,-1
EndSplineSet
EndChar

StartChar: logicalnot
Encoding: 172 172 112
Width: 1126
GlyphClass: 2
Flags: W
LayerCount: 2
Fore
SplineSet
147 563 m 1,0,-1
 147 750 l 1,1,-1
 1018 750 l 1,2,-1
 1018 315 l 1,3,-1
 803 315 l 1,4,-1
 803 563 l 1,5,-1
 147 563 l 1,0,-1
EndSplineSet
EndChar

StartChar: uni00AD
Encoding: 173 173 113
Width: 1126
GlyphClass: 2
Flags: W
LayerCount: 2
Fore
SplineSet
179 563 m 1,0,-1
 179 750 l 1,1,-1
 947 750 l 1,2,-1
 947 563 l 1,3,-1
 179 563 l 1,0,-1
EndSplineSet
EndChar

StartChar: registered
Encoding: 174 174 114
Width: 1126
GlyphClass: 2
Flags: W
LayerCount: 2
Fore
SplineSet
216.5 177 m 128,-1,1
 80 317 80 317 80 561 c 128,-1,2
 80 805 80 805 215 943 c 128,-1,3
 350 1081 350 1081 580 1081 c 128,-1,4
 810 1081 810 1081 949 941 c 128,-1,5
 1088 801 1088 801 1088 559 c 128,-1,6
 1088 317 1088 317 947 177 c 128,-1,7
 806 37 806 37 579.5 37 c 128,-1,0
 353 37 353 37 216.5 177 c 128,-1,1
315.5 858.5 m 128,-1,9
 216 750 216 750 216 560 c 128,-1,10
 216 370 216 370 315.5 263 c 128,-1,11
 415 156 415 156 586 156 c 128,-1,12
 757 156 757 156 857 263.5 c 128,-1,13
 957 371 957 371 957 561 c 128,-1,14
 957 751 957 751 857 859 c 128,-1,15
 757 967 757 967 586 967 c 128,-1,8
 415 967 415 967 315.5 858.5 c 128,-1,9
375 281 m 1,16,-1
 375 856 l 1,17,-1
 577 856 l 2,18,19
 823 856 823 856 823 682 c 0,20,21
 823 566 823 566 718 522 c 1,22,-1
 837 281 l 1,23,-1
 681 281 l 1,24,-1
 593 504 l 1,25,-1
 517 504 l 1,26,-1
 517 281 l 1,27,-1
 375 281 l 1,16,-1
517 618 m 1,28,-1
 603 618 l 2,29,30
 637 618 637 618 656 634 c 128,-1,31
 675 650 675 650 675 676.5 c 128,-1,32
 675 703 675 703 654.5 717 c 128,-1,33
 634 731 634 731 597 731 c 2,34,-1
 517 731 l 1,35,-1
 517 618 l 1,28,-1
EndSplineSet
EndChar

StartChar: macron
Encoding: 175 175 115
Width: 1126
GlyphClass: 2
Flags: W
LayerCount: 2
Fore
SplineSet
291 1133 m 1,0,-1
 291 1293 l 1,1,-1
 845 1293 l 1,2,-1
 845 1133 l 1,3,-1
 291 1133 l 1,0,-1
EndSplineSet
EndChar

StartChar: degree
Encoding: 176 176 116
Width: 1126
GlyphClass: 2
Flags: W
LayerCount: 2
Fore
SplineSet
523 782 m 128,-1,1
 381 782 381 782 301.5 859 c 128,-1,2
 222 936 222 936 222 1073 c 128,-1,3
 222 1210 222 1210 301.5 1287 c 128,-1,4
 381 1364 381 1364 523 1364 c 128,-1,5
 665 1364 665 1364 744.5 1287 c 128,-1,6
 824 1210 824 1210 824 1073 c 128,-1,7
 824 936 824 936 744.5 859 c 128,-1,0
 665 782 665 782 523 782 c 128,-1,1
445 981.5 m 128,-1,9
 473 948 473 948 524 948 c 128,-1,10
 575 948 575 948 603.5 981.5 c 128,-1,11
 632 1015 632 1015 632 1075.5 c 128,-1,12
 632 1136 632 1136 603.5 1170 c 128,-1,13
 575 1204 575 1204 524 1204 c 128,-1,14
 473 1204 473 1204 445 1170 c 128,-1,15
 417 1136 417 1136 417 1075.5 c 128,-1,8
 417 1015 417 1015 445 981.5 c 128,-1,9
EndSplineSet
EndChar

StartChar: plusminus
Encoding: 177 177 117
Width: 1126
GlyphClass: 2
Flags: W
LayerCount: 2
Fore
SplineSet
469 361 m 1,0,-1
 469 681 l 1,1,-1
 149 681 l 1,2,-1
 149 868 l 1,3,-1
 469 868 l 1,4,-1
 469 1188 l 1,5,-1
 657 1188 l 1,6,-1
 657 868 l 1,7,-1
 977 868 l 1,8,-1
 977 681 l 1,9,-1
 657 681 l 1,10,-1
 657 361 l 1,11,-1
 469 361 l 1,0,-1
149 8 m 1,12,-1
 149 195 l 1,13,-1
 977 195 l 1,14,-1
 977 8 l 1,15,-1
 149 8 l 1,12,-1
EndSplineSet
EndChar

StartChar: twosuperior
Encoding: 178 178 118
Width: 1126
GlyphClass: 2
Flags: W
LayerCount: 2
Fore
SplineSet
263 502 m 1,0,-1
 263 621 l 1,1,2
 474 820 474 820 526 876 c 1,3,4
 625 993 625 993 630 1061 c 1,5,6
 630 1106 630 1106 604 1130.5 c 128,-1,7
 578 1155 578 1155 531 1155 c 128,-1,8
 484 1155 484 1155 450 1133 c 0,9,10
 398 1099 398 1099 396 1054 c 0,11,12
 396 1037 396 1037 386 1023 c 1,13,-1
 241 1118 l 1,14,15
 298 1210 298 1210 367.5 1257 c 128,-1,16
 437 1304 437 1304 548 1304 c 128,-1,17
 659 1304 659 1304 732 1245.5 c 128,-1,18
 805 1187 805 1187 805 1081 c 0,19,20
 805 976 805 976 723 876 c 0,21,22
 681 824 681 824 639 783 c 0,23,24
 548 694 548 694 513 665 c 1,25,-1
 760 665 l 2,26,27
 780 665 780 665 802.5 673 c 128,-1,28
 825 681 825 681 834 681 c 2,29,-1
 838 681 l 1,30,-1
 838 502 l 1,31,-1
 263 502 l 1,0,-1
EndSplineSet
EndChar

StartChar: threesuperior
Encoding: 179 179 119
Width: 1126
GlyphClass: 2
Flags: W
LayerCount: 2
Fore
SplineSet
527 651 m 0,0,1
 581 651 581 651 610.5 678 c 128,-1,2
 640 705 640 705 640 755 c 128,-1,3
 640 805 640 805 615 828.5 c 128,-1,4
 590 852 590 852 530 852 c 2,5,-1
 443 852 l 1,6,-1
 443 991 l 1,7,-1
 526 991 l 2,8,9
 572 991 572 991 597.5 1013 c 128,-1,10
 623 1035 623 1035 623 1074 c 0,11,12
 623 1155 623 1155 528 1155 c 0,13,14
 445 1155 445 1155 361 1088 c 1,15,-1
 285 1207 l 1,16,17
 412 1312 412 1312 544 1312 c 0,18,19
 649 1312 649 1312 719 1255.5 c 128,-1,20
 789 1199 789 1199 789 1115 c 0,21,22
 789 991 789 991 685 929 c 1,23,24
 752 894 752 894 781.5 849 c 128,-1,25
 811 804 811 804 811 737 c 0,26,27
 811 635 811 635 729 564.5 c 128,-1,28
 647 494 647 494 526 494 c 0,29,30
 441 494 441 494 374 525.5 c 128,-1,31
 307 557 307 557 236 631 c 1,32,-1
 345 784 l 1,33,34
 366 767 366 767 370 745.5 c 128,-1,35
 374 724 374 724 386 712 c 0,36,37
 444 651 444 651 527 651 c 0,0,1
EndSplineSet
EndChar

StartChar: acute
Encoding: 180 180 120
Width: 1126
GlyphClass: 2
Flags: W
LayerCount: 2
Fore
SplineSet
469 1019 m 1,0,-1
 353 1076 l 1,1,-1
 511 1446 l 1,2,-1
 681 1350 l 1,3,-1
 469 1019 l 1,0,-1
EndSplineSet
EndChar

StartChar: uni00B5
Encoding: 181 181 121
Width: 1126
GlyphClass: 2
Flags: W
LayerCount: 2
Fore
SplineSet
321 -315 m 1,0,-1
 110 -315 l 1,1,-1
 147 418 l 1,2,-1
 147 956 l 1,3,-1
 366 956 l 1,4,-1
 366 347 l 2,5,6
 366 249 366 249 405 202.5 c 128,-1,7
 444 156 444 156 506.5 156 c 128,-1,8
 569 156 569 156 607 204 c 128,-1,9
 645 252 645 252 645 343 c 2,10,-1
 645 956 l 1,11,-1
 860 956 l 1,12,-1
 860 256 l 2,13,14
 860 205 860 205 867.5 184.5 c 128,-1,15
 875 164 875 164 893.5 164 c 128,-1,16
 912 164 912 164 934.5 189.5 c 128,-1,17
 957 215 957 215 999 295 c 1,18,-1
 1094 121 l 1,19,20
 996 -18 996 -18 873 -18 c 0,21,22
 817 -18 817 -18 778.5 11.5 c 128,-1,23
 740 41 740 41 715 117 c 1,24,25
 635 -18 635 -18 490 -18 c 0,26,27
 394 -18 394 -18 321 29 c 1,28,-1
 321 -315 l 1,0,-1
EndSplineSet
EndChar

StartChar: paragraph
Encoding: 182 182 122
Width: 1126
GlyphClass: 2
Flags: W
LayerCount: 2
Fore
SplineSet
442 -141 m 1,0,-1
 442 649 l 1,1,2
 104 693 104 693 104 1018 c 0,3,4
 104 1219 104 1219 266 1302 c 0,5,6
 389 1364 389 1364 616 1364 c 2,7,-1
 932 1364 l 1,8,-1
 932 -141 l 1,9,-1
 727 -141 l 1,10,-1
 727 1182 l 1,11,-1
 647 1182 l 1,12,-1
 647 -141 l 1,13,-1
 442 -141 l 1,0,-1
EndSplineSet
EndChar

StartChar: periodcentered
Encoding: 183 183 123
Width: 1126
GlyphClass: 2
Flags: W
LayerCount: 2
Fore
SplineSet
642.5 536.5 m 128,-1,1
 603 501 603 501 543.5 501 c 128,-1,2
 484 501 484 501 445 536.5 c 128,-1,3
 406 572 406 572 406 627 c 128,-1,4
 406 682 406 682 445 718 c 128,-1,5
 484 754 484 754 543.5 754 c 128,-1,6
 603 754 603 754 642.5 718 c 128,-1,7
 682 682 682 682 682 627 c 128,-1,0
 682 572 682 572 642.5 536.5 c 128,-1,1
EndSplineSet
EndChar

StartChar: cedilla
Encoding: 184 184 124
Width: 1126
GlyphClass: 2
Flags: W
LayerCount: 2
Fore
SplineSet
571 -263 m 0,0,1
 639 -263 639 -263 639 -216 c 0,2,3
 639 -192 639 -192 624.5 -182 c 128,-1,4
 610 -172 610 -172 575 -172 c 2,5,-1
 475 -172 l 1,6,-1
 500 0 l 1,7,-1
 664 0 l 1,8,-1
 655 -63 l 1,9,10
 730 -70 730 -70 772.5 -109 c 128,-1,11
 815 -148 815 -148 815 -206 c 0,12,13
 815 -281 815 -281 746.5 -340 c 128,-1,14
 678 -399 678 -399 556 -399 c 0,15,16
 412 -399 412 -399 294 -309 c 1,17,-1
 361 -185 l 1,18,19
 458 -263 458 -263 571 -263 c 0,0,1
EndSplineSet
EndChar

StartChar: onesuperior
Encoding: 185 185 125
Width: 1126
GlyphClass: 2
Flags: W
LayerCount: 2
Fore
SplineSet
540 497 m 1,0,-1
 540 1087 l 1,1,-1
 356 1034 l 1,2,-1
 317 1144 l 1,3,-1
 606 1297 l 1,4,-1
 739 1297 l 1,5,-1
 739 497 l 1,6,-1
 540 497 l 1,0,-1
EndSplineSet
EndChar

StartChar: ordmasculine
Encoding: 186 186 126
Width: 1126
GlyphClass: 2
Flags: W
LayerCount: 2
Fore
SplineSet
813.5 613.5 m 128,-1,1
 714 511 714 511 538 511 c 128,-1,2
 362 511 362 511 264.5 609 c 128,-1,3
 167 707 167 707 167 888 c 128,-1,4
 167 1069 167 1069 267 1173 c 128,-1,5
 367 1277 367 1277 542.5 1277 c 128,-1,6
 718 1277 718 1277 815.5 1176.5 c 128,-1,7
 913 1076 913 1076 913 896 c 128,-1,0
 913 716 913 716 813.5 613.5 c 128,-1,1
436 748.5 m 128,-1,9
 473 697 473 697 539.5 697 c 128,-1,10
 606 697 606 697 643.5 748 c 128,-1,11
 681 799 681 799 681 892.5 c 128,-1,12
 681 986 681 986 644 1040 c 128,-1,13
 607 1094 607 1094 540.5 1094 c 128,-1,14
 474 1094 474 1094 436.5 1040.5 c 128,-1,15
 399 987 399 987 399 893.5 c 128,-1,8
 399 800 399 800 436 748.5 c 128,-1,9
158 293 m 1,16,-1
 158 453 l 1,17,-1
 952 453 l 1,18,-1
 952 293 l 1,19,-1
 158 293 l 1,16,-1
EndSplineSet
EndChar

StartChar: guillemotright
Encoding: 187 187 127
Width: 1126
GlyphClass: 2
Flags: W
LayerCount: 2
Fore
SplineSet
541 231 m 1,0,-1
 785 496 l 1,1,-1
 553 719 l 1,2,-1
 684 856 l 1,3,-1
 1020 532 l 1,4,-1
 1020 465 l 1,5,-1
 678 96 l 1,6,-1
 541 231 l 1,0,-1
151 231 m 1,7,-1
 395 496 l 1,8,-1
 161 719 l 1,9,-1
 294 856 l 1,10,-1
 628 532 l 1,11,-1
 628 465 l 1,12,-1
 286 96 l 1,13,-1
 151 231 l 1,7,-1
EndSplineSet
EndChar

StartChar: onequarter
Encoding: 188 188 128
Width: 1126
GlyphClass: 2
Flags: W
LayerCount: 2
Fore
SplineSet
200 667 m 1,0,-1
 200 1179 l 1,1,-1
 60 1143 l 1,2,-1
 18 1250 l 1,3,-1
 260 1377 l 1,4,-1
 375 1377 l 1,5,-1
 375 667 l 1,6,-1
 200 667 l 1,0,-1
125 0 m 1,7,-1
 772 1376 l 1,8,-1
 949 1376 l 1,9,-1
 296 0 l 1,10,-1
 125 0 l 1,7,-1
509 129 m 1,11,-1
 509 224 l 1,12,-1
 850 710 l 1,13,-1
 1023 710 l 1,14,-1
 1023 255 l 1,15,-1
 1096 255 l 1,16,-1
 1096 129 l 1,17,-1
 1023 129 l 1,18,-1
 1023 0 l 1,19,-1
 858 0 l 1,20,-1
 858 129 l 1,21,-1
 509 129 l 1,11,-1
858 255 m 1,22,-1
 858 400 l 1,23,-1
 869 520 l 1,24,-1
 692 255 l 1,25,-1
 858 255 l 1,22,-1
EndSplineSet
EndChar

StartChar: onehalf
Encoding: 189 189 129
Width: 1126
GlyphClass: 2
Flags: W
LayerCount: 2
Fore
SplineSet
200 667 m 1,0,-1
 200 1179 l 1,1,-1
 60 1143 l 1,2,-1
 18 1250 l 1,3,-1
 260 1377 l 1,4,-1
 375 1377 l 1,5,-1
 375 667 l 1,6,-1
 200 667 l 1,0,-1
125 0 m 1,7,-1
 772 1376 l 1,8,-1
 949 1376 l 1,9,-1
 296 0 l 1,10,-1
 125 0 l 1,7,-1
613 0 m 1,11,-1
 613 105 l 1,12,13
 804 288 804 288 844 331 c 1,14,15
 935 435 935 435 938 496 c 1,16,17
 938 536 938 536 915.5 557.5 c 128,-1,18
 893 579 893 579 849.5 579 c 128,-1,19
 806 579 806 579 771 555 c 128,-1,20
 736 531 736 531 736 500 c 2,21,-1
 736 493 l 2,22,23
 736 482 736 482 728 471 c 1,24,-1
 598 554 l 1,25,26
 645 631 645 631 706 671.5 c 128,-1,27
 767 712 767 712 866 712 c 128,-1,28
 965 712 965 712 1030 660.5 c 128,-1,29
 1095 609 1095 609 1095 516 c 0,30,31
 1095 442 1095 442 1048 366 c 0,32,33
 1030 335 1030 335 991 291.5 c 128,-1,34
 952 248 952 248 925 222 c 128,-1,35
 898 196 898 196 843 144 c 1,36,-1
 1026 144 l 2,37,38
 1048 144 1048 144 1067 151 c 128,-1,39
 1086 158 1086 158 1094 158 c 2,40,-1
 1098 158 l 1,41,-1
 1098 0 l 1,42,-1
 613 0 l 1,11,-1
EndSplineSet
EndChar

StartChar: threequarters
Encoding: 190 190 130
Width: 1126
GlyphClass: 2
Flags: W
LayerCount: 2
Fore
SplineSet
236 670 m 0,0,1
 160 670 160 670 99 702 c 128,-1,2
 38 734 38 734 -20 807 c 1,3,-1
 89 927 l 1,4,5
 105 911 105 911 110 891 c 128,-1,6
 115 871 115 871 121 864 c 0,7,8
 165 810 165 810 237 810 c 0,9,10
 287 810 287 810 314 834 c 128,-1,11
 341 858 341 858 341 902 c 0,12,13
 341 988 341 988 240 988 c 2,14,-1
 162 988 l 1,15,-1
 162 1109 l 1,16,-1
 236 1109 l 2,17,18
 276 1109 276 1109 298.5 1130 c 128,-1,19
 321 1151 321 1151 321 1185 c 128,-1,20
 321 1219 321 1219 297.5 1237.5 c 128,-1,21
 274 1256 274 1256 238 1256 c 0,22,23
 167 1256 167 1256 102 1205 c 1,24,-1
 32 1310 l 1,25,26
 91 1359 91 1359 140 1377.5 c 128,-1,27
 189 1396 189 1396 254 1396 c 0,28,29
 346 1396 346 1396 409 1345.5 c 128,-1,30
 472 1295 472 1295 472 1221 c 0,31,32
 472 1162 472 1162 453 1126.5 c 128,-1,33
 434 1091 434 1091 387 1063 c 1,34,35
 441 1030 441 1030 465.5 990.5 c 128,-1,36
 490 951 490 951 490 888 c 0,37,38
 490 794 490 794 417 732 c 128,-1,39
 344 670 344 670 236 670 c 0,0,1
165 0 m 1,40,-1
 812 1376 l 1,41,-1
 989 1376 l 1,42,-1
 336 0 l 1,43,-1
 165 0 l 1,40,-1
509 129 m 1,44,-1
 509 224 l 1,45,-1
 850 710 l 1,46,-1
 1023 710 l 1,47,-1
 1023 255 l 1,48,-1
 1096 255 l 1,49,-1
 1096 129 l 1,50,-1
 1023 129 l 1,51,-1
 1023 0 l 1,52,-1
 858 0 l 1,53,-1
 858 129 l 1,54,-1
 509 129 l 1,44,-1
858 255 m 1,55,-1
 858 400 l 1,56,-1
 869 520 l 1,57,-1
 692 255 l 1,58,-1
 858 255 l 1,55,-1
EndSplineSet
EndChar

StartChar: questiondown
Encoding: 191 191 131
Width: 1126
GlyphClass: 2
Flags: W
LayerCount: 2
Fore
SplineSet
553 1087 m 128,-1,1
 485 1087 485 1087 439.5 1128.5 c 128,-1,2
 394 1170 394 1170 394 1233 c 128,-1,3
 394 1296 394 1296 439.5 1337 c 128,-1,4
 485 1378 485 1378 553 1378 c 128,-1,5
 621 1378 621 1378 666 1337 c 128,-1,6
 711 1296 711 1296 711 1233 c 128,-1,7
 711 1170 711 1170 666 1128.5 c 128,-1,0
 621 1087 621 1087 553 1087 c 128,-1,1
165 279 m 0,8,9
 165 394 165 394 232 492 c 0,10,11
 266 543 266 543 292 573.5 c 128,-1,12
 318 604 318 604 366.5 655.5 c 128,-1,13
 415 707 415 707 435.5 749 c 128,-1,14
 456 791 456 791 456 853 c 2,15,-1
 456 966 l 1,16,-1
 662 966 l 1,17,-1
 662 853 l 2,18,19
 662 759 662 759 628 697.5 c 128,-1,20
 594 636 594 636 491 533 c 0,21,22
 372 414 372 414 372 294 c 0,23,24
 372 217 372 217 415.5 182 c 128,-1,25
 459 147 459 147 543.5 147 c 128,-1,26
 628 147 628 147 693 181 c 128,-1,27
 758 215 758 215 827 295 c 1,28,-1
 967 181 l 1,29,30
 791 -31 791 -31 531 -31 c 0,31,32
 362 -31 362 -31 263.5 53.5 c 128,-1,33
 165 138 165 138 165 279 c 0,8,9
EndSplineSet
EndChar

StartChar: Agrave
Encoding: 192 192 132
Width: 1126
GlyphClass: 2
Flags: W
LayerCount: 2
Fore
SplineSet
689 1325 m 1,0,-1
 239 1496 l 1,1,-1
 361 1715 l 1,2,-1
 755 1446 l 1,3,-1
 689 1325 l 1,0,-1
30 0 m 1,4,-1
 480 1298 l 1,5,-1
 625 1298 l 1,6,-1
 1086 0 l 1,7,-1
 856 0 l 1,8,-1
 748 319 l 1,9,-1
 357 319 l 1,10,-1
 256 0 l 1,11,-1
 30 0 l 1,4,-1
417 510 m 1,12,-1
 683 510 l 1,13,-1
 545 915 l 1,14,-1
 417 510 l 1,12,-1
EndSplineSet
EndChar

StartChar: Aacute
Encoding: 193 193 133
Width: 1126
GlyphClass: 2
Flags: W
LayerCount: 2
Fore
SplineSet
425 1349 m 1,0,-1
 370 1450 l 1,1,-1
 727 1693 l 1,2,-1
 829 1514 l 1,3,-1
 425 1349 l 1,0,-1
30 0 m 1,4,-1
 480 1298 l 1,5,-1
 625 1298 l 1,6,-1
 1086 0 l 1,7,-1
 856 0 l 1,8,-1
 748 319 l 1,9,-1
 357 319 l 1,10,-1
 256 0 l 1,11,-1
 30 0 l 1,4,-1
417 510 m 1,12,-1
 683 510 l 1,13,-1
 545 915 l 1,14,-1
 417 510 l 1,12,-1
EndSplineSet
EndChar

StartChar: Acircumflex
Encoding: 194 194 134
Width: 1126
GlyphClass: 2
Flags: W
LayerCount: 2
Fore
SplineSet
324 1325 m 1,0,-1
 254 1407 l 1,1,-1
 537 1648 l 1,2,-1
 600 1648 l 1,3,-1
 868 1411 l 1,4,-1
 790 1319 l 1,5,-1
 565 1474 l 1,6,-1
 324 1325 l 1,0,-1
30 0 m 1,7,-1
 480 1298 l 1,8,-1
 625 1298 l 1,9,-1
 1086 0 l 1,10,-1
 856 0 l 1,11,-1
 748 319 l 1,12,-1
 357 319 l 1,13,-1
 254 0 l 1,14,-1
 30 0 l 1,7,-1
417 510 m 1,15,-1
 683 510 l 1,16,-1
 545 915 l 1,17,-1
 417 510 l 1,15,-1
EndSplineSet
EndChar

StartChar: Atilde
Encoding: 195 195 135
Width: 1126
GlyphClass: 2
Flags: W
LayerCount: 2
Fore
SplineSet
320.5 1616.5 m 128,-1,1
 372 1657 372 1657 429 1657 c 128,-1,2
 486 1657 486 1657 542.5 1633 c 128,-1,3
 599 1609 599 1609 646 1585 c 128,-1,4
 693 1561 693 1561 720 1561 c 128,-1,5
 747 1561 747 1561 768.5 1580 c 128,-1,6
 790 1599 790 1599 822 1646 c 1,7,-1
 934 1552 l 1,8,9
 870 1460 870 1460 830 1424.5 c 128,-1,10
 790 1389 790 1389 743 1389 c 128,-1,11
 696 1389 696 1389 600 1441.5 c 128,-1,12
 504 1494 504 1494 464 1494 c 128,-1,13
 424 1494 424 1494 391.5 1471.5 c 128,-1,14
 359 1449 359 1449 322 1386 c 1,15,-1
 206 1474 l 1,16,0
 269 1576 269 1576 320.5 1616.5 c 128,-1,1
30 0 m 1,17,-1
 480 1298 l 1,18,-1
 625 1298 l 1,19,-1
 1086 0 l 1,20,-1
 856 0 l 1,21,-1
 748 319 l 1,22,-1
 357 319 l 1,23,-1
 256 0 l 1,24,-1
 30 0 l 1,17,-1
417 510 m 1,25,-1
 683 510 l 1,26,-1
 545 915 l 1,27,-1
 417 510 l 1,25,-1
EndSplineSet
EndChar

StartChar: Adieresis
Encoding: 196 196 136
Width: 1126
GlyphClass: 2
Flags: W
LayerCount: 2
Fore
SplineSet
850.5 1437.5 m 128,-1,1
 809 1399 809 1399 750.5 1399 c 128,-1,2
 692 1399 692 1399 651 1437 c 128,-1,3
 610 1475 610 1475 610 1530 c 128,-1,4
 610 1585 610 1585 651 1624 c 128,-1,5
 692 1663 692 1663 752.5 1663 c 128,-1,6
 813 1663 813 1663 852.5 1622.5 c 128,-1,7
 892 1582 892 1582 892 1529 c 128,-1,0
 892 1476 892 1476 850.5 1437.5 c 128,-1,1
475.5 1437.5 m 128,-1,9
 433 1399 433 1399 374.5 1399 c 128,-1,10
 316 1399 316 1399 274.5 1437.5 c 128,-1,11
 233 1476 233 1476 233 1530 c 128,-1,12
 233 1584 233 1584 274.5 1623.5 c 128,-1,13
 316 1663 316 1663 375.5 1663 c 128,-1,14
 435 1663 435 1663 476.5 1622.5 c 128,-1,15
 518 1582 518 1582 518 1529 c 128,-1,8
 518 1476 518 1476 475.5 1437.5 c 128,-1,9
30 0 m 1,16,-1
 480 1298 l 1,17,-1
 625 1298 l 1,18,-1
 1086 0 l 1,19,-1
 856 0 l 1,20,-1
 748 319 l 1,21,-1
 357 319 l 1,22,-1
 256 0 l 1,23,-1
 30 0 l 1,16,-1
417 510 m 1,24,-1
 683 510 l 1,25,-1
 545 915 l 1,26,-1
 417 510 l 1,24,-1
EndSplineSet
EndChar

StartChar: Aring
Encoding: 197 197 137
Width: 1126
GlyphClass: 2
Flags: W
LayerCount: 2
Fore
SplineSet
353 1466 m 0,0,1
 353 1549 353 1549 415.5 1609 c 128,-1,2
 478 1669 478 1669 565 1669 c 128,-1,3
 652 1669 652 1669 715.5 1609 c 128,-1,4
 779 1549 779 1549 779 1466 c 0,5,6
 779 1400 779 1400 738.5 1347 c 128,-1,7
 698 1294 698 1294 634 1273 c 1,8,-1
 1086 0 l 1,9,-1
 856 0 l 1,10,-1
 748 319 l 1,11,-1
 357 319 l 1,12,-1
 256 0 l 1,13,-1
 30 0 l 1,14,-1
 474 1282 l 1,15,16
 420 1307 420 1307 386.5 1356.5 c 128,-1,17
 353 1406 353 1406 353 1466 c 0,0,1
566 1393 m 128,-1,19
 601 1393 601 1393 621.5 1414 c 128,-1,20
 642 1435 642 1435 642 1468 c 128,-1,21
 642 1501 642 1501 621 1523.5 c 128,-1,22
 600 1546 600 1546 566 1546 c 128,-1,23
 532 1546 532 1546 511.5 1523.5 c 128,-1,24
 491 1501 491 1501 491 1468 c 128,-1,25
 491 1435 491 1435 511 1414 c 128,-1,18
 531 1393 531 1393 566 1393 c 128,-1,19
417 510 m 1,26,-1
 683 510 l 1,27,-1
 545 915 l 1,28,-1
 417 510 l 1,26,-1
EndSplineSet
EndChar

StartChar: AE
Encoding: 198 198 138
Width: 1126
GlyphClass: 2
Flags: W
LayerCount: 2
Fore
SplineSet
1067 1276 m 1,0,-1
 1067 1076 l 1,1,-1
 745 1076 l 1,2,-1
 745 764 l 1,3,-1
 1016 764 l 1,4,-1
 1016 563 l 1,5,-1
 745 563 l 1,6,-1
 745 205 l 1,7,-1
 1063 205 l 1,8,-1
 1063 0 l 1,9,-1
 512 0 l 1,10,-1
 512 328 l 1,11,-1
 338 328 l 1,12,-1
 247 0 l 1,13,-1
 26 0 l 1,14,-1
 449 1276 l 1,15,-1
 1067 1276 l 1,0,-1
516 514 m 1,16,-1
 516 1007 l 1,17,-1
 475 824 l 1,18,-1
 389 514 l 1,19,-1
 516 514 l 1,16,-1
EndSplineSet
EndChar

StartChar: Ccedilla
Encoding: 199 199 139
Width: 1126
GlyphClass: 2
Flags: W
LayerCount: 2
Fore
SplineSet
578 -263 m 0,0,1
 646 -263 646 -263 646 -216 c 0,2,3
 646 -192 646 -192 631.5 -182 c 128,-1,4
 617 -172 617 -172 582 -172 c 2,5,-1
 482 -172 l 1,6,-1
 502 -35 l 1,7,8
 297 -19 297 -19 180 156.5 c 128,-1,9
 63 332 63 332 63 641.5 c 128,-1,10
 63 951 63 951 199 1130 c 128,-1,11
 335 1309 335 1309 577 1309 c 0,12,13
 734 1309 734 1309 829.5 1232.5 c 128,-1,14
 925 1156 925 1156 974 997 c 1,15,-1
 757 918 l 1,16,17
 745 939 745 939 744.5 971 c 128,-1,18
 744 1003 744 1003 736 1020 c 0,19,20
 716 1060 716 1060 674 1087.5 c 128,-1,21
 632 1115 632 1115 575 1115 c 0,22,23
 446 1115 446 1115 374.5 991 c 128,-1,24
 303 867 303 867 303 640 c 128,-1,25
 303 413 303 413 375.5 284.5 c 128,-1,26
 448 156 448 156 575 156 c 0,27,28
 648 156 648 156 702 197 c 128,-1,29
 756 238 756 238 799 326 c 1,30,-1
 973 213 l 1,31,32
 918 111 918 111 845 53 c 128,-1,33
 772 -5 772 -5 667 -26 c 1,34,-1
 662 -63 l 1,35,36
 737 -70 737 -70 779.5 -109 c 128,-1,37
 822 -148 822 -148 822 -206 c 0,38,39
 822 -281 822 -281 753.5 -340 c 128,-1,40
 685 -399 685 -399 563 -399 c 0,41,42
 419 -399 419 -399 301 -309 c 1,43,-1
 368 -185 l 1,44,45
 465 -263 465 -263 578 -263 c 0,0,1
EndSplineSet
EndChar

StartChar: Egrave
Encoding: 200 200 140
Width: 1126
GlyphClass: 2
Flags: W
LayerCount: 2
Fore
SplineSet
701 1325 m 1,0,-1
 251 1496 l 1,1,-1
 373 1715 l 1,2,-1
 767 1446 l 1,3,-1
 701 1325 l 1,0,-1
142 0 m 1,4,-1
 142 1276 l 1,5,-1
 976 1276 l 1,6,-1
 976 1075 l 1,7,-1
 368 1075 l 1,8,-1
 368 764 l 1,9,-1
 872 764 l 1,10,-1
 872 563 l 1,11,-1
 368 563 l 1,12,-1
 368 201 l 1,13,-1
 972 201 l 1,14,-1
 972 0 l 1,15,-1
 142 0 l 1,4,-1
EndSplineSet
EndChar

StartChar: Eacute
Encoding: 201 201 141
Width: 1126
GlyphClass: 2
Flags: W
LayerCount: 2
Fore
SplineSet
437 1349 m 1,0,-1
 382 1450 l 1,1,-1
 739 1693 l 1,2,-1
 841 1514 l 1,3,-1
 437 1349 l 1,0,-1
142 0 m 1,4,-1
 142 1276 l 1,5,-1
 976 1276 l 1,6,-1
 976 1075 l 1,7,-1
 368 1075 l 1,8,-1
 368 764 l 1,9,-1
 872 764 l 1,10,-1
 872 563 l 1,11,-1
 368 563 l 1,12,-1
 368 201 l 1,13,-1
 972 201 l 1,14,-1
 972 0 l 1,15,-1
 142 0 l 1,4,-1
EndSplineSet
EndChar

StartChar: Ecircumflex
Encoding: 202 202 142
Width: 1126
GlyphClass: 2
Flags: W
LayerCount: 2
Fore
SplineSet
336 1325 m 1,0,-1
 266 1407 l 1,1,-1
 549 1648 l 1,2,-1
 612 1648 l 1,3,-1
 880 1411 l 1,4,-1
 802 1319 l 1,5,-1
 577 1474 l 1,6,-1
 336 1325 l 1,0,-1
142 0 m 1,7,-1
 142 1276 l 1,8,-1
 976 1276 l 1,9,-1
 976 1075 l 1,10,-1
 368 1075 l 1,11,-1
 368 764 l 1,12,-1
 872 764 l 1,13,-1
 872 563 l 1,14,-1
 368 563 l 1,15,-1
 368 201 l 1,16,-1
 972 201 l 1,17,-1
 972 0 l 1,18,-1
 142 0 l 1,7,-1
EndSplineSet
EndChar

StartChar: Edieresis
Encoding: 203 203 143
Width: 1126
GlyphClass: 2
Flags: W
LayerCount: 2
Fore
SplineSet
862.5 1437.5 m 128,-1,1
 821 1399 821 1399 762.5 1399 c 128,-1,2
 704 1399 704 1399 663 1437 c 128,-1,3
 622 1475 622 1475 622 1530 c 128,-1,4
 622 1585 622 1585 663 1624 c 128,-1,5
 704 1663 704 1663 764.5 1663 c 128,-1,6
 825 1663 825 1663 864.5 1622.5 c 128,-1,7
 904 1582 904 1582 904 1529 c 128,-1,0
 904 1476 904 1476 862.5 1437.5 c 128,-1,1
487.5 1437.5 m 128,-1,9
 445 1399 445 1399 386.5 1399 c 128,-1,10
 328 1399 328 1399 286.5 1437.5 c 128,-1,11
 245 1476 245 1476 245 1530 c 128,-1,12
 245 1584 245 1584 286.5 1623.5 c 128,-1,13
 328 1663 328 1663 387.5 1663 c 128,-1,14
 447 1663 447 1663 488.5 1622.5 c 128,-1,15
 530 1582 530 1582 530 1529 c 128,-1,8
 530 1476 530 1476 487.5 1437.5 c 128,-1,9
142 0 m 1,16,-1
 142 1276 l 1,17,-1
 976 1276 l 1,18,-1
 976 1075 l 1,19,-1
 368 1075 l 1,20,-1
 368 764 l 1,21,-1
 872 764 l 1,22,-1
 872 563 l 1,23,-1
 368 563 l 1,24,-1
 368 201 l 1,25,-1
 972 201 l 1,26,-1
 972 0 l 1,27,-1
 142 0 l 1,16,-1
EndSplineSet
EndChar

StartChar: Igrave
Encoding: 204 204 144
Width: 1126
GlyphClass: 2
Flags: W
LayerCount: 2
Fore
SplineSet
331 1496 m 1,0,-1
 453 1715 l 1,1,-1
 847 1446 l 1,2,-1
 781 1325 l 1,3,-1
 331 1496 l 1,0,-1
207 0 m 1,4,-1
 207 203 l 1,5,-1
 438 203 l 1,6,-1
 438 1075 l 1,7,-1
 207 1075 l 1,8,-1
 207 1276 l 1,9,-1
 919 1276 l 1,10,-1
 919 1075 l 1,11,-1
 674 1075 l 1,12,-1
 674 201 l 1,13,-1
 919 201 l 1,14,-1
 919 0 l 1,15,-1
 207 0 l 1,4,-1
EndSplineSet
EndChar

StartChar: Iacute
Encoding: 205 205 145
Width: 1126
GlyphClass: 2
Flags: W
LayerCount: 2
Fore
SplineSet
468 1349 m 1,0,-1
 413 1450 l 1,1,-1
 770 1693 l 1,2,-1
 872 1514 l 1,3,-1
 468 1349 l 1,0,-1
207 0 m 1,4,-1
 207 203 l 1,5,-1
 438 203 l 1,6,-1
 438 1075 l 1,7,-1
 207 1075 l 1,8,-1
 207 1276 l 1,9,-1
 919 1276 l 1,10,-1
 919 1075 l 1,11,-1
 674 1075 l 1,12,-1
 674 201 l 1,13,-1
 919 201 l 1,14,-1
 919 0 l 1,15,-1
 207 0 l 1,4,-1
EndSplineSet
EndChar

StartChar: Icircumflex
Encoding: 206 206 146
Width: 1126
GlyphClass: 2
Flags: W
LayerCount: 2
Fore
SplineSet
324 1325 m 1,0,-1
 254 1407 l 1,1,-1
 537 1648 l 1,2,-1
 600 1648 l 1,3,-1
 868 1411 l 1,4,-1
 790 1319 l 1,5,-1
 565 1474 l 1,6,-1
 324 1325 l 1,0,-1
207 0 m 1,7,-1
 207 203 l 1,8,-1
 438 203 l 1,9,-1
 438 1075 l 1,10,-1
 207 1075 l 1,11,-1
 207 1276 l 1,12,-1
 919 1276 l 1,13,-1
 919 1075 l 1,14,-1
 674 1075 l 1,15,-1
 674 201 l 1,16,-1
 919 201 l 1,17,-1
 919 0 l 1,18,-1
 207 0 l 1,7,-1
EndSplineSet
EndChar

StartChar: Idieresis
Encoding: 207 207 147
Width: 1126
GlyphClass: 2
Flags: W
LayerCount: 2
Fore
SplineSet
850.5 1437.5 m 128,-1,1
 809 1399 809 1399 750.5 1399 c 128,-1,2
 692 1399 692 1399 651 1437 c 128,-1,3
 610 1475 610 1475 610 1530 c 128,-1,4
 610 1585 610 1585 651 1624 c 128,-1,5
 692 1663 692 1663 752.5 1663 c 128,-1,6
 813 1663 813 1663 852.5 1622.5 c 128,-1,7
 892 1582 892 1582 892 1529 c 128,-1,0
 892 1476 892 1476 850.5 1437.5 c 128,-1,1
475.5 1437.5 m 128,-1,9
 433 1399 433 1399 374.5 1399 c 128,-1,10
 316 1399 316 1399 274.5 1437.5 c 128,-1,11
 233 1476 233 1476 233 1530 c 128,-1,12
 233 1584 233 1584 274.5 1623.5 c 128,-1,13
 316 1663 316 1663 375.5 1663 c 128,-1,14
 435 1663 435 1663 476.5 1622.5 c 128,-1,15
 518 1582 518 1582 518 1529 c 128,-1,8
 518 1476 518 1476 475.5 1437.5 c 128,-1,9
207 0 m 1,16,-1
 207 203 l 1,17,-1
 438 203 l 1,18,-1
 438 1075 l 1,19,-1
 207 1075 l 1,20,-1
 207 1276 l 1,21,-1
 919 1276 l 1,22,-1
 919 1075 l 1,23,-1
 674 1075 l 1,24,-1
 674 201 l 1,25,-1
 919 201 l 1,26,-1
 919 0 l 1,27,-1
 207 0 l 1,16,-1
EndSplineSet
EndChar

StartChar: Eth
Encoding: 208 208 148
Width: 1126
GlyphClass: 2
Flags: W
LayerCount: 2
Fore
SplineSet
127 0 m 1,0,-1
 127 563 l 1,1,-1
 38 563 l 1,2,-1
 38 750 l 1,3,-1
 127 750 l 1,4,-1
 127 1276 l 1,5,-1
 490 1276 l 2,6,7
 752 1276 752 1276 899 1107.5 c 128,-1,8
 1046 939 1046 939 1046 638.5 c 128,-1,9
 1046 338 1046 338 892.5 169 c 128,-1,10
 739 0 739 0 465 0 c 2,11,-1
 127 0 l 1,0,-1
363 201 m 1,12,-1
 481 201 l 2,13,14
 635 201 635 201 725 316 c 128,-1,15
 815 431 815 431 815 635.5 c 128,-1,16
 815 840 815 840 728.5 957.5 c 128,-1,17
 642 1075 642 1075 492 1075 c 2,18,-1
 363 1075 l 1,19,-1
 363 750 l 1,20,-1
 636 750 l 1,21,-1
 636 563 l 1,22,-1
 363 563 l 1,23,-1
 363 201 l 1,12,-1
EndSplineSet
EndChar

StartChar: Ntilde
Encoding: 209 209 149
Width: 1126
GlyphClass: 2
Flags: W
LayerCount: 2
Fore
SplineSet
351.5 1616.5 m 128,-1,1
 403 1657 403 1657 460 1657 c 128,-1,2
 517 1657 517 1657 573.5 1633 c 128,-1,3
 630 1609 630 1609 677 1585 c 128,-1,4
 724 1561 724 1561 751 1561 c 128,-1,5
 778 1561 778 1561 799.5 1580 c 128,-1,6
 821 1599 821 1599 853 1646 c 1,7,-1
 965 1552 l 1,8,9
 901 1460 901 1460 861 1424.5 c 128,-1,10
 821 1389 821 1389 773.5 1389 c 128,-1,11
 726 1389 726 1389 630 1441.5 c 128,-1,12
 534 1494 534 1494 494.5 1494 c 128,-1,13
 455 1494 455 1494 422.5 1471.5 c 128,-1,14
 390 1449 390 1449 353 1386 c 1,15,-1
 237 1474 l 1,16,0
 300 1576 300 1576 351.5 1616.5 c 128,-1,1
122 0 m 1,17,-1
 122 1276 l 1,18,-1
 402 1276 l 1,19,-1
 676 668 l 1,20,-1
 818 362 l 1,21,-1
 798 685 l 1,22,-1
 798 1276 l 1,23,-1
 1028 1276 l 1,24,-1
 1028 1272 l 2,25,26
 1028 1264 1028 1264 1021 1245 c 128,-1,27
 1014 1226 1014 1226 1014 1204 c 2,28,-1
 1014 0 l 1,29,-1
 781 0 l 1,30,-1
 427 769 l 1,31,-1
 318 1023 l 1,32,-1
 338 766 l 1,33,-1
 338 0 l 1,34,-1
 122 0 l 1,17,-1
EndSplineSet
EndChar

StartChar: Ograve
Encoding: 210 210 150
Width: 1126
GlyphClass: 2
Flags: W
LayerCount: 2
Fore
SplineSet
689 1325 m 1,0,-1
 239 1496 l 1,1,-1
 361 1715 l 1,2,-1
 755 1446 l 1,3,-1
 689 1325 l 1,0,-1
932.5 141.5 m 128,-1,5
 801 -37 801 -37 565 -37 c 128,-1,6
 329 -37 329 -37 196 142.5 c 128,-1,7
 63 322 63 322 63 639 c 128,-1,8
 63 956 63 956 196.5 1132.5 c 128,-1,9
 330 1309 330 1309 566 1309 c 128,-1,10
 802 1309 802 1309 933 1132 c 128,-1,11
 1064 955 1064 955 1064 637.5 c 128,-1,4
 1064 320 1064 320 932.5 141.5 c 128,-1,5
373 289.5 m 128,-1,13
 443 158 443 158 565.5 158 c 128,-1,14
 688 158 688 158 756 287 c 128,-1,15
 824 416 824 416 824 640.5 c 128,-1,16
 824 865 824 865 757 989.5 c 128,-1,17
 690 1114 690 1114 567 1114 c 128,-1,18
 444 1114 444 1114 373.5 992.5 c 128,-1,19
 303 871 303 871 303 646 c 128,-1,12
 303 421 303 421 373 289.5 c 128,-1,13
EndSplineSet
EndChar

StartChar: Oacute
Encoding: 211 211 151
Width: 1126
GlyphClass: 2
Flags: W
LayerCount: 2
Fore
SplineSet
425 1349 m 1,0,-1
 370 1450 l 1,1,-1
 727 1693 l 1,2,-1
 829 1514 l 1,3,-1
 425 1349 l 1,0,-1
932.5 141.5 m 128,-1,5
 801 -37 801 -37 565 -37 c 128,-1,6
 329 -37 329 -37 196 142.5 c 128,-1,7
 63 322 63 322 63 639 c 128,-1,8
 63 956 63 956 196.5 1132.5 c 128,-1,9
 330 1309 330 1309 566 1309 c 128,-1,10
 802 1309 802 1309 933 1132 c 128,-1,11
 1064 955 1064 955 1064 637.5 c 128,-1,4
 1064 320 1064 320 932.5 141.5 c 128,-1,5
373 289.5 m 128,-1,13
 443 158 443 158 565.5 158 c 128,-1,14
 688 158 688 158 756 287 c 128,-1,15
 824 416 824 416 824 640.5 c 128,-1,16
 824 865 824 865 757 989.5 c 128,-1,17
 690 1114 690 1114 567 1114 c 128,-1,18
 444 1114 444 1114 373.5 992.5 c 128,-1,19
 303 871 303 871 303 646 c 128,-1,12
 303 421 303 421 373 289.5 c 128,-1,13
EndSplineSet
EndChar

StartChar: Ocircumflex
Encoding: 212 212 152
Width: 1126
GlyphClass: 2
Flags: W
LayerCount: 2
Fore
SplineSet
324 1325 m 1,0,-1
 254 1407 l 1,1,-1
 537 1648 l 1,2,-1
 600 1648 l 1,3,-1
 868 1411 l 1,4,-1
 790 1319 l 1,5,-1
 565 1474 l 1,6,-1
 324 1325 l 1,0,-1
932.5 141.5 m 128,-1,8
 801 -37 801 -37 565 -37 c 128,-1,9
 329 -37 329 -37 196 142.5 c 128,-1,10
 63 322 63 322 63 639 c 128,-1,11
 63 956 63 956 196.5 1132.5 c 128,-1,12
 330 1309 330 1309 566 1309 c 128,-1,13
 802 1309 802 1309 933 1132 c 128,-1,14
 1064 955 1064 955 1064 637.5 c 128,-1,7
 1064 320 1064 320 932.5 141.5 c 128,-1,8
373 289.5 m 128,-1,16
 443 158 443 158 565.5 158 c 128,-1,17
 688 158 688 158 756 287 c 128,-1,18
 824 416 824 416 824 640.5 c 128,-1,19
 824 865 824 865 757 989.5 c 128,-1,20
 690 1114 690 1114 567 1114 c 128,-1,21
 444 1114 444 1114 373.5 992.5 c 128,-1,22
 303 871 303 871 303 646 c 128,-1,15
 303 421 303 421 373 289.5 c 128,-1,16
EndSplineSet
EndChar

StartChar: Otilde
Encoding: 213 213 153
Width: 1126
GlyphClass: 2
Flags: W
LayerCount: 2
Fore
SplineSet
320.5 1616.5 m 128,-1,1
 372 1657 372 1657 429 1657 c 128,-1,2
 486 1657 486 1657 542.5 1633 c 128,-1,3
 599 1609 599 1609 646 1585 c 128,-1,4
 693 1561 693 1561 720 1561 c 128,-1,5
 747 1561 747 1561 768.5 1580 c 128,-1,6
 790 1599 790 1599 822 1646 c 1,7,-1
 934 1552 l 1,8,9
 870 1460 870 1460 830 1424.5 c 128,-1,10
 790 1389 790 1389 743 1389 c 128,-1,11
 696 1389 696 1389 600 1441.5 c 128,-1,12
 504 1494 504 1494 464 1494 c 128,-1,13
 424 1494 424 1494 391.5 1471.5 c 128,-1,14
 359 1449 359 1449 322 1386 c 1,15,-1
 206 1474 l 1,16,0
 269 1576 269 1576 320.5 1616.5 c 128,-1,1
932.5 141.5 m 128,-1,18
 801 -37 801 -37 565 -37 c 128,-1,19
 329 -37 329 -37 196 142.5 c 128,-1,20
 63 322 63 322 63 639 c 128,-1,21
 63 956 63 956 196.5 1132.5 c 128,-1,22
 330 1309 330 1309 566 1309 c 128,-1,23
 802 1309 802 1309 933 1132 c 128,-1,24
 1064 955 1064 955 1064 637.5 c 128,-1,17
 1064 320 1064 320 932.5 141.5 c 128,-1,18
373 289.5 m 128,-1,26
 443 158 443 158 565.5 158 c 128,-1,27
 688 158 688 158 756 287 c 128,-1,28
 824 416 824 416 824 640.5 c 128,-1,29
 824 865 824 865 757 989.5 c 128,-1,30
 690 1114 690 1114 567 1114 c 128,-1,31
 444 1114 444 1114 373.5 992.5 c 128,-1,32
 303 871 303 871 303 646 c 128,-1,25
 303 421 303 421 373 289.5 c 128,-1,26
EndSplineSet
EndChar

StartChar: Odieresis
Encoding: 214 214 154
Width: 1126
GlyphClass: 2
Flags: W
LayerCount: 2
Fore
SplineSet
850.5 1437.5 m 128,-1,1
 809 1399 809 1399 750.5 1399 c 128,-1,2
 692 1399 692 1399 651 1437 c 128,-1,3
 610 1475 610 1475 610 1530 c 128,-1,4
 610 1585 610 1585 651 1624 c 128,-1,5
 692 1663 692 1663 752.5 1663 c 128,-1,6
 813 1663 813 1663 852.5 1622.5 c 128,-1,7
 892 1582 892 1582 892 1529 c 128,-1,0
 892 1476 892 1476 850.5 1437.5 c 128,-1,1
475.5 1437.5 m 128,-1,9
 433 1399 433 1399 374.5 1399 c 128,-1,10
 316 1399 316 1399 274.5 1437.5 c 128,-1,11
 233 1476 233 1476 233 1530 c 128,-1,12
 233 1584 233 1584 274.5 1623.5 c 128,-1,13
 316 1663 316 1663 375.5 1663 c 128,-1,14
 435 1663 435 1663 476.5 1622.5 c 128,-1,15
 518 1582 518 1582 518 1529 c 128,-1,8
 518 1476 518 1476 475.5 1437.5 c 128,-1,9
932.5 141.5 m 128,-1,17
 801 -37 801 -37 565 -37 c 128,-1,18
 329 -37 329 -37 196 142.5 c 128,-1,19
 63 322 63 322 63 639 c 128,-1,20
 63 956 63 956 196.5 1132.5 c 128,-1,21
 330 1309 330 1309 566 1309 c 128,-1,22
 802 1309 802 1309 933 1132 c 128,-1,23
 1064 955 1064 955 1064 637.5 c 128,-1,16
 1064 320 1064 320 932.5 141.5 c 128,-1,17
373 289.5 m 128,-1,25
 443 158 443 158 565.5 158 c 128,-1,26
 688 158 688 158 756 287 c 128,-1,27
 824 416 824 416 824 640.5 c 128,-1,28
 824 865 824 865 757 989.5 c 128,-1,29
 690 1114 690 1114 567 1114 c 128,-1,30
 444 1114 444 1114 373.5 992.5 c 128,-1,31
 303 871 303 871 303 646 c 128,-1,24
 303 421 303 421 373 289.5 c 128,-1,25
EndSplineSet
EndChar

StartChar: multiply
Encoding: 215 215 155
Width: 1126
GlyphClass: 2
Flags: W
LayerCount: 2
Fore
SplineSet
337 297 m 1,0,-1
 204 430 l 1,1,-1
 431 656 l 1,2,-1
 204 883 l 1,3,-1
 337 1015 l 1,4,-1
 563 789 l 1,5,-1
 789 1015 l 1,6,-1
 922 882 l 1,7,-1
 696 656 l 1,8,-1
 922 429 l 1,9,-1
 790 297 l 1,10,-1
 564 524 l 1,11,-1
 337 297 l 1,0,-1
EndSplineSet
EndChar

StartChar: Oslash
Encoding: 216 216 156
Width: 1126
GlyphClass: 2
Flags: W
LayerCount: 2
Fore
SplineSet
205 131 m 1,0,1
 63 312 63 312 63 634 c 128,-1,2
 63 956 63 956 196.5 1132.5 c 128,-1,3
 330 1309 330 1309 568 1309 c 0,4,5
 689 1309 689 1309 784 1260 c 1,6,-1
 857 1401 l 1,7,-1
 1002 1314 l 1,8,-1
 918 1151 l 1,9,10
 1064 972 1064 972 1064 646 c 128,-1,11
 1064 320 1064 320 932.5 141.5 c 128,-1,12
 801 -37 801 -37 566 -37 c 0,13,14
 435 -37 435 -37 331 21 c 1,15,-1
 253 -130 l 1,16,-1
 112 -49 l 1,17,-1
 205 131 l 1,0,1
570 1114 m 0,18,19
 444 1114 444 1114 373.5 992.5 c 128,-1,20
 303 871 303 871 303 653 c 0,21,22
 303 498 303 498 335 385 c 1,23,-1
 689 1074 l 1,24,25
 637 1114 637 1114 570 1114 c 0,18,19
568 158 m 0,26,27
 688 158 688 158 756 287 c 128,-1,28
 824 416 824 416 824 643 c 0,29,30
 824 799 824 799 791 907 c 1,31,-1
 431 212 l 1,32,33
 490 158 490 158 568 158 c 0,26,27
EndSplineSet
EndChar

StartChar: Ugrave
Encoding: 217 217 157
Width: 1126
GlyphClass: 2
Flags: W
LayerCount: 2
Fore
SplineSet
689 1325 m 1,0,-1
 239 1496 l 1,1,-1
 361 1715 l 1,2,-1
 755 1446 l 1,3,-1
 689 1325 l 1,0,-1
99 451 m 2,4,-1
 99 1276 l 1,5,-1
 349 1276 l 1,6,-1
 349 1272 l 2,7,8
 349 1264 349 1264 342.5 1246.5 c 128,-1,9
 336 1229 336 1229 336 1213 c 2,10,-1
 336 449 l 2,11,12
 336 316 336 316 400 237 c 128,-1,13
 464 158 464 158 564.5 158 c 128,-1,14
 665 158 665 158 729.5 238.5 c 128,-1,15
 794 319 794 319 794 455 c 2,16,-1
 794 1276 l 1,17,-1
 1020 1276 l 1,18,-1
 1020 457 l 2,19,20
 1020 230 1020 230 894.5 96.5 c 128,-1,21
 769 -37 769 -37 560.5 -37 c 128,-1,22
 352 -37 352 -37 225.5 94.5 c 128,-1,23
 99 226 99 226 99 451 c 2,4,-1
EndSplineSet
EndChar

StartChar: Uacute
Encoding: 218 218 158
Width: 1126
GlyphClass: 2
Flags: W
LayerCount: 2
Fore
SplineSet
425 1349 m 1,0,-1
 370 1450 l 1,1,-1
 727 1693 l 1,2,-1
 829 1514 l 1,3,-1
 425 1349 l 1,0,-1
99 451 m 2,4,-1
 99 1276 l 1,5,-1
 349 1276 l 1,6,-1
 349 1272 l 2,7,8
 349 1264 349 1264 342.5 1246.5 c 128,-1,9
 336 1229 336 1229 336 1213 c 2,10,-1
 336 449 l 2,11,12
 336 316 336 316 400 237 c 128,-1,13
 464 158 464 158 564.5 158 c 128,-1,14
 665 158 665 158 729.5 238.5 c 128,-1,15
 794 319 794 319 794 455 c 2,16,-1
 794 1276 l 1,17,-1
 1020 1276 l 1,18,-1
 1020 457 l 2,19,20
 1020 230 1020 230 894.5 96.5 c 128,-1,21
 769 -37 769 -37 560.5 -37 c 128,-1,22
 352 -37 352 -37 225.5 94.5 c 128,-1,23
 99 226 99 226 99 451 c 2,4,-1
EndSplineSet
EndChar

StartChar: Ucircumflex
Encoding: 219 219 159
Width: 1126
GlyphClass: 2
Flags: W
LayerCount: 2
Fore
SplineSet
324 1325 m 1,0,-1
 254 1407 l 1,1,-1
 537 1648 l 1,2,-1
 600 1648 l 1,3,-1
 868 1411 l 1,4,-1
 790 1319 l 1,5,-1
 565 1474 l 1,6,-1
 324 1325 l 1,0,-1
99 451 m 2,7,-1
 99 1276 l 1,8,-1
 349 1276 l 1,9,-1
 349 1272 l 2,10,11
 349 1264 349 1264 342.5 1246.5 c 128,-1,12
 336 1229 336 1229 336 1213 c 2,13,-1
 336 449 l 2,14,15
 336 316 336 316 400 237 c 128,-1,16
 464 158 464 158 564.5 158 c 128,-1,17
 665 158 665 158 729.5 238.5 c 128,-1,18
 794 319 794 319 794 455 c 2,19,-1
 794 1276 l 1,20,-1
 1020 1276 l 1,21,-1
 1020 457 l 2,22,23
 1020 230 1020 230 894.5 96.5 c 128,-1,24
 769 -37 769 -37 560.5 -37 c 128,-1,25
 352 -37 352 -37 225.5 94.5 c 128,-1,26
 99 226 99 226 99 451 c 2,7,-1
EndSplineSet
EndChar

StartChar: Udieresis
Encoding: 220 220 160
Width: 1126
GlyphClass: 2
Flags: W
LayerCount: 2
Fore
SplineSet
850.5 1437.5 m 128,-1,1
 809 1399 809 1399 750.5 1399 c 128,-1,2
 692 1399 692 1399 651 1437 c 128,-1,3
 610 1475 610 1475 610 1530 c 128,-1,4
 610 1585 610 1585 651 1624 c 128,-1,5
 692 1663 692 1663 752.5 1663 c 128,-1,6
 813 1663 813 1663 852.5 1622.5 c 128,-1,7
 892 1582 892 1582 892 1529 c 128,-1,0
 892 1476 892 1476 850.5 1437.5 c 128,-1,1
475.5 1437.5 m 128,-1,9
 433 1399 433 1399 374.5 1399 c 128,-1,10
 316 1399 316 1399 274.5 1437.5 c 128,-1,11
 233 1476 233 1476 233 1530 c 128,-1,12
 233 1584 233 1584 274.5 1623.5 c 128,-1,13
 316 1663 316 1663 375.5 1663 c 128,-1,14
 435 1663 435 1663 476.5 1622.5 c 128,-1,15
 518 1582 518 1582 518 1529 c 128,-1,8
 518 1476 518 1476 475.5 1437.5 c 128,-1,9
99 451 m 2,16,-1
 99 1276 l 1,17,-1
 349 1276 l 1,18,-1
 349 1272 l 2,19,20
 349 1264 349 1264 342.5 1246.5 c 128,-1,21
 336 1229 336 1229 336 1213 c 2,22,-1
 336 449 l 2,23,24
 336 316 336 316 400 237 c 128,-1,25
 464 158 464 158 564.5 158 c 128,-1,26
 665 158 665 158 729.5 238.5 c 128,-1,27
 794 319 794 319 794 455 c 2,28,-1
 794 1276 l 1,29,-1
 1020 1276 l 1,30,-1
 1020 457 l 2,31,32
 1020 230 1020 230 894.5 96.5 c 128,-1,33
 769 -37 769 -37 560.5 -37 c 128,-1,34
 352 -37 352 -37 225.5 94.5 c 128,-1,35
 99 226 99 226 99 451 c 2,16,-1
EndSplineSet
EndChar

StartChar: Yacute
Encoding: 221 221 161
Width: 1126
GlyphClass: 2
Flags: W
LayerCount: 2
Fore
SplineSet
425 1349 m 1,0,-1
 370 1450 l 1,1,-1
 727 1693 l 1,2,-1
 829 1514 l 1,3,-1
 425 1349 l 1,0,-1
457 0 m 1,4,-1
 457 499 l 1,5,-1
 48 1276 l 1,6,-1
 304 1276 l 1,7,-1
 467 942 l 1,8,-1
 577 711 l 1,9,-1
 675 943 l 1,10,-1
 820 1276 l 1,11,-1
 1074 1276 l 1,12,-1
 693 497 l 1,13,-1
 693 0 l 1,14,-1
 457 0 l 1,4,-1
EndSplineSet
EndChar

StartChar: Thorn
Encoding: 222 222 162
Width: 1126
GlyphClass: 2
Flags: W
LayerCount: 2
Fore
SplineSet
154 0 m 1,0,-1
 154 1276 l 1,1,-1
 404 1276 l 1,2,-1
 404 1272 l 2,3,4
 404 1264 404 1264 397 1245 c 128,-1,5
 390 1226 390 1226 390 1204 c 2,6,-1
 390 1057 l 1,7,-1
 585 1057 l 2,8,9
 695 1057 695 1057 779.5 1026.5 c 128,-1,10
 864 996 864 996 914 942 c 1,11,12
 1015 836 1015 836 1015 672 c 128,-1,13
 1015 508 1015 508 910 402.5 c 128,-1,14
 805 297 805 297 595 297 c 2,15,-1
 390 297 l 1,16,-1
 390 0 l 1,17,-1
 154 0 l 1,0,-1
390 492 m 1,18,-1
 578 492 l 2,19,20
 680 492 680 492 729.5 540 c 128,-1,21
 779 588 779 588 779 667 c 128,-1,22
 779 746 779 746 727.5 800 c 128,-1,23
 676 854 676 854 580 854 c 2,24,-1
 390 854 l 1,25,-1
 390 492 l 1,18,-1
EndSplineSet
EndChar

StartChar: germandbls
Encoding: 223 223 163
Width: 1126
GlyphClass: 2
Flags: W
LayerCount: 2
Fore
SplineSet
82 0 m 1,0,-1
 82 954 l 2,1,2
 82 1168 82 1168 198.5 1284.5 c 128,-1,3
 315 1401 315 1401 527 1401 c 0,4,5
 618 1401 618 1401 691 1378.5 c 128,-1,6
 764 1356 764 1356 810.5 1318.5 c 128,-1,7
 857 1281 857 1281 888 1230 c 0,8,9
 945 1138 945 1138 945 1030 c 0,10,11
 945 811 945 811 782 739 c 1,12,13
 1046 656 1046 656 1046 371 c 0,14,15
 1046 188 1046 188 940.5 78.5 c 128,-1,16
 835 -31 835 -31 635 -31 c 0,17,18
 566 -31 566 -31 510.5 -16 c 128,-1,19
 455 -1 455 -1 386 36 c 1,20,-1
 491 221 l 1,21,22
 561 168 561 168 635.5 168 c 128,-1,23
 710 168 710 168 765 218 c 128,-1,24
 820 268 820 268 820 375.5 c 128,-1,25
 820 483 820 483 743 555 c 128,-1,26
 666 627 666 627 521 627 c 2,27,-1
 463 627 l 1,28,-1
 463 809 l 1,29,-1
 542 809 l 2,30,31
 620 809 620 809 668.5 858.5 c 128,-1,32
 717 908 717 908 717 1003.5 c 128,-1,33
 717 1099 717 1099 669 1158 c 128,-1,34
 621 1217 621 1217 521 1217 c 128,-1,35
 421 1217 421 1217 367 1150 c 128,-1,36
 313 1083 313 1083 313 948 c 2,37,-1
 313 0 l 1,38,-1
 82 0 l 1,0,-1
EndSplineSet
EndChar

StartChar: agrave
Encoding: 224 224 164
Width: 1126
GlyphClass: 2
Flags: W
LayerCount: 2
Fore
SplineSet
624 1019 m 1,0,-1
 412 1350 l 1,1,-1
 582 1446 l 1,2,-1
 740 1076 l 1,3,-1
 624 1019 l 1,0,-1
117 254 m 0,4,5
 117 407 117 407 246.5 498.5 c 128,-1,6
 376 590 376 590 624 590 c 2,7,-1
 760 590 l 1,8,9
 759 698 759 698 712 747.5 c 128,-1,10
 665 797 665 797 567.5 797 c 128,-1,11
 470 797 470 797 355 717 c 0,12,13
 347 712 347 712 336 694.5 c 128,-1,14
 325 677 325 677 307 665 c 1,15,-1
 175 821 l 1,16,17
 339 977 339 977 572 977 c 0,18,19
 997 977 997 977 997 582 c 2,20,-1
 997 0 l 1,21,-1
 762 0 l 1,22,-1
 762 86 l 1,23,24
 702 35 702 35 619 5 c 128,-1,25
 536 -25 536 -25 454 -25 c 0,26,27
 281 -25 281 -25 199 53 c 128,-1,28
 117 131 117 131 117 254 c 0,4,5
370 350 m 1,29,30
 345 318 345 318 345 264.5 c 128,-1,31
 345 211 345 211 386.5 180.5 c 128,-1,32
 428 150 428 150 500 150 c 0,33,34
 629 150 629 150 697.5 227.5 c 128,-1,35
 766 305 766 305 766 418 c 1,36,-1
 672 418 l 2,37,38
 426 418 426 418 370 350 c 1,29,30
EndSplineSet
EndChar

StartChar: aacute
Encoding: 225 225 165
Width: 1126
GlyphClass: 2
Flags: W
LayerCount: 2
Fore
SplineSet
531 1019 m 1,0,-1
 415 1076 l 1,1,-1
 573 1446 l 1,2,-1
 743 1350 l 1,3,-1
 531 1019 l 1,0,-1
117 254 m 0,4,5
 117 407 117 407 246.5 498.5 c 128,-1,6
 376 590 376 590 624 590 c 2,7,-1
 760 590 l 1,8,9
 759 698 759 698 712 747.5 c 128,-1,10
 665 797 665 797 567.5 797 c 128,-1,11
 470 797 470 797 355 717 c 0,12,13
 347 712 347 712 336 694.5 c 128,-1,14
 325 677 325 677 307 665 c 1,15,-1
 175 821 l 1,16,17
 339 977 339 977 572 977 c 0,18,19
 997 977 997 977 997 582 c 2,20,-1
 997 0 l 1,21,-1
 762 0 l 1,22,-1
 762 86 l 1,23,24
 702 35 702 35 619 5 c 128,-1,25
 536 -25 536 -25 454 -25 c 0,26,27
 281 -25 281 -25 199 53 c 128,-1,28
 117 131 117 131 117 254 c 0,4,5
370 350 m 1,29,30
 345 318 345 318 345 264.5 c 128,-1,31
 345 211 345 211 386.5 180.5 c 128,-1,32
 428 150 428 150 500 150 c 0,33,34
 629 150 629 150 697.5 227.5 c 128,-1,35
 766 305 766 305 766 418 c 1,36,-1
 672 418 l 2,37,38
 426 418 426 418 370 350 c 1,29,30
EndSplineSet
EndChar

StartChar: acircumflex
Encoding: 226 226 166
Width: 1126
GlyphClass: 2
Flags: W
LayerCount: 2
Fore
SplineSet
404 1058 m 1,0,-1
 289 1139 l 1,1,-1
 544 1456 l 1,2,-1
 618 1456 l 1,3,-1
 874 1137 l 1,4,-1
 753 1054 l 1,5,-1
 641 1187 l 1,6,-1
 580 1279 l 1,7,-1
 512 1185 l 1,8,-1
 404 1058 l 1,0,-1
117 254 m 0,9,10
 117 407 117 407 246.5 498.5 c 128,-1,11
 376 590 376 590 624 590 c 2,12,-1
 760 590 l 1,13,14
 759 698 759 698 712 747.5 c 128,-1,15
 665 797 665 797 567.5 797 c 128,-1,16
 470 797 470 797 355 717 c 0,17,18
 347 712 347 712 336 694.5 c 128,-1,19
 325 677 325 677 307 665 c 1,20,-1
 175 821 l 1,21,22
 339 977 339 977 572 977 c 0,23,24
 997 977 997 977 997 582 c 2,25,-1
 997 0 l 1,26,-1
 762 0 l 1,27,-1
 762 86 l 1,28,29
 702 35 702 35 619 5 c 128,-1,30
 536 -25 536 -25 454 -25 c 0,31,32
 281 -25 281 -25 199 53 c 128,-1,33
 117 131 117 131 117 254 c 0,9,10
370 350 m 1,34,35
 345 318 345 318 345 264.5 c 128,-1,36
 345 211 345 211 386.5 180.5 c 128,-1,37
 428 150 428 150 500 150 c 0,38,39
 629 150 629 150 697.5 227.5 c 128,-1,40
 766 305 766 305 766 418 c 1,41,-1
 672 418 l 2,42,43
 426 418 426 418 370 350 c 1,34,35
EndSplineSet
EndChar

StartChar: atilde
Encoding: 227 227 167
Width: 1126
GlyphClass: 2
Flags: W
LayerCount: 2
Fore
SplineSet
334.5 1372 m 128,-1,1
 388 1420 388 1420 441.5 1420 c 128,-1,2
 495 1420 495 1420 552.5 1388.5 c 128,-1,3
 610 1357 610 1357 658.5 1325.5 c 128,-1,4
 707 1294 707 1294 731.5 1294 c 128,-1,5
 756 1294 756 1294 780 1315.5 c 128,-1,6
 804 1337 804 1337 836 1385 c 1,7,-1
 943 1295 l 1,8,9
 927 1273 927 1273 909 1246 c 128,-1,10
 891 1219 891 1219 878 1201.5 c 128,-1,11
 865 1184 865 1184 858.5 1177 c 128,-1,12
 852 1170 852 1170 841 1158.5 c 128,-1,13
 830 1147 830 1147 822 1142.5 c 128,-1,14
 814 1138 814 1138 803 1132 c 0,15,16
 784 1123 784 1123 755 1123 c 128,-1,17
 726 1123 726 1123 670.5 1157.5 c 128,-1,18
 615 1192 615 1192 558 1226 c 128,-1,19
 501 1260 501 1260 466 1260 c 128,-1,20
 431 1260 431 1260 401.5 1236.5 c 128,-1,21
 372 1213 372 1213 323 1141 c 1,22,-1
 215 1217 l 1,23,0
 281 1324 281 1324 334.5 1372 c 128,-1,1
117 254 m 0,24,25
 117 407 117 407 246.5 498.5 c 128,-1,26
 376 590 376 590 624 590 c 2,27,-1
 760 590 l 1,28,29
 759 698 759 698 712 747.5 c 128,-1,30
 665 797 665 797 567.5 797 c 128,-1,31
 470 797 470 797 355 717 c 0,32,33
 347 712 347 712 336 694.5 c 128,-1,34
 325 677 325 677 307 665 c 1,35,-1
 175 821 l 1,36,37
 339 977 339 977 572 977 c 0,38,39
 997 977 997 977 997 582 c 2,40,-1
 997 0 l 1,41,-1
 762 0 l 1,42,-1
 762 86 l 1,43,44
 702 35 702 35 619 5 c 128,-1,45
 536 -25 536 -25 454 -25 c 0,46,47
 281 -25 281 -25 199 53 c 128,-1,48
 117 131 117 131 117 254 c 0,24,25
370 350 m 1,49,50
 345 318 345 318 345 264.5 c 128,-1,51
 345 211 345 211 386.5 180.5 c 128,-1,52
 428 150 428 150 500 150 c 0,53,54
 629 150 629 150 697.5 227.5 c 128,-1,55
 766 305 766 305 766 418 c 1,56,-1
 672 418 l 2,57,58
 426 418 426 418 370 350 c 1,49,50
EndSplineSet
EndChar

StartChar: adieresis
Encoding: 228 228 168
Width: 1126
GlyphClass: 2
Flags: W
LayerCount: 2
Fore
SplineSet
767 1122 m 128,-1,1
 709 1122 709 1122 667.5 1160.5 c 128,-1,2
 626 1199 626 1199 626 1253.5 c 128,-1,3
 626 1308 626 1308 667.5 1347 c 128,-1,4
 709 1386 709 1386 765.5 1386 c 128,-1,5
 822 1386 822 1386 865.5 1348.5 c 128,-1,6
 909 1311 909 1311 909 1255.5 c 128,-1,7
 909 1200 909 1200 867 1161 c 128,-1,0
 825 1122 825 1122 767 1122 c 128,-1,1
391 1122 m 128,-1,9
 333 1122 333 1122 291 1161 c 128,-1,10
 249 1200 249 1200 249 1253.5 c 128,-1,11
 249 1307 249 1307 291 1346.5 c 128,-1,12
 333 1386 333 1386 390 1386 c 128,-1,13
 447 1386 447 1386 490.5 1348.5 c 128,-1,14
 534 1311 534 1311 534 1255.5 c 128,-1,15
 534 1200 534 1200 491.5 1161 c 128,-1,8
 449 1122 449 1122 391 1122 c 128,-1,9
117 254 m 0,16,17
 117 407 117 407 246.5 498.5 c 128,-1,18
 376 590 376 590 624 590 c 2,19,-1
 760 590 l 1,20,21
 759 698 759 698 712 747.5 c 128,-1,22
 665 797 665 797 567.5 797 c 128,-1,23
 470 797 470 797 355 717 c 0,24,25
 347 712 347 712 336 694.5 c 128,-1,26
 325 677 325 677 307 665 c 1,27,-1
 175 821 l 1,28,29
 339 977 339 977 572 977 c 0,30,31
 997 977 997 977 997 582 c 2,32,-1
 997 0 l 1,33,-1
 762 0 l 1,34,-1
 762 86 l 1,35,36
 702 35 702 35 619 5 c 128,-1,37
 536 -25 536 -25 454 -25 c 0,38,39
 281 -25 281 -25 199 53 c 128,-1,40
 117 131 117 131 117 254 c 0,16,17
370 350 m 1,41,42
 345 318 345 318 345 264.5 c 128,-1,43
 345 211 345 211 386.5 180.5 c 128,-1,44
 428 150 428 150 500 150 c 0,45,46
 629 150 629 150 697.5 227.5 c 128,-1,47
 766 305 766 305 766 418 c 1,48,-1
 672 418 l 2,49,50
 426 418 426 418 370 350 c 1,41,42
EndSplineSet
EndChar

StartChar: aring
Encoding: 229 229 169
Width: 1126
GlyphClass: 2
Flags: W
LayerCount: 2
Fore
SplineSet
731.5 1128 m 128,-1,1
 671 1069 671 1069 578 1069 c 128,-1,2
 485 1069 485 1069 425.5 1128 c 128,-1,3
 366 1187 366 1187 366 1272.5 c 128,-1,4
 366 1358 366 1358 425.5 1417 c 128,-1,5
 485 1476 485 1476 578 1476 c 128,-1,6
 671 1476 671 1476 731.5 1417 c 128,-1,7
 792 1358 792 1358 792 1272.5 c 128,-1,0
 792 1187 792 1187 731.5 1128 c 128,-1,1
579 1190 m 128,-1,9
 617 1190 617 1190 638.5 1214 c 128,-1,10
 660 1238 660 1238 660 1275.5 c 128,-1,11
 660 1313 660 1313 638.5 1338 c 128,-1,12
 617 1363 617 1363 579 1363 c 128,-1,13
 541 1363 541 1363 519.5 1338 c 128,-1,14
 498 1313 498 1313 498 1275.5 c 128,-1,15
 498 1238 498 1238 519.5 1214 c 128,-1,8
 541 1190 541 1190 579 1190 c 128,-1,9
117 254 m 0,16,17
 117 407 117 407 246.5 498.5 c 128,-1,18
 376 590 376 590 624 590 c 2,19,-1
 760 590 l 1,20,21
 759 698 759 698 712 747.5 c 128,-1,22
 665 797 665 797 567.5 797 c 128,-1,23
 470 797 470 797 355 717 c 0,24,25
 347 712 347 712 336 694.5 c 128,-1,26
 325 677 325 677 307 665 c 1,27,-1
 175 821 l 1,28,29
 339 977 339 977 572 977 c 0,30,31
 997 977 997 977 997 582 c 2,32,-1
 997 0 l 1,33,-1
 762 0 l 1,34,-1
 762 86 l 1,35,36
 702 35 702 35 619 5 c 128,-1,37
 536 -25 536 -25 454 -25 c 0,38,39
 281 -25 281 -25 199 53 c 128,-1,40
 117 131 117 131 117 254 c 0,16,17
370 350 m 1,41,42
 345 318 345 318 345 264.5 c 128,-1,43
 345 211 345 211 386.5 180.5 c 128,-1,44
 428 150 428 150 500 150 c 0,45,46
 629 150 629 150 697.5 227.5 c 128,-1,47
 766 305 766 305 766 418 c 1,48,-1
 672 418 l 2,49,50
 426 418 426 418 370 350 c 1,41,42
EndSplineSet
EndChar

StartChar: ae
Encoding: 230 230 170
Width: 1126
GlyphClass: 2
Flags: W
LayerCount: 2
Fore
SplineSet
43 259 m 0,0,1
 43 408 43 408 158.5 502.5 c 128,-1,2
 274 597 274 597 472 602 c 1,3,4
 472 699 472 699 434 755 c 128,-1,5
 396 811 396 811 334 811 c 0,6,7
 232 811 232 811 165 708 c 1,8,-1
 55 842 l 1,9,10
 108 908 108 908 185 941.5 c 128,-1,11
 262 975 262 975 336.5 975 c 128,-1,12
 411 975 411 975 475 942 c 128,-1,13
 539 909 539 909 580 858 c 1,14,15
 670 975 670 975 808 975 c 128,-1,16
 946 975 946 975 1014.5 864.5 c 128,-1,17
 1083 754 1083 754 1083 555 c 2,18,-1
 1083 455 l 1,19,-1
 662 438 l 1,20,21
 662 274 662 274 702.5 208.5 c 128,-1,22
 743 143 743 143 830.5 143 c 128,-1,23
 918 143 918 143 985 248 c 1,24,-1
 1105 109 l 1,25,26
 987 -25 987 -25 826 -25 c 0,27,28
 749 -25 749 -25 684 15.5 c 128,-1,29
 619 56 619 56 574 130 c 1,30,31
 499 -25 499 -25 328 -25 c 0,32,33
 197 -25 197 -25 120 53.5 c 128,-1,34
 43 132 43 132 43 259 c 0,0,1
877 760 m 128,-1,36
 847 811 847 811 787.5 811 c 128,-1,37
 728 811 728 811 695 753 c 128,-1,38
 662 695 662 695 662 608 c 1,39,-1
 907 614 l 1,40,35
 907 709 907 709 877 760 c 128,-1,36
296 380 m 128,-1,42
 235 335 235 335 235 275 c 128,-1,43
 235 215 235 215 265 182.5 c 128,-1,44
 295 150 295 150 351 150 c 0,45,46
 422 150 422 150 450 208.5 c 128,-1,47
 478 267 478 267 478 430 c 1,48,41
 357 425 357 425 296 380 c 128,-1,42
EndSplineSet
EndChar

StartChar: ccedilla
Encoding: 231 231 171
Width: 1126
GlyphClass: 2
Flags: W
LayerCount: 2
Fore
SplineSet
539 -263 m 0,0,1
 607 -263 607 -263 607 -216 c 0,2,3
 607 -192 607 -192 592.5 -182 c 128,-1,4
 578 -172 578 -172 543 -172 c 2,5,-1
 443 -172 l 1,6,-1
 466 -17 l 1,7,8
 310 24 310 24 216.5 156 c 128,-1,9
 123 288 123 288 123 469 c 0,10,11
 123 612 123 612 179.5 726.5 c 128,-1,12
 236 841 236 841 346 909 c 128,-1,13
 456 977 456 977 590 977 c 128,-1,14
 724 977 724 977 825 929.5 c 128,-1,15
 926 882 926 882 985 793 c 1,16,-1
 836 620 l 1,17,18
 824 631 824 631 820.5 651 c 128,-1,19
 817 671 817 671 810 681 c 0,20,21
 729 791 729 791 606.5 791 c 128,-1,22
 484 791 484 791 417 707 c 128,-1,23
 350 623 350 623 350 474.5 c 128,-1,24
 350 326 350 326 419.5 238.5 c 128,-1,25
 489 151 489 151 604 151 c 0,26,27
 663 151 663 151 725.5 186.5 c 128,-1,28
 788 222 788 222 844 291 c 1,29,-1
 977 137 l 1,30,31
 838 -21 838 -21 627 -32 c 1,32,-1
 623 -63 l 1,33,34
 698 -70 698 -70 740.5 -109 c 128,-1,35
 783 -148 783 -148 783 -206 c 0,36,37
 783 -281 783 -281 714.5 -340 c 128,-1,38
 646 -399 646 -399 524 -399 c 0,39,40
 380 -399 380 -399 262 -309 c 1,41,-1
 329 -185 l 1,42,43
 426 -263 426 -263 539 -263 c 0,0,1
EndSplineSet
EndChar

StartChar: egrave
Encoding: 232 232 172
Width: 1126
GlyphClass: 2
Flags: W
LayerCount: 2
Fore
SplineSet
608 1019 m 1,0,-1
 396 1350 l 1,1,-1
 566 1446 l 1,2,-1
 724 1076 l 1,3,-1
 608 1019 l 1,0,-1
228.5 100.5 m 128,-1,5
 91 234 91 234 91 467 c 128,-1,6
 91 700 91 700 221.5 838.5 c 128,-1,7
 352 977 352 977 565 977 c 0,8,9
 760 977 760 977 875 856.5 c 128,-1,10
 990 736 990 736 990 516 c 0,11,12
 990 482 990 482 983 414 c 1,13,-1
 332 414 l 1,14,15
 347 285 347 285 421.5 217.5 c 128,-1,16
 496 150 496 150 601 150 c 0,17,18
 672 150 672 150 741.5 180 c 128,-1,19
 811 210 811 210 858 266 c 1,20,-1
 997 139 l 1,21,22
 836 -33 836 -33 601 -33 c 128,-1,4
 366 -33 366 -33 228.5 100.5 c 128,-1,5
767 582 m 1,23,24
 767 675 767 675 710 736 c 128,-1,25
 653 797 653 797 558.5 797 c 128,-1,26
 464 797 464 797 407.5 740.5 c 128,-1,27
 351 684 351 684 340 582 c 1,28,-1
 767 582 l 1,23,24
EndSplineSet
EndChar

StartChar: eacute
Encoding: 233 233 173
Width: 1126
GlyphClass: 2
Flags: W
LayerCount: 2
Fore
SplineSet
515 1019 m 1,0,-1
 399 1076 l 1,1,-1
 557 1446 l 1,2,-1
 727 1350 l 1,3,-1
 515 1019 l 1,0,-1
228.5 100.5 m 128,-1,5
 91 234 91 234 91 467 c 128,-1,6
 91 700 91 700 221.5 838.5 c 128,-1,7
 352 977 352 977 565 977 c 0,8,9
 760 977 760 977 875 856.5 c 128,-1,10
 990 736 990 736 990 516 c 0,11,12
 990 482 990 482 983 414 c 1,13,-1
 332 414 l 1,14,15
 347 285 347 285 421.5 217.5 c 128,-1,16
 496 150 496 150 601 150 c 0,17,18
 672 150 672 150 741.5 180 c 128,-1,19
 811 210 811 210 858 266 c 1,20,-1
 997 139 l 1,21,22
 836 -33 836 -33 601 -33 c 128,-1,4
 366 -33 366 -33 228.5 100.5 c 128,-1,5
767 582 m 1,23,24
 767 675 767 675 710 736 c 128,-1,25
 653 797 653 797 558.5 797 c 128,-1,26
 464 797 464 797 407.5 740.5 c 128,-1,27
 351 684 351 684 340 582 c 1,28,-1
 767 582 l 1,23,24
EndSplineSet
EndChar

StartChar: ecircumflex
Encoding: 234 234 174
Width: 1126
GlyphClass: 2
Flags: W
LayerCount: 2
Fore
SplineSet
388 1058 m 1,0,-1
 273 1139 l 1,1,-1
 528 1456 l 1,2,-1
 602 1456 l 1,3,-1
 858 1137 l 1,4,-1
 737 1054 l 1,5,-1
 625 1187 l 1,6,-1
 564 1279 l 1,7,-1
 496 1185 l 1,8,-1
 388 1058 l 1,0,-1
228.5 100.5 m 128,-1,10
 91 234 91 234 91 467 c 128,-1,11
 91 700 91 700 221.5 838.5 c 128,-1,12
 352 977 352 977 565 977 c 0,13,14
 760 977 760 977 875 856.5 c 128,-1,15
 990 736 990 736 990 516 c 0,16,17
 990 482 990 482 983 414 c 1,18,-1
 332 414 l 1,19,20
 347 285 347 285 421.5 217.5 c 128,-1,21
 496 150 496 150 601 150 c 0,22,23
 672 150 672 150 741.5 180 c 128,-1,24
 811 210 811 210 858 266 c 1,25,-1
 997 139 l 1,26,27
 836 -33 836 -33 601 -33 c 128,-1,9
 366 -33 366 -33 228.5 100.5 c 128,-1,10
767 582 m 1,28,29
 767 675 767 675 710 736 c 128,-1,30
 653 797 653 797 558.5 797 c 128,-1,31
 464 797 464 797 407.5 740.5 c 128,-1,32
 351 684 351 684 340 582 c 1,33,-1
 767 582 l 1,28,29
EndSplineSet
EndChar

StartChar: edieresis
Encoding: 235 235 175
Width: 1126
GlyphClass: 2
Flags: W
LayerCount: 2
Fore
SplineSet
751 1122 m 128,-1,1
 693 1122 693 1122 651.5 1160.5 c 128,-1,2
 610 1199 610 1199 610 1253.5 c 128,-1,3
 610 1308 610 1308 651.5 1347 c 128,-1,4
 693 1386 693 1386 749.5 1386 c 128,-1,5
 806 1386 806 1386 849.5 1348.5 c 128,-1,6
 893 1311 893 1311 893 1255.5 c 128,-1,7
 893 1200 893 1200 851 1161 c 128,-1,0
 809 1122 809 1122 751 1122 c 128,-1,1
375 1122 m 128,-1,9
 317 1122 317 1122 275 1161 c 128,-1,10
 233 1200 233 1200 233 1253.5 c 128,-1,11
 233 1307 233 1307 275 1346.5 c 128,-1,12
 317 1386 317 1386 374 1386 c 128,-1,13
 431 1386 431 1386 474.5 1348.5 c 128,-1,14
 518 1311 518 1311 518 1255.5 c 128,-1,15
 518 1200 518 1200 475.5 1161 c 128,-1,8
 433 1122 433 1122 375 1122 c 128,-1,9
228.5 100.5 m 128,-1,17
 91 234 91 234 91 467 c 128,-1,18
 91 700 91 700 221.5 838.5 c 128,-1,19
 352 977 352 977 565 977 c 0,20,21
 760 977 760 977 875 856.5 c 128,-1,22
 990 736 990 736 990 516 c 0,23,24
 990 482 990 482 983 414 c 1,25,-1
 332 414 l 1,26,27
 347 285 347 285 421.5 217.5 c 128,-1,28
 496 150 496 150 601 150 c 0,29,30
 672 150 672 150 741.5 180 c 128,-1,31
 811 210 811 210 858 266 c 1,32,-1
 997 139 l 1,33,34
 836 -33 836 -33 601 -33 c 128,-1,16
 366 -33 366 -33 228.5 100.5 c 128,-1,17
767 582 m 1,35,36
 767 675 767 675 710 736 c 128,-1,37
 653 797 653 797 558.5 797 c 128,-1,38
 464 797 464 797 407.5 740.5 c 128,-1,39
 351 684 351 684 340 582 c 1,40,-1
 767 582 l 1,35,36
EndSplineSet
EndChar

StartChar: igrave
Encoding: 236 236 176
Width: 1126
GlyphClass: 2
Flags: W
LayerCount: 2
Fore
SplineSet
504 1029 m 1,0,-1
 279 1328 l 1,1,-1
 455 1432 l 1,2,-1
 620 1088 l 1,3,-1
 504 1029 l 1,0,-1
173 0 m 1,4,-1
 173 186 l 1,5,-1
 448 186 l 1,6,-1
 448 770 l 1,7,-1
 178 770 l 1,8,-1
 178 956 l 1,9,-1
 679 956 l 1,10,-1
 679 186 l 1,11,-1
 954 186 l 1,12,-1
 954 0 l 1,13,-1
 173 0 l 1,4,-1
EndSplineSet
EndChar

StartChar: iacute
Encoding: 237 237 177
Width: 1126
GlyphClass: 2
Flags: W
LayerCount: 2
Fore
SplineSet
504 1019 m 1,0,-1
 388 1076 l 1,1,-1
 546 1446 l 1,2,-1
 716 1350 l 1,3,-1
 504 1019 l 1,0,-1
173 0 m 1,4,-1
 173 186 l 1,5,-1
 448 186 l 1,6,-1
 448 770 l 1,7,-1
 178 770 l 1,8,-1
 178 956 l 1,9,-1
 679 956 l 1,10,-1
 679 186 l 1,11,-1
 954 186 l 1,12,-1
 954 0 l 1,13,-1
 173 0 l 1,4,-1
EndSplineSet
EndChar

StartChar: icircumflex
Encoding: 238 238 178
Width: 1126
GlyphClass: 2
Flags: W
LayerCount: 2
Fore
SplineSet
377 1058 m 1,0,-1
 262 1139 l 1,1,-1
 517 1456 l 1,2,-1
 591 1456 l 1,3,-1
 847 1137 l 1,4,-1
 726 1054 l 1,5,-1
 614 1187 l 1,6,-1
 553 1279 l 1,7,-1
 485 1185 l 1,8,-1
 377 1058 l 1,0,-1
173 0 m 1,9,-1
 173 186 l 1,10,-1
 448 186 l 1,11,-1
 448 770 l 1,12,-1
 178 770 l 1,13,-1
 178 956 l 1,14,-1
 679 956 l 1,15,-1
 679 186 l 1,16,-1
 954 186 l 1,17,-1
 954 0 l 1,18,-1
 173 0 l 1,9,-1
EndSplineSet
EndChar

StartChar: idieresis
Encoding: 239 239 179
Width: 1126
GlyphClass: 2
Flags: W
LayerCount: 2
Fore
SplineSet
740 1122 m 128,-1,1
 682 1122 682 1122 640.5 1160.5 c 128,-1,2
 599 1199 599 1199 599 1253.5 c 128,-1,3
 599 1308 599 1308 640.5 1347 c 128,-1,4
 682 1386 682 1386 738.5 1386 c 128,-1,5
 795 1386 795 1386 838.5 1348.5 c 128,-1,6
 882 1311 882 1311 882 1255.5 c 128,-1,7
 882 1200 882 1200 840 1161 c 128,-1,0
 798 1122 798 1122 740 1122 c 128,-1,1
364 1122 m 128,-1,9
 306 1122 306 1122 264 1161 c 128,-1,10
 222 1200 222 1200 222 1253.5 c 128,-1,11
 222 1307 222 1307 264 1346.5 c 128,-1,12
 306 1386 306 1386 363 1386 c 128,-1,13
 420 1386 420 1386 463.5 1348.5 c 128,-1,14
 507 1311 507 1311 507 1255.5 c 128,-1,15
 507 1200 507 1200 464.5 1161 c 128,-1,8
 422 1122 422 1122 364 1122 c 128,-1,9
173 0 m 1,16,-1
 173 186 l 1,17,-1
 448 186 l 1,18,-1
 448 770 l 1,19,-1
 178 770 l 1,20,-1
 178 956 l 1,21,-1
 679 956 l 1,22,-1
 679 186 l 1,23,-1
 954 186 l 1,24,-1
 954 0 l 1,25,-1
 173 0 l 1,16,-1
EndSplineSet
EndChar

StartChar: eth
Encoding: 240 240 180
Width: 1126
GlyphClass: 2
Flags: W
LayerCount: 2
Fore
SplineSet
76 457 m 0,0,1
 76 594 76 594 123.5 709 c 128,-1,2
 171 824 171 824 263.5 894.5 c 128,-1,3
 356 965 356 965 476 965 c 0,4,5
 540 965 540 965 598 944.5 c 128,-1,6
 656 924 656 924 694 889 c 1,7,8
 644 996 644 996 548 1102 c 1,9,-1
 358 1026 l 1,10,-1
 285 1157 l 1,11,-1
 438 1215 l 1,12,13
 350 1301 350 1301 267 1346 c 1,14,-1
 451 1430 l 1,15,16
 481 1405 481 1405 538.5 1361 c 128,-1,17
 596 1317 596 1317 629 1288 c 1,18,-1
 825 1363 l 1,19,-1
 893 1241 l 1,20,-1
 740 1180 l 1,21,22
 835 1071 835 1071 899 900.5 c 128,-1,23
 963 730 963 730 963 514 c 0,24,25
 963 264 963 264 849.5 115.5 c 128,-1,26
 736 -33 736 -33 522 -33 c 0,27,28
 330 -33 330 -33 203 107 c 128,-1,29
 76 247 76 247 76 457 c 0,0,1
370.5 244 m 128,-1,31
 430 154 430 154 525 154 c 128,-1,32
 620 154 620 154 676.5 236 c 128,-1,33
 733 318 733 318 733 473.5 c 128,-1,34
 733 629 733 629 673.5 704.5 c 128,-1,35
 614 780 614 780 522.5 780 c 128,-1,36
 431 780 431 780 371 699 c 128,-1,37
 311 618 311 618 311 476 c 128,-1,30
 311 334 311 334 370.5 244 c 128,-1,31
EndSplineSet
EndChar

StartChar: ntilde
Encoding: 241 241 181
Width: 1126
GlyphClass: 2
Flags: W
LayerCount: 2
Fore
SplineSet
394.5 1372 m 128,-1,1
 448 1420 448 1420 501.5 1420 c 128,-1,2
 555 1420 555 1420 612.5 1388.5 c 128,-1,3
 670 1357 670 1357 718.5 1325.5 c 128,-1,4
 767 1294 767 1294 791.5 1294 c 128,-1,5
 816 1294 816 1294 840 1315.5 c 128,-1,6
 864 1337 864 1337 896 1385 c 1,7,-1
 1003 1295 l 1,8,9
 987 1273 987 1273 969 1246 c 128,-1,10
 951 1219 951 1219 938 1201.5 c 128,-1,11
 925 1184 925 1184 918.5 1177 c 128,-1,12
 912 1170 912 1170 901 1158.5 c 128,-1,13
 890 1147 890 1147 882 1142.5 c 128,-1,14
 874 1138 874 1138 863 1132 c 0,15,16
 844 1123 844 1123 815 1123 c 128,-1,17
 786 1123 786 1123 730.5 1157.5 c 128,-1,18
 675 1192 675 1192 618 1226 c 128,-1,19
 561 1260 561 1260 526 1260 c 128,-1,20
 491 1260 491 1260 461.5 1236.5 c 128,-1,21
 432 1213 432 1213 383 1141 c 1,22,-1
 275 1217 l 1,23,0
 341 1324 341 1324 394.5 1372 c 128,-1,1
123 0 m 1,24,-1
 123 956 l 1,25,-1
 354 956 l 1,26,-1
 354 848 l 1,27,28
 502 977 502 977 714 977 c 0,29,30
 851 977 851 977 924 895.5 c 128,-1,31
 997 814 997 814 997 630 c 2,32,-1
 997 0 l 1,33,-1
 766 0 l 1,34,-1
 766 628 l 2,35,36
 766 788 766 788 629 788 c 0,37,38
 531 788 531 788 442.5 723.5 c 128,-1,39
 354 659 354 659 354 573 c 2,40,-1
 354 0 l 1,41,-1
 123 0 l 1,24,-1
EndSplineSet
EndChar

StartChar: ograve
Encoding: 242 242 182
Width: 1126
GlyphClass: 2
Flags: W
LayerCount: 2
Fore
SplineSet
529 1029 m 1,0,-1
 304 1328 l 1,1,-1
 480 1432 l 1,2,-1
 645 1088 l 1,3,-1
 529 1029 l 1,0,-1
216.5 99.5 m 128,-1,5
 91 232 91 232 91 470 c 128,-1,6
 91 708 91 708 217.5 842.5 c 128,-1,7
 344 977 344 977 566.5 977 c 128,-1,8
 789 977 789 977 911 844 c 128,-1,9
 1033 711 1033 711 1033 472.5 c 128,-1,10
 1033 234 1033 234 910.5 100.5 c 128,-1,11
 788 -33 788 -33 565 -33 c 128,-1,4
 342 -33 342 -33 216.5 99.5 c 128,-1,5
390 709.5 m 128,-1,13
 328 626 328 626 328 474.5 c 128,-1,14
 328 323 328 323 391.5 237 c 128,-1,15
 455 151 455 151 565.5 151 c 128,-1,16
 676 151 676 151 736 235 c 128,-1,17
 796 319 796 319 796 470.5 c 128,-1,18
 796 622 796 622 735 707.5 c 128,-1,19
 674 793 674 793 563 793 c 128,-1,12
 452 793 452 793 390 709.5 c 128,-1,13
EndSplineSet
EndChar

StartChar: oacute
Encoding: 243 243 183
Width: 1126
GlyphClass: 2
Flags: W
LayerCount: 2
Fore
SplineSet
529 1019 m 1,0,-1
 413 1076 l 1,1,-1
 571 1446 l 1,2,-1
 741 1350 l 1,3,-1
 529 1019 l 1,0,-1
216.5 99.5 m 128,-1,5
 91 232 91 232 91 470 c 128,-1,6
 91 708 91 708 217.5 842.5 c 128,-1,7
 344 977 344 977 566.5 977 c 128,-1,8
 789 977 789 977 911 844 c 128,-1,9
 1033 711 1033 711 1033 472.5 c 128,-1,10
 1033 234 1033 234 910.5 100.5 c 128,-1,11
 788 -33 788 -33 565 -33 c 128,-1,4
 342 -33 342 -33 216.5 99.5 c 128,-1,5
390 709.5 m 128,-1,13
 328 626 328 626 328 474.5 c 128,-1,14
 328 323 328 323 391.5 237 c 128,-1,15
 455 151 455 151 565.5 151 c 128,-1,16
 676 151 676 151 736 235 c 128,-1,17
 796 319 796 319 796 470.5 c 128,-1,18
 796 622 796 622 735 707.5 c 128,-1,19
 674 793 674 793 563 793 c 128,-1,12
 452 793 452 793 390 709.5 c 128,-1,13
EndSplineSet
EndChar

StartChar: ocircumflex
Encoding: 244 244 184
Width: 1126
GlyphClass: 2
Flags: W
LayerCount: 2
Fore
SplineSet
402 1058 m 1,0,-1
 287 1139 l 1,1,-1
 542 1456 l 1,2,-1
 616 1456 l 1,3,-1
 872 1137 l 1,4,-1
 751 1054 l 1,5,-1
 639 1187 l 1,6,-1
 578 1279 l 1,7,-1
 510 1185 l 1,8,-1
 402 1058 l 1,0,-1
216.5 99.5 m 128,-1,10
 91 232 91 232 91 470 c 128,-1,11
 91 708 91 708 217.5 842.5 c 128,-1,12
 344 977 344 977 566.5 977 c 128,-1,13
 789 977 789 977 911 844 c 128,-1,14
 1033 711 1033 711 1033 472.5 c 128,-1,15
 1033 234 1033 234 910.5 100.5 c 128,-1,16
 788 -33 788 -33 565 -33 c 128,-1,9
 342 -33 342 -33 216.5 99.5 c 128,-1,10
390 709.5 m 128,-1,18
 328 626 328 626 328 474.5 c 128,-1,19
 328 323 328 323 391.5 237 c 128,-1,20
 455 151 455 151 565.5 151 c 128,-1,21
 676 151 676 151 736 235 c 128,-1,22
 796 319 796 319 796 470.5 c 128,-1,23
 796 622 796 622 735 707.5 c 128,-1,24
 674 793 674 793 563 793 c 128,-1,17
 452 793 452 793 390 709.5 c 128,-1,18
EndSplineSet
EndChar

StartChar: otilde
Encoding: 245 245 185
Width: 1126
GlyphClass: 2
Flags: W
LayerCount: 2
Fore
SplineSet
332.5 1372 m 128,-1,1
 386 1420 386 1420 439.5 1420 c 128,-1,2
 493 1420 493 1420 550.5 1388.5 c 128,-1,3
 608 1357 608 1357 656.5 1325.5 c 128,-1,4
 705 1294 705 1294 729.5 1294 c 128,-1,5
 754 1294 754 1294 778 1315.5 c 128,-1,6
 802 1337 802 1337 834 1385 c 1,7,-1
 941 1295 l 1,8,9
 925 1273 925 1273 907 1246 c 128,-1,10
 889 1219 889 1219 876 1201.5 c 128,-1,11
 863 1184 863 1184 856.5 1177 c 128,-1,12
 850 1170 850 1170 839 1158.5 c 128,-1,13
 828 1147 828 1147 820 1142.5 c 128,-1,14
 812 1138 812 1138 801 1132 c 0,15,16
 782 1123 782 1123 753 1123 c 128,-1,17
 724 1123 724 1123 668.5 1157.5 c 128,-1,18
 613 1192 613 1192 556 1226 c 128,-1,19
 499 1260 499 1260 464 1260 c 128,-1,20
 429 1260 429 1260 399.5 1236.5 c 128,-1,21
 370 1213 370 1213 321 1141 c 1,22,-1
 213 1217 l 1,23,0
 279 1324 279 1324 332.5 1372 c 128,-1,1
216.5 99.5 m 128,-1,25
 91 232 91 232 91 470 c 128,-1,26
 91 708 91 708 217.5 842.5 c 128,-1,27
 344 977 344 977 566.5 977 c 128,-1,28
 789 977 789 977 911 844 c 128,-1,29
 1033 711 1033 711 1033 472.5 c 128,-1,30
 1033 234 1033 234 910.5 100.5 c 128,-1,31
 788 -33 788 -33 565 -33 c 128,-1,24
 342 -33 342 -33 216.5 99.5 c 128,-1,25
390 709.5 m 128,-1,33
 328 626 328 626 328 474.5 c 128,-1,34
 328 323 328 323 391.5 237 c 128,-1,35
 455 151 455 151 565.5 151 c 128,-1,36
 676 151 676 151 736 235 c 128,-1,37
 796 319 796 319 796 470.5 c 128,-1,38
 796 622 796 622 735 707.5 c 128,-1,39
 674 793 674 793 563 793 c 128,-1,32
 452 793 452 793 390 709.5 c 128,-1,33
EndSplineSet
EndChar

StartChar: odieresis
Encoding: 246 246 186
Width: 1126
GlyphClass: 2
Flags: W
LayerCount: 2
Fore
SplineSet
765 1122 m 128,-1,1
 707 1122 707 1122 665.5 1160.5 c 128,-1,2
 624 1199 624 1199 624 1253.5 c 128,-1,3
 624 1308 624 1308 665.5 1347 c 128,-1,4
 707 1386 707 1386 763.5 1386 c 128,-1,5
 820 1386 820 1386 863.5 1348.5 c 128,-1,6
 907 1311 907 1311 907 1255.5 c 128,-1,7
 907 1200 907 1200 865 1161 c 128,-1,0
 823 1122 823 1122 765 1122 c 128,-1,1
389 1122 m 128,-1,9
 331 1122 331 1122 289 1161 c 128,-1,10
 247 1200 247 1200 247 1253.5 c 128,-1,11
 247 1307 247 1307 289 1346.5 c 128,-1,12
 331 1386 331 1386 388 1386 c 128,-1,13
 445 1386 445 1386 488.5 1348.5 c 128,-1,14
 532 1311 532 1311 532 1255.5 c 128,-1,15
 532 1200 532 1200 489.5 1161 c 128,-1,8
 447 1122 447 1122 389 1122 c 128,-1,9
216.5 99.5 m 128,-1,17
 91 232 91 232 91 470 c 128,-1,18
 91 708 91 708 217.5 842.5 c 128,-1,19
 344 977 344 977 566.5 977 c 128,-1,20
 789 977 789 977 911 844 c 128,-1,21
 1033 711 1033 711 1033 472.5 c 128,-1,22
 1033 234 1033 234 910.5 100.5 c 128,-1,23
 788 -33 788 -33 565 -33 c 128,-1,16
 342 -33 342 -33 216.5 99.5 c 128,-1,17
390 709.5 m 128,-1,25
 328 626 328 626 328 474.5 c 128,-1,26
 328 323 328 323 391.5 237 c 128,-1,27
 455 151 455 151 565.5 151 c 128,-1,28
 676 151 676 151 736 235 c 128,-1,29
 796 319 796 319 796 470.5 c 128,-1,30
 796 622 796 622 735 707.5 c 128,-1,31
 674 793 674 793 563 793 c 128,-1,24
 452 793 452 793 390 709.5 c 128,-1,25
EndSplineSet
EndChar

StartChar: divide
Encoding: 247 247 187
Width: 1126
GlyphClass: 2
Flags: W
LayerCount: 2
Fore
SplineSet
564 838 m 128,-1,1
 500 838 500 838 457.5 876.5 c 128,-1,2
 415 915 415 915 415 973.5 c 128,-1,3
 415 1032 415 1032 457.5 1071.5 c 128,-1,4
 500 1111 500 1111 564 1111 c 128,-1,5
 628 1111 628 1111 671 1071.5 c 128,-1,6
 714 1032 714 1032 714 973.5 c 128,-1,7
 714 915 714 915 671 876.5 c 128,-1,0
 628 838 628 838 564 838 c 128,-1,1
149 563 m 1,8,-1
 149 750 l 1,9,-1
 977 750 l 1,10,-1
 977 563 l 1,11,-1
 149 563 l 1,8,-1
457.5 246.5 m 128,-1,13
 415 285 415 285 415 343.5 c 128,-1,14
 415 402 415 402 457.5 441.5 c 128,-1,15
 500 481 500 481 564 481 c 128,-1,16
 628 481 628 481 671 441.5 c 128,-1,17
 714 402 714 402 714 343.5 c 128,-1,18
 714 285 714 285 671 246.5 c 128,-1,19
 628 208 628 208 564 208 c 128,-1,12
 500 208 500 208 457.5 246.5 c 128,-1,13
EndSplineSet
EndChar

StartChar: oslash
Encoding: 248 248 188
Width: 1126
GlyphClass: 2
Flags: W
LayerCount: 2
Fore
SplineSet
224 92 m 1,0,1
 91 225 91 225 91 466.5 c 128,-1,2
 91 708 91 708 217.5 842.5 c 128,-1,3
 344 977 344 977 570 977 c 0,4,5
 662 977 662 977 738 953 c 1,6,-1
 811 1076 l 1,7,-1
 950 1004 l 1,8,-1
 875 878 l 1,9,10
 1033 746 1033 746 1033 473 c 0,11,12
 1033 234 1033 234 910.5 100.5 c 128,-1,13
 788 -33 788 -33 568 -33 c 0,14,15
 449 -33 449 -33 355 5 c 1,16,-1
 277 -126 l 1,17,-1
 138 -53 l 1,18,-1
 224 92 l 1,0,1
564 793 m 0,19,20
 452 793 452 793 390 709.5 c 128,-1,21
 328 626 328 626 328 477 c 0,22,23
 328 381 328 381 354 309 c 1,24,-1
 636 782 l 1,25,26
 601 793 601 793 564 793 c 0,19,20
568 151 m 0,27,28
 676 151 676 151 736 235 c 128,-1,29
 796 319 796 319 796 456 c 128,-1,30
 796 593 796 593 754 675 c 1,31,-1
 458 178 l 1,32,33
 506 151 506 151 568 151 c 0,27,28
EndSplineSet
EndChar

StartChar: ugrave
Encoding: 249 249 189
Width: 1126
GlyphClass: 2
Flags: W
LayerCount: 2
Fore
SplineSet
492 1029 m 1,0,-1
 267 1328 l 1,1,-1
 443 1432 l 1,2,-1
 608 1088 l 1,3,-1
 492 1029 l 1,0,-1
118 326 m 2,4,-1
 118 956 l 1,5,-1
 349 956 l 1,6,-1
 349 328 l 2,7,8
 349 168 349 168 486 168 c 0,9,10
 584 168 584 168 672.5 232.5 c 128,-1,11
 761 297 761 297 761 383 c 2,12,-1
 761 956 l 1,13,-1
 992 956 l 1,14,-1
 992 0 l 1,15,-1
 761 0 l 1,16,-1
 761 108 l 1,17,18
 613 -21 613 -21 401 -21 c 0,19,20
 264 -21 264 -21 191 60.5 c 128,-1,21
 118 142 118 142 118 326 c 2,4,-1
EndSplineSet
EndChar

StartChar: uacute
Encoding: 250 250 190
Width: 1126
GlyphClass: 2
Flags: W
LayerCount: 2
Fore
SplineSet
559 1019 m 1,0,-1
 443 1076 l 1,1,-1
 601 1446 l 1,2,-1
 771 1350 l 1,3,-1
 559 1019 l 1,0,-1
118 326 m 2,4,-1
 118 956 l 1,5,-1
 349 956 l 1,6,-1
 349 328 l 2,7,8
 349 168 349 168 486 168 c 0,9,10
 584 168 584 168 672.5 232.5 c 128,-1,11
 761 297 761 297 761 383 c 2,12,-1
 761 956 l 1,13,-1
 992 956 l 1,14,-1
 992 0 l 1,15,-1
 761 0 l 1,16,-1
 761 108 l 1,17,18
 613 -21 613 -21 401 -21 c 0,19,20
 264 -21 264 -21 191 60.5 c 128,-1,21
 118 142 118 142 118 326 c 2,4,-1
EndSplineSet
EndChar

StartChar: ucircumflex
Encoding: 251 251 191
Width: 1126
GlyphClass: 2
Flags: W
LayerCount: 2
Fore
SplineSet
365 1058 m 1,0,-1
 250 1139 l 1,1,-1
 505 1456 l 1,2,-1
 579 1456 l 1,3,-1
 835 1137 l 1,4,-1
 714 1054 l 1,5,-1
 602 1187 l 1,6,-1
 541 1279 l 1,7,-1
 473 1185 l 1,8,-1
 365 1058 l 1,0,-1
118 326 m 2,9,-1
 118 956 l 1,10,-1
 349 956 l 1,11,-1
 349 328 l 2,12,13
 349 168 349 168 486 168 c 0,14,15
 584 168 584 168 672.5 232.5 c 128,-1,16
 761 297 761 297 761 383 c 2,17,-1
 761 956 l 1,18,-1
 992 956 l 1,19,-1
 992 0 l 1,20,-1
 761 0 l 1,21,-1
 761 108 l 1,22,23
 613 -21 613 -21 401 -21 c 0,24,25
 264 -21 264 -21 191 60.5 c 128,-1,26
 118 142 118 142 118 326 c 2,9,-1
EndSplineSet
EndChar

StartChar: udieresis
Encoding: 252 252 192
Width: 1126
GlyphClass: 2
Flags: W
LayerCount: 2
Fore
SplineSet
728 1122 m 128,-1,1
 670 1122 670 1122 628.5 1160.5 c 128,-1,2
 587 1199 587 1199 587 1253.5 c 128,-1,3
 587 1308 587 1308 628.5 1347 c 128,-1,4
 670 1386 670 1386 726.5 1386 c 128,-1,5
 783 1386 783 1386 826.5 1348.5 c 128,-1,6
 870 1311 870 1311 870 1255.5 c 128,-1,7
 870 1200 870 1200 828 1161 c 128,-1,0
 786 1122 786 1122 728 1122 c 128,-1,1
352 1122 m 128,-1,9
 294 1122 294 1122 252 1161 c 128,-1,10
 210 1200 210 1200 210 1253.5 c 128,-1,11
 210 1307 210 1307 252 1346.5 c 128,-1,12
 294 1386 294 1386 351 1386 c 128,-1,13
 408 1386 408 1386 451.5 1348.5 c 128,-1,14
 495 1311 495 1311 495 1255.5 c 128,-1,15
 495 1200 495 1200 452.5 1161 c 128,-1,8
 410 1122 410 1122 352 1122 c 128,-1,9
118 326 m 2,16,-1
 118 956 l 1,17,-1
 349 956 l 1,18,-1
 349 328 l 2,19,20
 349 168 349 168 486 168 c 0,21,22
 584 168 584 168 672.5 232.5 c 128,-1,23
 761 297 761 297 761 383 c 2,24,-1
 761 956 l 1,25,-1
 992 956 l 1,26,-1
 992 0 l 1,27,-1
 761 0 l 1,28,-1
 761 108 l 1,29,30
 613 -21 613 -21 401 -21 c 0,31,32
 264 -21 264 -21 191 60.5 c 128,-1,33
 118 142 118 142 118 326 c 2,16,-1
EndSplineSet
EndChar

StartChar: yacute
Encoding: 253 253 193
Width: 1126
GlyphClass: 2
Flags: W
LayerCount: 2
Fore
SplineSet
552 1019 m 1,0,-1
 436 1076 l 1,1,-1
 594 1446 l 1,2,-1
 764 1350 l 1,3,-1
 552 1019 l 1,0,-1
269 -176 m 0,4,5
 305 -176 305 -176 339 -156 c 128,-1,6
 373 -136 373 -136 398 -104 c 0,7,8
 450 -40 450 -40 472 27 c 1,9,-1
 88 956 l 1,10,-1
 363 956 l 1,11,12
 364 951 364 951 364 941.5 c 128,-1,13
 364 932 364 932 357 917 c 128,-1,14
 350 902 350 902 350 892.5 c 128,-1,15
 350 883 350 883 354 874 c 2,16,-1
 489 529 l 1,17,-1
 591 215 l 1,18,19
 692 437 692 437 766.5 653 c 128,-1,20
 841 869 841 869 841 956 c 1,21,-1
 1066 956 l 1,22,23
 1032 793 1032 793 966.5 634 c 128,-1,24
 901 475 901 475 633 -104 c 0,25,26
 570 -239 570 -239 484.5 -300.5 c 128,-1,27
 399 -362 399 -362 283 -362 c 0,28,29
 122 -362 122 -362 -7 -254 c 1,30,-1
 130 -48 l 1,31,32
 150 -64 150 -64 157 -90 c 128,-1,33
 164 -116 164 -116 171 -127 c 0,34,35
 202 -176 202 -176 269 -176 c 0,4,5
EndSplineSet
EndChar

StartChar: thorn
Encoding: 254 254 194
Width: 1126
GlyphClass: 2
Flags: W
LayerCount: 2
Fore
SplineSet
143 -330 m 1,0,-1
 143 1362 l 1,1,-1
 388 1362 l 1,2,3
 388 1341 388 1341 381 1315 c 128,-1,4
 374 1289 374 1289 374 1269 c 2,5,-1
 374 860 l 1,6,7
 419 924 419 924 493 955.5 c 128,-1,8
 567 987 567 987 647 987 c 128,-1,9
 727 987 727 987 799 957 c 128,-1,10
 871 927 871 927 927.5 869.5 c 128,-1,11
 984 812 984 812 1016.5 717.5 c 128,-1,12
 1049 623 1049 623 1049 503 c 0,13,14
 1049 241 1049 241 942 110 c 128,-1,15
 835 -21 835 -21 653 -21 c 0,16,17
 559 -21 559 -21 496.5 0 c 128,-1,18
 434 21 434 21 374 78 c 1,19,-1
 374 -330 l 1,20,-1
 143 -330 l 1,0,-1
374 469 m 0,21,22
 374 333 374 333 437 248 c 128,-1,23
 500 163 500 163 607.5 163 c 128,-1,24
 715 163 715 163 768 249.5 c 128,-1,25
 821 336 821 336 821 491 c 0,26,27
 821 664 821 664 754 737 c 0,28,29
 693 802 693 802 610 802 c 0,30,31
 507 802 507 802 440.5 722 c 128,-1,32
 374 642 374 642 374 469 c 0,21,22
EndSplineSet
EndChar

StartChar: ydieresis
Encoding: 255 255 195
Width: 1126
GlyphClass: 2
Flags: W
LayerCount: 2
Fore
SplineSet
788 1122 m 128,-1,1
 730 1122 730 1122 688.5 1160.5 c 128,-1,2
 647 1199 647 1199 647 1253.5 c 128,-1,3
 647 1308 647 1308 688.5 1347 c 128,-1,4
 730 1386 730 1386 786.5 1386 c 128,-1,5
 843 1386 843 1386 886.5 1348.5 c 128,-1,6
 930 1311 930 1311 930 1255.5 c 128,-1,7
 930 1200 930 1200 888 1161 c 128,-1,0
 846 1122 846 1122 788 1122 c 128,-1,1
412 1122 m 128,-1,9
 354 1122 354 1122 312 1161 c 128,-1,10
 270 1200 270 1200 270 1253.5 c 128,-1,11
 270 1307 270 1307 312 1346.5 c 128,-1,12
 354 1386 354 1386 411 1386 c 128,-1,13
 468 1386 468 1386 511.5 1348.5 c 128,-1,14
 555 1311 555 1311 555 1255.5 c 128,-1,15
 555 1200 555 1200 512.5 1161 c 128,-1,8
 470 1122 470 1122 412 1122 c 128,-1,9
269 -176 m 0,16,17
 305 -176 305 -176 339 -156 c 128,-1,18
 373 -136 373 -136 398 -104 c 0,19,20
 450 -40 450 -40 472 27 c 1,21,-1
 88 956 l 1,22,-1
 363 956 l 1,23,24
 364 951 364 951 364 941.5 c 128,-1,25
 364 932 364 932 357 917 c 128,-1,26
 350 902 350 902 350 892.5 c 128,-1,27
 350 883 350 883 354 874 c 2,28,-1
 489 529 l 1,29,-1
 591 215 l 1,30,31
 692 437 692 437 766.5 653 c 128,-1,32
 841 869 841 869 841 956 c 1,33,-1
 1066 956 l 1,34,35
 1032 793 1032 793 966.5 634 c 128,-1,36
 901 475 901 475 633 -104 c 0,37,38
 570 -239 570 -239 484.5 -300.5 c 128,-1,39
 399 -362 399 -362 283 -362 c 0,40,41
 122 -362 122 -362 -7 -254 c 1,42,-1
 130 -48 l 1,43,44
 150 -64 150 -64 157 -90 c 128,-1,45
 164 -116 164 -116 171 -127 c 0,46,47
 202 -176 202 -176 269 -176 c 0,16,17
EndSplineSet
EndChar

StartChar: Amacron
Encoding: 256 256 196
Width: 1126
GlyphClass: 2
Flags: W
LayerCount: 2
Fore
SplineSet
288 1453 m 1,0,-1
 288 1613 l 1,1,-1
 842 1613 l 1,2,-1
 842 1453 l 1,3,-1
 288 1453 l 1,0,-1
30 0 m 1,4,-1
 480 1298 l 1,5,-1
 625 1298 l 1,6,-1
 1086 0 l 1,7,-1
 856 0 l 1,8,-1
 748 319 l 1,9,-1
 357 319 l 1,10,-1
 258 0 l 1,11,-1
 30 0 l 1,4,-1
417 510 m 1,12,-1
 683 510 l 1,13,-1
 545 915 l 1,14,-1
 417 510 l 1,12,-1
EndSplineSet
EndChar

StartChar: amacron
Encoding: 257 257 197
Width: 1126
GlyphClass: 2
Flags: W
LayerCount: 2
Fore
SplineSet
304 1133 m 1,0,-1
 304 1293 l 1,1,-1
 858 1293 l 1,2,-1
 858 1133 l 1,3,-1
 304 1133 l 1,0,-1
117 254 m 0,4,5
 117 407 117 407 246.5 498.5 c 128,-1,6
 376 590 376 590 624 590 c 2,7,-1
 760 590 l 1,8,9
 759 698 759 698 712 747.5 c 128,-1,10
 665 797 665 797 567.5 797 c 128,-1,11
 470 797 470 797 355 717 c 0,12,13
 347 712 347 712 336 694.5 c 128,-1,14
 325 677 325 677 307 665 c 1,15,-1
 175 821 l 1,16,17
 339 977 339 977 572 977 c 0,18,19
 997 977 997 977 997 582 c 2,20,-1
 997 0 l 1,21,-1
 762 0 l 1,22,-1
 762 86 l 1,23,24
 702 35 702 35 619 5 c 128,-1,25
 536 -25 536 -25 454 -25 c 0,26,27
 281 -25 281 -25 199 53 c 128,-1,28
 117 131 117 131 117 254 c 0,4,5
370 350 m 1,29,30
 345 318 345 318 345 264.5 c 128,-1,31
 345 211 345 211 386.5 180.5 c 128,-1,32
 428 150 428 150 500 150 c 0,33,34
 629 150 629 150 697.5 227.5 c 128,-1,35
 766 305 766 305 766 418 c 1,36,-1
 672 418 l 2,37,38
 426 418 426 418 370 350 c 1,29,30
EndSplineSet
EndChar

StartChar: Abreve
Encoding: 258 258 198
Width: 1126
GlyphClass: 2
Flags: W
LayerCount: 2
Fore
SplineSet
741.5 1398.5 m 128,-1,1
 661 1363 661 1363 560 1363 c 128,-1,2
 459 1363 459 1363 381 1395.5 c 128,-1,3
 303 1428 303 1428 222 1513 c 1,4,-1
 341 1626 l 1,5,6
 383 1576 383 1576 444 1549 c 128,-1,7
 505 1522 505 1522 570 1522 c 0,8,9
 704 1522 704 1522 797 1625 c 1,10,-1
 890 1517 l 1,11,0
 822 1434 822 1434 741.5 1398.5 c 128,-1,1
30 0 m 1,12,-1
 480 1298 l 1,13,-1
 625 1298 l 1,14,-1
 1086 0 l 1,15,-1
 856 0 l 1,16,-1
 748 319 l 1,17,-1
 357 319 l 1,18,-1
 256 0 l 1,19,-1
 30 0 l 1,12,-1
417 510 m 1,20,-1
 683 510 l 1,21,-1
 545 915 l 1,22,-1
 417 510 l 1,20,-1
EndSplineSet
EndChar

StartChar: abreve
Encoding: 259 259 199
Width: 1126
GlyphClass: 2
Flags: W
LayerCount: 2
Fore
SplineSet
574 1061 m 0,0,1
 482 1061 482 1061 403.5 1101 c 128,-1,2
 325 1141 325 1141 239 1231 c 1,3,-1
 364 1352 l 1,4,5
 407 1292 407 1292 465.5 1259.5 c 128,-1,6
 524 1227 524 1227 584 1227 c 0,7,8
 709 1227 709 1227 808 1352 c 1,9,-1
 907 1235 l 1,10,11
 765 1061 765 1061 574 1061 c 0,0,1
117 254 m 0,12,13
 117 407 117 407 246.5 498.5 c 128,-1,14
 376 590 376 590 624 590 c 2,15,-1
 760 590 l 1,16,17
 759 698 759 698 712 747.5 c 128,-1,18
 665 797 665 797 567.5 797 c 128,-1,19
 470 797 470 797 355 717 c 0,20,21
 347 712 347 712 336 694.5 c 128,-1,22
 325 677 325 677 307 665 c 1,23,-1
 175 821 l 1,24,25
 339 977 339 977 572 977 c 0,26,27
 997 977 997 977 997 582 c 2,28,-1
 997 0 l 1,29,-1
 762 0 l 1,30,-1
 762 86 l 1,31,32
 702 35 702 35 619 5 c 128,-1,33
 536 -25 536 -25 454 -25 c 0,34,35
 281 -25 281 -25 199 53 c 128,-1,36
 117 131 117 131 117 254 c 0,12,13
370 350 m 1,37,38
 345 318 345 318 345 264.5 c 128,-1,39
 345 211 345 211 386.5 180.5 c 128,-1,40
 428 150 428 150 500 150 c 0,41,42
 629 150 629 150 697.5 227.5 c 128,-1,43
 766 305 766 305 766 418 c 1,44,-1
 672 418 l 2,45,46
 426 418 426 418 370 350 c 1,37,38
EndSplineSet
EndChar

StartChar: Aogonek
Encoding: 260 260 200
Width: 1126
GlyphClass: 2
Flags: W
LayerCount: 2
Fore
SplineSet
831 -179 m 0,0,1
 831 -231 831 -231 896 -231 c 0,2,3
 950 -231 950 -231 1015 -172 c 1,4,-1
 1015 -307 l 1,5,6
 929 -373 929 -373 836.5 -373 c 128,-1,7
 744 -373 744 -373 688.5 -331 c 128,-1,8
 633 -289 633 -289 633 -224 c 128,-1,9
 633 -159 633 -159 683.5 -106.5 c 128,-1,10
 734 -54 734 -54 856 0 c 1,11,-1
 748 319 l 1,12,-1
 357 319 l 1,13,-1
 256 0 l 1,14,-1
 30 0 l 1,15,-1
 480 1298 l 1,16,-1
 625 1298 l 1,17,-1
 1086 0 l 1,18,-1
 1085 0 l 1,19,20
 944 -44 944 -44 887.5 -88 c 128,-1,21
 831 -132 831 -132 831 -179 c 0,0,1
417 510 m 1,22,-1
 683 510 l 1,23,-1
 545 915 l 1,24,-1
 417 510 l 1,22,-1
EndSplineSet
EndChar

StartChar: aogonek
Encoding: 261 261 201
Width: 1126
GlyphClass: 2
Flags: W
LayerCount: 2
Fore
SplineSet
117 254 m 0,0,1
 117 407 117 407 246.5 498.5 c 128,-1,2
 376 590 376 590 624 590 c 2,3,-1
 760 590 l 1,4,5
 759 698 759 698 712 747.5 c 128,-1,6
 665 797 665 797 567.5 797 c 128,-1,7
 470 797 470 797 355 717 c 0,8,9
 347 712 347 712 336 694.5 c 128,-1,10
 325 677 325 677 307 665 c 1,11,-1
 175 821 l 1,12,13
 339 977 339 977 572 977 c 0,14,15
 997 977 997 977 997 582 c 2,16,-1
 997 0 l 1,17,18
 885 -23 885 -23 833.5 -71 c 128,-1,19
 782 -119 782 -119 782 -170 c 0,20,21
 782 -203 782 -203 798 -217 c 128,-1,22
 814 -231 814 -231 847 -231 c 0,23,24
 901 -231 901 -231 966 -172 c 1,25,-1
 966 -307 l 1,26,27
 880 -373 880 -373 787.5 -373 c 128,-1,28
 695 -373 695 -373 639.5 -331 c 128,-1,29
 584 -289 584 -289 584 -219 c 0,30,31
 584 -84 584 -84 763 0 c 1,32,-1
 762 86 l 1,33,34
 702 35 702 35 619 5 c 128,-1,35
 536 -25 536 -25 454 -25 c 0,36,37
 281 -25 281 -25 199 53 c 128,-1,38
 117 131 117 131 117 254 c 0,0,1
370 350 m 1,39,40
 345 318 345 318 345 264.5 c 128,-1,41
 345 211 345 211 386.5 180.5 c 128,-1,42
 428 150 428 150 500 150 c 0,43,44
 629 150 629 150 697.5 227.5 c 128,-1,45
 766 305 766 305 766 418 c 1,46,-1
 672 418 l 2,47,48
 426 418 426 418 370 350 c 1,39,40
EndSplineSet
EndChar

StartChar: Cacute
Encoding: 262 262 202
Width: 1126
GlyphClass: 2
Flags: W
LayerCount: 2
Fore
SplineSet
425 1349 m 1,0,-1
 370 1450 l 1,1,-1
 727 1693 l 1,2,-1
 829 1514 l 1,3,-1
 425 1349 l 1,0,-1
541 -37 m 0,4,5
 319 -37 319 -37 191 140.5 c 128,-1,6
 63 318 63 318 63 634.5 c 128,-1,7
 63 951 63 951 199 1130 c 128,-1,8
 335 1309 335 1309 577 1309 c 0,9,10
 734 1309 734 1309 829.5 1232.5 c 128,-1,11
 925 1156 925 1156 974 997 c 1,12,-1
 757 918 l 1,13,14
 745 939 745 939 744.5 971 c 128,-1,15
 744 1003 744 1003 736 1020 c 0,16,17
 716 1060 716 1060 674 1087.5 c 128,-1,18
 632 1115 632 1115 575 1115 c 0,19,20
 446 1115 446 1115 374.5 991 c 128,-1,21
 303 867 303 867 303 640 c 128,-1,22
 303 413 303 413 375.5 284.5 c 128,-1,23
 448 156 448 156 575 156 c 0,24,25
 648 156 648 156 702 197 c 128,-1,26
 756 238 756 238 799 326 c 1,27,-1
 973 213 l 1,28,29
 903 84 903 84 802 23.5 c 128,-1,30
 701 -37 701 -37 541 -37 c 0,4,5
EndSplineSet
EndChar

StartChar: cacute
Encoding: 263 263 203
Width: 1126
GlyphClass: 2
Flags: W
LayerCount: 2
Fore
SplineSet
464 1076 m 1,0,-1
 622 1446 l 1,1,-1
 792 1350 l 1,2,-1
 580 1019 l 1,3,-1
 464 1076 l 1,0,-1
123 469 m 0,4,5
 123 612 123 612 179.5 726.5 c 128,-1,6
 236 841 236 841 346 909 c 128,-1,7
 456 977 456 977 590 977 c 128,-1,8
 724 977 724 977 825 929.5 c 128,-1,9
 926 882 926 882 985 793 c 1,10,-1
 836 620 l 1,11,12
 824 631 824 631 820.5 651 c 128,-1,13
 817 671 817 671 810 681 c 0,14,15
 729 791 729 791 606.5 791 c 128,-1,16
 484 791 484 791 417 707 c 128,-1,17
 350 623 350 623 350 474.5 c 128,-1,18
 350 326 350 326 419.5 238.5 c 128,-1,19
 489 151 489 151 604 151 c 0,20,21
 663 151 663 151 725.5 186.5 c 128,-1,22
 788 222 788 222 844 291 c 1,23,-1
 977 137 l 1,24,25
 827 -33 827 -33 594 -33 c 0,26,27
 386 -33 386 -33 254.5 109 c 128,-1,28
 123 251 123 251 123 469 c 0,4,5
EndSplineSet
EndChar

StartChar: Ccircumflex
Encoding: 264 264 204
Width: 1126
GlyphClass: 2
Flags: W
LayerCount: 2
Fore
SplineSet
324 1325 m 1,0,-1
 254 1407 l 1,1,-1
 537 1648 l 1,2,-1
 600 1648 l 1,3,-1
 868 1411 l 1,4,-1
 790 1319 l 1,5,-1
 565 1474 l 1,6,-1
 324 1325 l 1,0,-1
541 -37 m 0,7,8
 319 -37 319 -37 191 140.5 c 128,-1,9
 63 318 63 318 63 634.5 c 128,-1,10
 63 951 63 951 199 1130 c 128,-1,11
 335 1309 335 1309 577 1309 c 0,12,13
 734 1309 734 1309 829.5 1232.5 c 128,-1,14
 925 1156 925 1156 974 997 c 1,15,-1
 757 918 l 1,16,17
 745 939 745 939 744.5 971 c 128,-1,18
 744 1003 744 1003 736 1020 c 0,19,20
 716 1060 716 1060 674 1087.5 c 128,-1,21
 632 1115 632 1115 575 1115 c 0,22,23
 446 1115 446 1115 374.5 991 c 128,-1,24
 303 867 303 867 303 640 c 128,-1,25
 303 413 303 413 375.5 284.5 c 128,-1,26
 448 156 448 156 575 156 c 0,27,28
 648 156 648 156 702 197 c 128,-1,29
 756 238 756 238 799 326 c 1,30,-1
 973 213 l 1,31,32
 903 84 903 84 802 23.5 c 128,-1,33
 701 -37 701 -37 541 -37 c 0,7,8
EndSplineSet
EndChar

StartChar: ccircumflex
Encoding: 265 265 205
Width: 1126
GlyphClass: 2
Flags: W
LayerCount: 2
Fore
SplineSet
423 1058 m 1,0,-1
 308 1139 l 1,1,-1
 563 1456 l 1,2,-1
 637 1456 l 1,3,-1
 893 1137 l 1,4,-1
 772 1054 l 1,5,-1
 660 1187 l 1,6,-1
 599 1279 l 1,7,-1
 531 1185 l 1,8,-1
 423 1058 l 1,0,-1
123 469 m 0,9,10
 123 612 123 612 179.5 726.5 c 128,-1,11
 236 841 236 841 346 909 c 128,-1,12
 456 977 456 977 590 977 c 128,-1,13
 724 977 724 977 825 929.5 c 128,-1,14
 926 882 926 882 985 793 c 1,15,-1
 836 620 l 1,16,17
 824 631 824 631 820.5 651 c 128,-1,18
 817 671 817 671 810 681 c 0,19,20
 729 791 729 791 606.5 791 c 128,-1,21
 484 791 484 791 417 707 c 128,-1,22
 350 623 350 623 350 474.5 c 128,-1,23
 350 326 350 326 419.5 238.5 c 128,-1,24
 489 151 489 151 604 151 c 0,25,26
 663 151 663 151 725.5 186.5 c 128,-1,27
 788 222 788 222 844 291 c 1,28,-1
 977 137 l 1,29,30
 827 -33 827 -33 594 -33 c 0,31,32
 386 -33 386 -33 254.5 109 c 128,-1,33
 123 251 123 251 123 469 c 0,9,10
EndSplineSet
EndChar

StartChar: Cdotaccent
Encoding: 266 266 206
Width: 1126
GlyphClass: 2
Flags: W
LayerCount: 2
Fore
SplineSet
663.5 1440 m 128,-1,1
 620 1401 620 1401 562 1401 c 128,-1,2
 504 1401 504 1401 461 1440 c 128,-1,3
 418 1479 418 1479 418 1532.5 c 128,-1,4
 418 1586 418 1586 458 1626.5 c 128,-1,5
 498 1667 498 1667 559 1667 c 128,-1,6
 620 1667 620 1667 663.5 1628 c 128,-1,7
 707 1589 707 1589 707 1534 c 128,-1,0
 707 1479 707 1479 663.5 1440 c 128,-1,1
541 -37 m 0,8,9
 319 -37 319 -37 191 140.5 c 128,-1,10
 63 318 63 318 63 634.5 c 128,-1,11
 63 951 63 951 199 1130 c 128,-1,12
 335 1309 335 1309 577 1309 c 0,13,14
 734 1309 734 1309 829.5 1232.5 c 128,-1,15
 925 1156 925 1156 974 997 c 1,16,-1
 757 918 l 1,17,18
 745 939 745 939 744.5 971 c 128,-1,19
 744 1003 744 1003 736 1020 c 0,20,21
 716 1060 716 1060 674 1087.5 c 128,-1,22
 632 1115 632 1115 575 1115 c 0,23,24
 446 1115 446 1115 374.5 991 c 128,-1,25
 303 867 303 867 303 640 c 128,-1,26
 303 413 303 413 375.5 284.5 c 128,-1,27
 448 156 448 156 575 156 c 0,28,29
 648 156 648 156 702 197 c 128,-1,30
 756 238 756 238 799 326 c 1,31,-1
 973 213 l 1,32,33
 903 84 903 84 802 23.5 c 128,-1,34
 701 -37 701 -37 541 -37 c 0,8,9
EndSplineSet
EndChar

StartChar: cdotaccent
Encoding: 267 267 207
Width: 1126
GlyphClass: 2
Flags: W
LayerCount: 2
Fore
SplineSet
698.5 1142.5 m 128,-1,1
 655 1102 655 1102 596.5 1102 c 128,-1,2
 538 1102 538 1102 496.5 1142 c 128,-1,3
 455 1182 455 1182 455 1238.5 c 128,-1,4
 455 1295 455 1295 496 1334 c 128,-1,5
 537 1373 537 1373 596 1373 c 128,-1,6
 655 1373 655 1373 698.5 1332.5 c 128,-1,7
 742 1292 742 1292 742 1237.5 c 128,-1,0
 742 1183 742 1183 698.5 1142.5 c 128,-1,1
123 469 m 0,8,9
 123 612 123 612 179.5 726.5 c 128,-1,10
 236 841 236 841 346 909 c 128,-1,11
 456 977 456 977 590 977 c 128,-1,12
 724 977 724 977 825 929.5 c 128,-1,13
 926 882 926 882 985 793 c 1,14,-1
 836 620 l 1,15,16
 824 631 824 631 820.5 651 c 128,-1,17
 817 671 817 671 810 681 c 0,18,19
 729 791 729 791 606.5 791 c 128,-1,20
 484 791 484 791 417 707 c 128,-1,21
 350 623 350 623 350 474.5 c 128,-1,22
 350 326 350 326 419.5 238.5 c 128,-1,23
 489 151 489 151 604 151 c 0,24,25
 663 151 663 151 725.5 186.5 c 128,-1,26
 788 222 788 222 844 291 c 1,27,-1
 977 137 l 1,28,29
 827 -33 827 -33 594 -33 c 0,30,31
 386 -33 386 -33 254.5 109 c 128,-1,32
 123 251 123 251 123 469 c 0,8,9
EndSplineSet
EndChar

StartChar: Ccaron
Encoding: 268 268 208
Width: 1126
GlyphClass: 2
Flags: W
LayerCount: 2
Fore
SplineSet
538 1339 m 1,0,-1
 270 1576 l 1,1,-1
 348 1668 l 1,2,-1
 573 1513 l 1,3,-1
 814 1662 l 1,4,-1
 884 1580 l 1,5,-1
 601 1339 l 1,6,-1
 538 1339 l 1,0,-1
541 -37 m 0,7,8
 319 -37 319 -37 191 140.5 c 128,-1,9
 63 318 63 318 63 634.5 c 128,-1,10
 63 951 63 951 199 1130 c 128,-1,11
 335 1309 335 1309 577 1309 c 0,12,13
 734 1309 734 1309 829.5 1232.5 c 128,-1,14
 925 1156 925 1156 974 997 c 1,15,-1
 757 918 l 1,16,17
 745 939 745 939 744.5 971 c 128,-1,18
 744 1003 744 1003 736 1020 c 0,19,20
 716 1060 716 1060 674 1087.5 c 128,-1,21
 632 1115 632 1115 575 1115 c 0,22,23
 446 1115 446 1115 374.5 991 c 128,-1,24
 303 867 303 867 303 640 c 128,-1,25
 303 413 303 413 375.5 284.5 c 128,-1,26
 448 156 448 156 575 156 c 0,27,28
 648 156 648 156 702 197 c 128,-1,29
 756 238 756 238 799 326 c 1,30,-1
 973 213 l 1,31,32
 903 84 903 84 802 23.5 c 128,-1,33
 701 -37 701 -37 541 -37 c 0,7,8
EndSplineSet
EndChar

StartChar: ccaron
Encoding: 269 269 209
Width: 1126
GlyphClass: 2
Flags: W
LayerCount: 2
Fore
SplineSet
566 1040 m 1,0,-1
 320 1349 l 1,1,-1
 425 1433 l 1,2,-1
 543 1295 l 1,3,-1
 603 1201 l 1,4,-1
 662 1284 l 1,5,-1
 782 1433 l 1,6,-1
 877 1347 l 1,7,-1
 632 1040 l 1,8,-1
 566 1040 l 1,0,-1
123 469 m 0,9,10
 123 612 123 612 179.5 726.5 c 128,-1,11
 236 841 236 841 346 909 c 128,-1,12
 456 977 456 977 590 977 c 128,-1,13
 724 977 724 977 825 929.5 c 128,-1,14
 926 882 926 882 985 793 c 1,15,-1
 836 620 l 1,16,17
 824 631 824 631 820.5 651 c 128,-1,18
 817 671 817 671 810 681 c 0,19,20
 729 791 729 791 606.5 791 c 128,-1,21
 484 791 484 791 417 707 c 128,-1,22
 350 623 350 623 350 474.5 c 128,-1,23
 350 326 350 326 419.5 238.5 c 128,-1,24
 489 151 489 151 604 151 c 0,25,26
 663 151 663 151 725.5 186.5 c 128,-1,27
 788 222 788 222 844 291 c 1,28,-1
 977 137 l 1,29,30
 827 -33 827 -33 594 -33 c 0,31,32
 386 -33 386 -33 254.5 109 c 128,-1,33
 123 251 123 251 123 469 c 0,9,10
EndSplineSet
EndChar

StartChar: Dcaron
Encoding: 270 270 210
Width: 1126
GlyphClass: 2
Flags: W
LayerCount: 2
Fore
SplineSet
538 1339 m 1,0,-1
 270 1576 l 1,1,-1
 348 1668 l 1,2,-1
 573 1513 l 1,3,-1
 814 1662 l 1,4,-1
 884 1580 l 1,5,-1
 601 1339 l 1,6,-1
 538 1339 l 1,0,-1
127 0 m 1,7,-1
 127 1276 l 1,8,-1
 490 1276 l 2,9,10
 752 1276 752 1276 899 1107.5 c 128,-1,11
 1046 939 1046 939 1046 638.5 c 128,-1,12
 1046 338 1046 338 892.5 169 c 128,-1,13
 739 0 739 0 465 0 c 2,14,-1
 127 0 l 1,7,-1
363 201 m 1,15,-1
 481 201 l 2,16,17
 635 201 635 201 725 316 c 128,-1,18
 815 431 815 431 815 635.5 c 128,-1,19
 815 840 815 840 728.5 957.5 c 128,-1,20
 642 1075 642 1075 492 1075 c 2,21,-1
 363 1075 l 1,22,-1
 363 201 l 1,15,-1
EndSplineSet
EndChar

StartChar: dcaron
Encoding: 271 271 211
Width: 1126
GlyphClass: 2
Flags: W
LayerCount: 2
Fore
SplineSet
894 1030 m 1,0,-1
 953 1412 l 1,1,-1
 1138 1412 l 1,2,-1
 999 998 l 1,3,-1
 894 1030 l 1,0,-1
393 -21 m 0,4,5
 227 -21 227 -21 123.5 118 c 128,-1,6
 20 257 20 257 20 491 c 128,-1,7
 20 725 20 725 125.5 856 c 128,-1,8
 231 987 231 987 401 987 c 0,9,10
 470 987 470 987 518.5 966 c 128,-1,11
 567 945 567 945 615 903 c 1,12,-1
 615 1362 l 1,13,-1
 860 1362 l 1,14,15
 860 1341 860 1341 853 1315 c 128,-1,16
 846 1289 846 1289 846 1269 c 2,17,-1
 848 1212 l 1,18,-1
 848 0 l 1,19,-1
 625 0 l 1,20,-1
 625 98 l 1,21,22
 543 -21 543 -21 393 -21 c 0,4,5
440 163 m 0,23,24
 615 163 615 163 615 474 c 0,25,26
 615 630 615 630 569.5 716 c 128,-1,27
 524 802 524 802 434.5 802 c 128,-1,28
 345 802 345 802 296.5 719 c 128,-1,29
 248 636 248 636 248 483 c 128,-1,30
 248 330 248 330 298.5 246.5 c 128,-1,31
 349 163 349 163 440 163 c 0,23,24
EndSplineSet
EndChar

StartChar: Dcroat
Encoding: 272 272 212
Width: 1126
GlyphClass: 2
Flags: W
LayerCount: 2
Fore
SplineSet
127 0 m 1,0,-1
 127 563 l 1,1,-1
 38 563 l 1,2,-1
 38 750 l 1,3,-1
 127 750 l 1,4,-1
 127 1276 l 1,5,-1
 490 1276 l 2,6,7
 752 1276 752 1276 899 1107.5 c 128,-1,8
 1046 939 1046 939 1046 638.5 c 128,-1,9
 1046 338 1046 338 892.5 169 c 128,-1,10
 739 0 739 0 465 0 c 2,11,-1
 127 0 l 1,0,-1
363 201 m 1,12,-1
 481 201 l 2,13,14
 635 201 635 201 725 316 c 128,-1,15
 815 431 815 431 815 635.5 c 128,-1,16
 815 840 815 840 728.5 957.5 c 128,-1,17
 642 1075 642 1075 492 1075 c 2,18,-1
 363 1075 l 1,19,-1
 363 750 l 1,20,-1
 636 750 l 1,21,-1
 636 563 l 1,22,-1
 363 563 l 1,23,-1
 363 201 l 1,12,-1
EndSplineSet
EndChar

StartChar: dcroat
Encoding: 273 273 213
Width: 1126
GlyphClass: 2
Flags: W
LayerCount: 2
Fore
SplineSet
99 469 m 0,0,1
 99 588 99 588 131.5 680 c 128,-1,2
 164 772 164 772 221 827 c 0,3,4
 335 937 335 937 506 937 c 0,5,6
 592 937 592 937 662.5 911 c 128,-1,7
 733 885 733 885 774 843 c 1,8,-1
 774 1067 l 1,9,-1
 444 1067 l 1,10,-1
 444 1207 l 1,11,-1
 774 1207 l 1,12,-1
 774 1362 l 1,13,-1
 1019 1362 l 1,14,15
 1019 1341 1019 1341 1012 1315 c 128,-1,16
 1005 1289 1005 1289 1005 1269 c 2,17,-1
 1005 1207 l 1,18,-1
 1088 1207 l 1,19,-1
 1088 1067 l 1,20,-1
 1007 1067 l 1,21,-1
 1007 0 l 1,22,-1
 784 0 l 1,23,-1
 784 98 l 1,24,25
 742 39 742 39 657.5 9 c 128,-1,26
 573 -21 573 -21 489 -21 c 0,27,28
 316 -21 316 -21 207.5 111 c 128,-1,29
 99 243 99 243 99 469 c 0,0,1
381 249 m 128,-1,31
 435 163 435 163 543.5 163 c 128,-1,32
 652 163 652 163 713 247 c 128,-1,33
 774 331 774 331 774 469.5 c 128,-1,34
 774 608 774 608 707 680 c 128,-1,35
 640 752 640 752 539 752 c 0,36,37
 454 752 454 752 394 695 c 0,38,39
 363 665 363 665 345 607.5 c 128,-1,40
 327 550 327 550 327 471 c 0,41,30
 327 335 327 335 381 249 c 128,-1,31
EndSplineSet
EndChar

StartChar: Emacron
Encoding: 274 274 214
Width: 1126
GlyphClass: 2
Flags: W
LayerCount: 2
Fore
SplineSet
300 1434 m 1,0,-1
 300 1594 l 1,1,-1
 854 1594 l 1,2,-1
 854 1434 l 1,3,-1
 300 1434 l 1,0,-1
142 0 m 1,4,-1
 142 1276 l 1,5,-1
 976 1276 l 1,6,-1
 976 1075 l 1,7,-1
 368 1075 l 1,8,-1
 368 764 l 1,9,-1
 872 764 l 1,10,-1
 872 563 l 1,11,-1
 368 563 l 1,12,-1
 368 201 l 1,13,-1
 972 201 l 1,14,-1
 972 0 l 1,15,-1
 142 0 l 1,4,-1
EndSplineSet
EndChar

StartChar: emacron
Encoding: 275 275 215
Width: 1126
GlyphClass: 2
Flags: W
LayerCount: 2
Fore
SplineSet
288 1133 m 1,0,-1
 288 1293 l 1,1,-1
 842 1293 l 1,2,-1
 842 1133 l 1,3,-1
 288 1133 l 1,0,-1
228.5 100.5 m 128,-1,5
 91 234 91 234 91 467 c 128,-1,6
 91 700 91 700 221.5 838.5 c 128,-1,7
 352 977 352 977 565 977 c 0,8,9
 760 977 760 977 875 856.5 c 128,-1,10
 990 736 990 736 990 516 c 0,11,12
 990 482 990 482 983 414 c 1,13,-1
 332 414 l 1,14,15
 347 285 347 285 421.5 217.5 c 128,-1,16
 496 150 496 150 601 150 c 0,17,18
 672 150 672 150 741.5 180 c 128,-1,19
 811 210 811 210 858 266 c 1,20,-1
 997 139 l 1,21,22
 836 -33 836 -33 601 -33 c 128,-1,4
 366 -33 366 -33 228.5 100.5 c 128,-1,5
767 582 m 1,23,24
 767 675 767 675 710 736 c 128,-1,25
 653 797 653 797 558.5 797 c 128,-1,26
 464 797 464 797 407.5 740.5 c 128,-1,27
 351 684 351 684 340 582 c 1,28,-1
 767 582 l 1,23,24
EndSplineSet
EndChar

StartChar: Ebreve
Encoding: 276 276 216
Width: 1126
GlyphClass: 2
Flags: W
LayerCount: 2
Fore
SplineSet
753.5 1398.5 m 128,-1,1
 673 1363 673 1363 572 1363 c 128,-1,2
 471 1363 471 1363 393 1395.5 c 128,-1,3
 315 1428 315 1428 234 1513 c 1,4,-1
 353 1626 l 1,5,6
 395 1576 395 1576 456 1549 c 128,-1,7
 517 1522 517 1522 582 1522 c 0,8,9
 716 1522 716 1522 809 1625 c 1,10,-1
 902 1517 l 1,11,0
 834 1434 834 1434 753.5 1398.5 c 128,-1,1
142 0 m 1,12,-1
 142 1276 l 1,13,-1
 976 1276 l 1,14,-1
 976 1075 l 1,15,-1
 368 1075 l 1,16,-1
 368 764 l 1,17,-1
 872 764 l 1,18,-1
 872 563 l 1,19,-1
 368 563 l 1,20,-1
 368 201 l 1,21,-1
 972 201 l 1,22,-1
 972 0 l 1,23,-1
 142 0 l 1,12,-1
EndSplineSet
EndChar

StartChar: ebreve
Encoding: 277 277 217
Width: 1126
GlyphClass: 2
Flags: W
LayerCount: 2
Fore
SplineSet
558 1061 m 0,0,1
 466 1061 466 1061 387.5 1101 c 128,-1,2
 309 1141 309 1141 223 1231 c 1,3,-1
 348 1352 l 1,4,5
 391 1292 391 1292 449.5 1259.5 c 128,-1,6
 508 1227 508 1227 568 1227 c 0,7,8
 693 1227 693 1227 792 1352 c 1,9,-1
 891 1235 l 1,10,11
 749 1061 749 1061 558 1061 c 0,0,1
228.5 100.5 m 128,-1,13
 91 234 91 234 91 467 c 128,-1,14
 91 700 91 700 221.5 838.5 c 128,-1,15
 352 977 352 977 565 977 c 0,16,17
 760 977 760 977 875 856.5 c 128,-1,18
 990 736 990 736 990 516 c 0,19,20
 990 482 990 482 983 414 c 1,21,-1
 332 414 l 1,22,23
 347 285 347 285 421.5 217.5 c 128,-1,24
 496 150 496 150 601 150 c 0,25,26
 672 150 672 150 741.5 180 c 128,-1,27
 811 210 811 210 858 266 c 1,28,-1
 997 139 l 1,29,30
 836 -33 836 -33 601 -33 c 128,-1,12
 366 -33 366 -33 228.5 100.5 c 128,-1,13
767 582 m 1,31,32
 767 675 767 675 710 736 c 128,-1,33
 653 797 653 797 558.5 797 c 128,-1,34
 464 797 464 797 407.5 740.5 c 128,-1,35
 351 684 351 684 340 582 c 1,36,-1
 767 582 l 1,31,32
EndSplineSet
EndChar

StartChar: Edotaccent
Encoding: 278 278 218
Width: 1126
GlyphClass: 2
Flags: W
LayerCount: 2
Fore
SplineSet
675.5 1440 m 128,-1,1
 632 1401 632 1401 574 1401 c 128,-1,2
 516 1401 516 1401 473 1440 c 128,-1,3
 430 1479 430 1479 430 1532.5 c 128,-1,4
 430 1586 430 1586 470 1626.5 c 128,-1,5
 510 1667 510 1667 571 1667 c 128,-1,6
 632 1667 632 1667 675.5 1628 c 128,-1,7
 719 1589 719 1589 719 1534 c 128,-1,0
 719 1479 719 1479 675.5 1440 c 128,-1,1
142 0 m 1,8,-1
 142 1276 l 1,9,-1
 976 1276 l 1,10,-1
 976 1075 l 1,11,-1
 368 1075 l 1,12,-1
 368 764 l 1,13,-1
 872 764 l 1,14,-1
 872 563 l 1,15,-1
 368 563 l 1,16,-1
 368 201 l 1,17,-1
 972 201 l 1,18,-1
 972 0 l 1,19,-1
 142 0 l 1,8,-1
EndSplineSet
EndChar

StartChar: edotaccent
Encoding: 279 279 219
Width: 1126
GlyphClass: 2
Flags: W
LayerCount: 2
Fore
SplineSet
663.5 1142.5 m 128,-1,1
 620 1102 620 1102 561.5 1102 c 128,-1,2
 503 1102 503 1102 461.5 1142 c 128,-1,3
 420 1182 420 1182 420 1238.5 c 128,-1,4
 420 1295 420 1295 461 1334 c 128,-1,5
 502 1373 502 1373 561 1373 c 128,-1,6
 620 1373 620 1373 663.5 1332.5 c 128,-1,7
 707 1292 707 1292 707 1237.5 c 128,-1,0
 707 1183 707 1183 663.5 1142.5 c 128,-1,1
228.5 100.5 m 128,-1,9
 91 234 91 234 91 467 c 128,-1,10
 91 700 91 700 221.5 838.5 c 128,-1,11
 352 977 352 977 565 977 c 0,12,13
 760 977 760 977 875 856.5 c 128,-1,14
 990 736 990 736 990 516 c 0,15,16
 990 482 990 482 983 414 c 1,17,-1
 332 414 l 1,18,19
 347 285 347 285 421.5 217.5 c 128,-1,20
 496 150 496 150 601 150 c 0,21,22
 672 150 672 150 741.5 180 c 128,-1,23
 811 210 811 210 858 266 c 1,24,-1
 997 139 l 1,25,26
 836 -33 836 -33 601 -33 c 128,-1,8
 366 -33 366 -33 228.5 100.5 c 128,-1,9
767 582 m 1,27,28
 767 675 767 675 710 736 c 128,-1,29
 653 797 653 797 558.5 797 c 128,-1,30
 464 797 464 797 407.5 740.5 c 128,-1,31
 351 684 351 684 340 582 c 1,32,-1
 767 582 l 1,27,28
EndSplineSet
EndChar

StartChar: Eogonek
Encoding: 280 280 220
Width: 1126
GlyphClass: 2
Flags: W
LayerCount: 2
Fore
SplineSet
142 0 m 1,0,-1
 142 1276 l 1,1,-1
 976 1276 l 1,2,-1
 976 1075 l 1,3,-1
 368 1075 l 1,4,-1
 368 764 l 1,5,-1
 872 764 l 1,6,-1
 872 563 l 1,7,-1
 368 563 l 1,8,-1
 368 201 l 1,9,-1
 972 201 l 1,10,-1
 973 0 l 1,11,12
 863 -74 863 -74 826 -112 c 128,-1,13
 789 -150 789 -150 789 -180 c 0,14,15
 789 -231 789 -231 854 -231 c 0,16,17
 908 -231 908 -231 973 -172 c 1,18,-1
 973 -307 l 1,19,20
 887 -373 887 -373 794.5 -373 c 128,-1,21
 702 -373 702 -373 646.5 -331 c 128,-1,22
 591 -289 591 -289 591 -224 c 128,-1,23
 591 -159 591 -159 641.5 -106.5 c 128,-1,24
 692 -54 692 -54 814 0 c 1,25,-1
 142 0 l 1,0,-1
EndSplineSet
EndChar

StartChar: eogonek
Encoding: 281 281 221
Width: 1126
GlyphClass: 2
Flags: W
LayerCount: 2
Fore
SplineSet
411 -219 m 0,0,1
 411 -167 411 -167 447 -122.5 c 128,-1,2
 483 -78 483 -78 567 -33 c 1,3,4
 350 -25 350 -25 220.5 108.5 c 128,-1,5
 91 242 91 242 91 471 c 128,-1,6
 91 700 91 700 221.5 838.5 c 128,-1,7
 352 977 352 977 565 977 c 0,8,9
 760 977 760 977 875 856.5 c 128,-1,10
 990 736 990 736 990 516 c 0,11,12
 990 482 990 482 983 414 c 1,13,-1
 332 414 l 1,14,15
 347 285 347 285 421.5 217.5 c 128,-1,16
 496 150 496 150 601 150 c 0,17,18
 672 150 672 150 741.5 180 c 128,-1,19
 811 210 811 210 858 266 c 1,20,-1
 997 139 l 1,21,22
 916 52 916 52 815 9 c 1,23,24
 675 -60 675 -60 639 -104 c 0,25,26
 620 -128 620 -128 614.5 -144 c 128,-1,27
 609 -160 609 -160 609 -180 c 0,28,29
 609 -231 609 -231 674 -231 c 0,30,31
 728 -231 728 -231 793 -172 c 1,32,-1
 793 -307 l 1,33,34
 707 -373 707 -373 614.5 -373 c 128,-1,35
 522 -373 522 -373 466.5 -331 c 128,-1,36
 411 -289 411 -289 411 -219 c 0,0,1
767 582 m 1,37,38
 767 675 767 675 710 736 c 128,-1,39
 653 797 653 797 558.5 797 c 128,-1,40
 464 797 464 797 407.5 740.5 c 128,-1,41
 351 684 351 684 340 582 c 1,42,-1
 767 582 l 1,37,38
EndSplineSet
EndChar

StartChar: Ecaron
Encoding: 282 282 222
Width: 1126
GlyphClass: 2
Flags: W
LayerCount: 2
Fore
SplineSet
550 1339 m 1,0,-1
 282 1576 l 1,1,-1
 360 1668 l 1,2,-1
 585 1513 l 1,3,-1
 826 1662 l 1,4,-1
 896 1580 l 1,5,-1
 613 1339 l 1,6,-1
 550 1339 l 1,0,-1
142 0 m 1,7,-1
 142 1276 l 1,8,-1
 976 1276 l 1,9,-1
 976 1075 l 1,10,-1
 368 1075 l 1,11,-1
 368 764 l 1,12,-1
 872 764 l 1,13,-1
 872 563 l 1,14,-1
 368 563 l 1,15,-1
 368 201 l 1,16,-1
 972 201 l 1,17,-1
 972 0 l 1,18,-1
 142 0 l 1,7,-1
EndSplineSet
EndChar

StartChar: ecaron
Encoding: 283 283 223
Width: 1126
GlyphClass: 2
Flags: W
LayerCount: 2
Fore
SplineSet
531 1040 m 1,0,-1
 285 1349 l 1,1,-1
 390 1433 l 1,2,-1
 508 1295 l 1,3,-1
 568 1201 l 1,4,-1
 627 1284 l 1,5,-1
 747 1433 l 1,6,-1
 842 1347 l 1,7,-1
 597 1040 l 1,8,-1
 531 1040 l 1,0,-1
228.5 100.5 m 128,-1,10
 91 234 91 234 91 467 c 128,-1,11
 91 700 91 700 221.5 838.5 c 128,-1,12
 352 977 352 977 565 977 c 0,13,14
 760 977 760 977 875 856.5 c 128,-1,15
 990 736 990 736 990 516 c 0,16,17
 990 482 990 482 983 414 c 1,18,-1
 332 414 l 1,19,20
 347 285 347 285 421.5 217.5 c 128,-1,21
 496 150 496 150 601 150 c 0,22,23
 672 150 672 150 741.5 180 c 128,-1,24
 811 210 811 210 858 266 c 1,25,-1
 997 139 l 1,26,27
 836 -33 836 -33 601 -33 c 128,-1,9
 366 -33 366 -33 228.5 100.5 c 128,-1,10
767 582 m 1,28,29
 767 675 767 675 710 736 c 128,-1,30
 653 797 653 797 558.5 797 c 128,-1,31
 464 797 464 797 407.5 740.5 c 128,-1,32
 351 684 351 684 340 582 c 1,33,-1
 767 582 l 1,28,29
EndSplineSet
EndChar

StartChar: Gcircumflex
Encoding: 284 284 224
Width: 1126
GlyphClass: 2
Flags: W
LayerCount: 2
Fore
SplineSet
349 1325 m 1,0,-1
 279 1407 l 1,1,-1
 562 1648 l 1,2,-1
 625 1648 l 1,3,-1
 893 1411 l 1,4,-1
 815 1319 l 1,5,-1
 590 1474 l 1,6,-1
 349 1325 l 1,0,-1
593 -37 m 0,7,8
 343 -37 343 -37 203 141.5 c 128,-1,9
 63 320 63 320 63 637.5 c 128,-1,10
 63 955 63 955 203 1132 c 128,-1,11
 343 1309 343 1309 593 1309 c 0,12,13
 737 1309 737 1309 849.5 1246 c 128,-1,14
 962 1183 962 1183 1026 1065 c 1,15,-1
 862 902 l 1,16,17
 850 913 850 913 837 944 c 128,-1,18
 824 975 824 975 809 995 c 0,19,20
 764 1055 764 1055 716.5 1084.5 c 128,-1,21
 669 1114 669 1114 589 1114 c 0,22,23
 453 1114 453 1114 377 992 c 128,-1,24
 301 870 301 870 301 645 c 128,-1,25
 301 420 301 420 378 289 c 128,-1,26
 455 158 455 158 590.5 158 c 128,-1,27
 726 158 726 158 795 211 c 1,28,-1
 795 451 l 1,29,-1
 558 451 l 1,30,-1
 558 652 l 1,31,-1
 1031 652 l 1,32,-1
 1031 109 l 1,33,34
 959 43 959 43 832 3 c 128,-1,35
 705 -37 705 -37 593 -37 c 0,7,8
EndSplineSet
EndChar

StartChar: gcircumflex
Encoding: 285 285 225
Width: 1126
GlyphClass: 2
Flags: W
LayerCount: 2
Fore
SplineSet
339 1058 m 1,0,-1
 224 1139 l 1,1,-1
 479 1456 l 1,2,-1
 553 1456 l 1,3,-1
 809 1137 l 1,4,-1
 688 1054 l 1,5,-1
 576 1187 l 1,6,-1
 515 1279 l 1,7,-1
 447 1185 l 1,8,-1
 339 1058 l 1,0,-1
205 -285 m 128,-1,10
 96 -216 96 -216 96 -108.5 c 128,-1,11
 96 -1 96 -1 232 72 c 1,12,13
 159 116 159 116 159 210.5 c 128,-1,14
 159 305 159 305 278 393 c 1,15,16
 145 490 145 490 145 641 c 0,17,18
 145 735 145 735 197 815 c 128,-1,19
 249 895 249 895 333 940 c 128,-1,20
 417 985 417 985 509 985 c 0,21,22
 644 985 644 985 741 905 c 1,23,24
 851 979 851 979 999 979 c 1,25,-1
 1029 798 l 1,26,27
 994 805 994 805 946 805 c 128,-1,28
 898 805 898 805 833 780 c 1,29,30
 858 718 858 718 858 647 c 0,31,32
 858 498 858 498 758.5 407.5 c 128,-1,33
 659 317 659 317 507 317 c 0,34,35
 455 317 455 317 404 332 c 1,36,37
 379 316 379 316 370.5 303 c 128,-1,38
 362 290 362 290 362 268 c 0,39,40
 362 232 362 232 436.5 220.5 c 128,-1,41
 511 209 511 209 648 209 c 0,42,43
 814 209 814 209 895 139.5 c 128,-1,44
 976 70 976 70 976 -55.5 c 128,-1,45
 976 -181 976 -181 861.5 -267.5 c 128,-1,46
 747 -354 747 -354 530.5 -354 c 128,-1,9
 314 -354 314 -354 205 -285 c 128,-1,10
398.5 539 m 128,-1,48
 439 494 439 494 506 494 c 128,-1,49
 573 494 573 494 614 539 c 128,-1,50
 655 584 655 584 655 650 c 128,-1,51
 655 716 655 716 614 762.5 c 128,-1,52
 573 809 573 809 507.5 809 c 128,-1,53
 442 809 442 809 400 766 c 128,-1,54
 358 723 358 723 358 653.5 c 128,-1,47
 358 584 358 584 398.5 539 c 128,-1,48
303 -74 m 0,55,56
 303 -128 303 -128 370 -156 c 128,-1,57
 437 -184 437 -184 537 -184 c 128,-1,58
 637 -184 637 -184 701 -151.5 c 128,-1,59
 765 -119 765 -119 765 -69.5 c 128,-1,60
 765 -20 765 -20 739 0 c 128,-1,61
 713 20 713 20 646 20 c 0,62,63
 431 20 431 20 352 33 c 1,64,65
 323 8 323 8 313 -16.5 c 128,-1,66
 303 -41 303 -41 303 -74 c 0,55,56
EndSplineSet
EndChar

StartChar: Gbreve
Encoding: 286 286 226
Width: 1126
GlyphClass: 2
Flags: W
LayerCount: 2
Fore
SplineSet
766.5 1398.5 m 128,-1,1
 686 1363 686 1363 585 1363 c 128,-1,2
 484 1363 484 1363 406 1395.5 c 128,-1,3
 328 1428 328 1428 247 1513 c 1,4,-1
 366 1626 l 1,5,6
 408 1576 408 1576 469 1549 c 128,-1,7
 530 1522 530 1522 595 1522 c 0,8,9
 729 1522 729 1522 822 1625 c 1,10,-1
 915 1517 l 1,11,0
 847 1434 847 1434 766.5 1398.5 c 128,-1,1
593 -37 m 0,12,13
 343 -37 343 -37 203 141.5 c 128,-1,14
 63 320 63 320 63 637.5 c 128,-1,15
 63 955 63 955 203 1132 c 128,-1,16
 343 1309 343 1309 593 1309 c 0,17,18
 737 1309 737 1309 849.5 1246 c 128,-1,19
 962 1183 962 1183 1026 1065 c 1,20,-1
 862 902 l 1,21,22
 850 913 850 913 837 944 c 128,-1,23
 824 975 824 975 809 995 c 0,24,25
 764 1055 764 1055 716.5 1084.5 c 128,-1,26
 669 1114 669 1114 589 1114 c 0,27,28
 453 1114 453 1114 377 992 c 128,-1,29
 301 870 301 870 301 645 c 128,-1,30
 301 420 301 420 378 289 c 128,-1,31
 455 158 455 158 590.5 158 c 128,-1,32
 726 158 726 158 795 211 c 1,33,-1
 795 451 l 1,34,-1
 558 451 l 1,35,-1
 558 652 l 1,36,-1
 1031 652 l 1,37,-1
 1031 109 l 1,38,39
 959 43 959 43 832 3 c 128,-1,40
 705 -37 705 -37 593 -37 c 0,12,13
EndSplineSet
EndChar

StartChar: gbreve
Encoding: 287 287 227
Width: 1126
GlyphClass: 2
Flags: W
LayerCount: 2
Fore
SplineSet
509 1061 m 0,0,1
 417 1061 417 1061 338.5 1101 c 128,-1,2
 260 1141 260 1141 174 1231 c 1,3,-1
 299 1352 l 1,4,5
 342 1292 342 1292 400.5 1259.5 c 128,-1,6
 459 1227 459 1227 519 1227 c 0,7,8
 644 1227 644 1227 743 1352 c 1,9,-1
 842 1235 l 1,10,11
 700 1061 700 1061 509 1061 c 0,0,1
205 -285 m 128,-1,13
 96 -216 96 -216 96 -108.5 c 128,-1,14
 96 -1 96 -1 232 72 c 1,15,16
 159 116 159 116 159 210.5 c 128,-1,17
 159 305 159 305 278 393 c 1,18,19
 145 490 145 490 145 641 c 0,20,21
 145 735 145 735 197 815 c 128,-1,22
 249 895 249 895 333 940 c 128,-1,23
 417 985 417 985 509 985 c 0,24,25
 644 985 644 985 741 905 c 1,26,27
 851 979 851 979 999 979 c 1,28,-1
 1029 798 l 1,29,30
 994 805 994 805 946 805 c 128,-1,31
 898 805 898 805 833 780 c 1,32,33
 858 718 858 718 858 647 c 0,34,35
 858 498 858 498 758.5 407.5 c 128,-1,36
 659 317 659 317 507 317 c 0,37,38
 455 317 455 317 404 332 c 1,39,40
 379 316 379 316 370.5 303 c 128,-1,41
 362 290 362 290 362 268 c 0,42,43
 362 232 362 232 436.5 220.5 c 128,-1,44
 511 209 511 209 648 209 c 0,45,46
 814 209 814 209 895 139.5 c 128,-1,47
 976 70 976 70 976 -55.5 c 128,-1,48
 976 -181 976 -181 861.5 -267.5 c 128,-1,49
 747 -354 747 -354 530.5 -354 c 128,-1,12
 314 -354 314 -354 205 -285 c 128,-1,13
398.5 539 m 128,-1,51
 439 494 439 494 506 494 c 128,-1,52
 573 494 573 494 614 539 c 128,-1,53
 655 584 655 584 655 650 c 128,-1,54
 655 716 655 716 614 762.5 c 128,-1,55
 573 809 573 809 507.5 809 c 128,-1,56
 442 809 442 809 400 766 c 128,-1,57
 358 723 358 723 358 653.5 c 128,-1,50
 358 584 358 584 398.5 539 c 128,-1,51
303 -74 m 0,58,59
 303 -128 303 -128 370 -156 c 128,-1,60
 437 -184 437 -184 537 -184 c 128,-1,61
 637 -184 637 -184 701 -151.5 c 128,-1,62
 765 -119 765 -119 765 -69.5 c 128,-1,63
 765 -20 765 -20 739 0 c 128,-1,64
 713 20 713 20 646 20 c 0,65,66
 431 20 431 20 352 33 c 1,67,68
 323 8 323 8 313 -16.5 c 128,-1,69
 303 -41 303 -41 303 -74 c 0,58,59
EndSplineSet
EndChar

StartChar: Gdotaccent
Encoding: 288 288 228
Width: 1126
GlyphClass: 2
Flags: W
LayerCount: 2
Fore
SplineSet
688.5 1440 m 128,-1,1
 645 1401 645 1401 587 1401 c 128,-1,2
 529 1401 529 1401 486 1440 c 128,-1,3
 443 1479 443 1479 443 1532.5 c 128,-1,4
 443 1586 443 1586 483 1626.5 c 128,-1,5
 523 1667 523 1667 584 1667 c 128,-1,6
 645 1667 645 1667 688.5 1628 c 128,-1,7
 732 1589 732 1589 732 1534 c 128,-1,0
 732 1479 732 1479 688.5 1440 c 128,-1,1
593 -37 m 0,8,9
 343 -37 343 -37 203 141.5 c 128,-1,10
 63 320 63 320 63 637.5 c 128,-1,11
 63 955 63 955 203 1132 c 128,-1,12
 343 1309 343 1309 593 1309 c 0,13,14
 737 1309 737 1309 849.5 1246 c 128,-1,15
 962 1183 962 1183 1026 1065 c 1,16,-1
 862 902 l 1,17,18
 850 913 850 913 837 944 c 128,-1,19
 824 975 824 975 809 995 c 0,20,21
 764 1055 764 1055 716.5 1084.5 c 128,-1,22
 669 1114 669 1114 589 1114 c 0,23,24
 453 1114 453 1114 377 992 c 128,-1,25
 301 870 301 870 301 645 c 128,-1,26
 301 420 301 420 378 289 c 128,-1,27
 455 158 455 158 590.5 158 c 128,-1,28
 726 158 726 158 795 211 c 1,29,-1
 795 451 l 1,30,-1
 558 451 l 1,31,-1
 558 652 l 1,32,-1
 1031 652 l 1,33,-1
 1031 109 l 1,34,35
 959 43 959 43 832 3 c 128,-1,36
 705 -37 705 -37 593 -37 c 0,8,9
EndSplineSet
EndChar

StartChar: gdotaccent
Encoding: 289 289 229
Width: 1126
GlyphClass: 2
Flags: W
LayerCount: 2
Fore
SplineSet
638.5 1134.5 m 128,-1,1
 595 1094 595 1094 536.5 1094 c 128,-1,2
 478 1094 478 1094 436.5 1134 c 128,-1,3
 395 1174 395 1174 395 1230.5 c 128,-1,4
 395 1287 395 1287 436 1326 c 128,-1,5
 477 1365 477 1365 536 1365 c 128,-1,6
 595 1365 595 1365 638.5 1324.5 c 128,-1,7
 682 1284 682 1284 682 1229.5 c 128,-1,0
 682 1175 682 1175 638.5 1134.5 c 128,-1,1
205 -285 m 128,-1,9
 96 -216 96 -216 96 -108.5 c 128,-1,10
 96 -1 96 -1 232 72 c 1,11,12
 159 116 159 116 159 210.5 c 128,-1,13
 159 305 159 305 278 393 c 1,14,15
 145 490 145 490 145 641 c 0,16,17
 145 735 145 735 197 815 c 128,-1,18
 249 895 249 895 333 940 c 128,-1,19
 417 985 417 985 509 985 c 0,20,21
 644 985 644 985 741 905 c 1,22,23
 851 979 851 979 999 979 c 1,24,-1
 1029 798 l 1,25,26
 994 805 994 805 946 805 c 128,-1,27
 898 805 898 805 833 780 c 1,28,29
 858 718 858 718 858 647 c 0,30,31
 858 498 858 498 758.5 407.5 c 128,-1,32
 659 317 659 317 507 317 c 0,33,34
 455 317 455 317 404 332 c 1,35,36
 379 316 379 316 370.5 303 c 128,-1,37
 362 290 362 290 362 268 c 0,38,39
 362 232 362 232 436.5 220.5 c 128,-1,40
 511 209 511 209 648 209 c 0,41,42
 814 209 814 209 895 139.5 c 128,-1,43
 976 70 976 70 976 -55.5 c 128,-1,44
 976 -181 976 -181 861.5 -267.5 c 128,-1,45
 747 -354 747 -354 530.5 -354 c 128,-1,8
 314 -354 314 -354 205 -285 c 128,-1,9
398.5 539 m 128,-1,47
 439 494 439 494 506 494 c 128,-1,48
 573 494 573 494 614 539 c 128,-1,49
 655 584 655 584 655 650 c 128,-1,50
 655 716 655 716 614 762.5 c 128,-1,51
 573 809 573 809 507.5 809 c 128,-1,52
 442 809 442 809 400 766 c 128,-1,53
 358 723 358 723 358 653.5 c 128,-1,46
 358 584 358 584 398.5 539 c 128,-1,47
303 -74 m 0,54,55
 303 -128 303 -128 370 -156 c 128,-1,56
 437 -184 437 -184 537 -184 c 128,-1,57
 637 -184 637 -184 701 -151.5 c 128,-1,58
 765 -119 765 -119 765 -69.5 c 128,-1,59
 765 -20 765 -20 739 0 c 128,-1,60
 713 20 713 20 646 20 c 0,61,62
 431 20 431 20 352 33 c 1,63,64
 323 8 323 8 313 -16.5 c 128,-1,65
 303 -41 303 -41 303 -74 c 0,54,55
EndSplineSet
EndChar

StartChar: uni0122
Encoding: 290 290 230
Width: 1126
GlyphClass: 2
Flags: W
LayerCount: 2
Fore
SplineSet
593 -37 m 0,0,1
 343 -37 343 -37 203 141.5 c 128,-1,2
 63 320 63 320 63 637.5 c 128,-1,3
 63 955 63 955 203 1132 c 128,-1,4
 343 1309 343 1309 593 1309 c 0,5,6
 737 1309 737 1309 849.5 1246 c 128,-1,7
 962 1183 962 1183 1026 1065 c 1,8,-1
 862 902 l 1,9,10
 850 913 850 913 837 944 c 128,-1,11
 824 975 824 975 809 995 c 0,12,13
 764 1055 764 1055 716.5 1084.5 c 128,-1,14
 669 1114 669 1114 589 1114 c 0,15,16
 453 1114 453 1114 377 992 c 128,-1,17
 301 870 301 870 301 645 c 128,-1,18
 301 420 301 420 378 289 c 128,-1,19
 455 158 455 158 590.5 158 c 128,-1,20
 726 158 726 158 795 211 c 1,21,-1
 795 451 l 1,22,-1
 558 451 l 1,23,-1
 558 652 l 1,24,-1
 1031 652 l 1,25,-1
 1031 109 l 1,26,27
 959 43 959 43 832 3 c 128,-1,28
 705 -37 705 -37 593 -37 c 0,0,1
515 -57 m 1,29,-1
 721 -109 l 1,30,-1
 495 -469 l 1,31,-1
 381 -402 l 1,32,-1
 515 -57 l 1,29,-1
EndSplineSet
EndChar

StartChar: uni0123
Encoding: 291 291 231
Width: 1126
GlyphClass: 2
Flags: W
LayerCount: 2
Fore
SplineSet
394 1078 m 1,0,-1
 620 1438 l 1,1,-1
 734 1371 l 1,2,-1
 600 1026 l 1,3,-1
 394 1078 l 1,0,-1
205 -285 m 128,-1,5
 96 -216 96 -216 96 -108.5 c 128,-1,6
 96 -1 96 -1 232 72 c 1,7,8
 159 116 159 116 159 210.5 c 128,-1,9
 159 305 159 305 278 393 c 1,10,11
 145 490 145 490 145 641 c 0,12,13
 145 735 145 735 197 815 c 128,-1,14
 249 895 249 895 333 940 c 128,-1,15
 417 985 417 985 509 985 c 0,16,17
 644 985 644 985 741 905 c 1,18,19
 851 979 851 979 999 979 c 1,20,-1
 1029 798 l 1,21,22
 994 805 994 805 946 805 c 128,-1,23
 898 805 898 805 833 780 c 1,24,25
 858 718 858 718 858 647 c 0,26,27
 858 498 858 498 758.5 407.5 c 128,-1,28
 659 317 659 317 507 317 c 0,29,30
 455 317 455 317 404 332 c 1,31,32
 379 316 379 316 370.5 303 c 128,-1,33
 362 290 362 290 362 268 c 0,34,35
 362 232 362 232 436.5 220.5 c 128,-1,36
 511 209 511 209 648 209 c 0,37,38
 814 209 814 209 895 139.5 c 128,-1,39
 976 70 976 70 976 -55.5 c 128,-1,40
 976 -181 976 -181 861.5 -267.5 c 128,-1,41
 747 -354 747 -354 530.5 -354 c 128,-1,4
 314 -354 314 -354 205 -285 c 128,-1,5
398.5 539 m 128,-1,43
 439 494 439 494 506 494 c 128,-1,44
 573 494 573 494 614 539 c 128,-1,45
 655 584 655 584 655 650 c 128,-1,46
 655 716 655 716 614 762.5 c 128,-1,47
 573 809 573 809 507.5 809 c 128,-1,48
 442 809 442 809 400 766 c 128,-1,49
 358 723 358 723 358 653.5 c 128,-1,42
 358 584 358 584 398.5 539 c 128,-1,43
303 -74 m 0,50,51
 303 -128 303 -128 370 -156 c 128,-1,52
 437 -184 437 -184 537 -184 c 128,-1,53
 637 -184 637 -184 701 -151.5 c 128,-1,54
 765 -119 765 -119 765 -69.5 c 128,-1,55
 765 -20 765 -20 739 0 c 128,-1,56
 713 20 713 20 646 20 c 0,57,58
 431 20 431 20 352 33 c 1,59,60
 323 8 323 8 313 -16.5 c 128,-1,61
 303 -41 303 -41 303 -74 c 0,50,51
EndSplineSet
EndChar

StartChar: Hcircumflex
Encoding: 292 292 232
Width: 1126
GlyphClass: 2
Flags: W
LayerCount: 2
Fore
SplineSet
324 1325 m 1,0,-1
 254 1407 l 1,1,-1
 537 1648 l 1,2,-1
 600 1648 l 1,3,-1
 868 1411 l 1,4,-1
 790 1319 l 1,5,-1
 565 1474 l 1,6,-1
 324 1325 l 1,0,-1
88 0 m 1,7,-1
 88 1276 l 1,8,-1
 338 1276 l 1,9,-1
 338 1272 l 2,10,11
 338 1264 338 1264 331 1245 c 128,-1,12
 324 1226 324 1226 324 1204 c 2,13,-1
 324 762 l 1,14,-1
 790 762 l 1,15,-1
 790 1276 l 1,16,-1
 1040 1276 l 1,17,-1
 1040 1272 l 2,18,19
 1040 1264 1040 1264 1033 1245 c 128,-1,20
 1026 1226 1026 1226 1026 1204 c 2,21,-1
 1026 0 l 1,22,-1
 790 0 l 1,23,-1
 790 561 l 1,24,-1
 324 561 l 1,25,-1
 324 0 l 1,26,-1
 88 0 l 1,7,-1
EndSplineSet
EndChar

StartChar: hcircumflex
Encoding: 293 293 233
Width: 1126
GlyphClass: 2
Flags: W
LayerCount: 2
Fore
SplineSet
228 1397 m 1,0,-1
 158 1479 l 1,1,-1
 441 1720 l 1,2,-1
 504 1720 l 1,3,-1
 772 1483 l 1,4,-1
 694 1391 l 1,5,-1
 469 1546 l 1,6,-1
 228 1397 l 1,0,-1
143 0 m 1,7,-1
 143 1362 l 1,8,-1
 388 1362 l 1,9,10
 388 1341 388 1341 381 1315 c 128,-1,11
 374 1289 374 1289 374 1269 c 2,12,-1
 374 848 l 1,13,14
 522 977 522 977 734 977 c 0,15,16
 871 977 871 977 944 895.5 c 128,-1,17
 1017 814 1017 814 1017 630 c 2,18,-1
 1017 0 l 1,19,-1
 786 0 l 1,20,-1
 786 628 l 2,21,22
 786 788 786 788 649 788 c 0,23,24
 551 788 551 788 462.5 723.5 c 128,-1,25
 374 659 374 659 374 573 c 2,26,-1
 374 0 l 1,27,-1
 143 0 l 1,7,-1
EndSplineSet
EndChar

StartChar: Hbar
Encoding: 294 294 234
Width: 1126
GlyphClass: 2
Flags: W
LayerCount: 2
Fore
SplineSet
128 0 m 1,0,-1
 128 943 l 1,1,-1
 25 943 l 1,2,-1
 25 1103 l 1,3,-1
 128 1103 l 1,4,-1
 128 1276 l 1,5,-1
 378 1276 l 1,6,-1
 378 1272 l 2,7,8
 378 1264 378 1264 371 1245 c 128,-1,9
 364 1226 364 1226 364 1204 c 2,10,-1
 364 1103 l 1,11,-1
 750 1103 l 1,12,-1
 750 1276 l 1,13,-1
 1000 1276 l 1,14,-1
 1000 1272 l 2,15,16
 1000 1264 1000 1264 993 1245 c 128,-1,17
 986 1226 986 1226 986 1204 c 2,18,-1
 986 1103 l 1,19,-1
 1089 1103 l 1,20,-1
 1089 943 l 1,21,-1
 986 943 l 1,22,-1
 986 0 l 1,23,-1
 750 0 l 1,24,-1
 750 561 l 1,25,-1
 364 561 l 1,26,-1
 364 0 l 1,27,-1
 128 0 l 1,0,-1
364 762 m 1,28,-1
 750 762 l 1,29,-1
 750 943 l 1,30,-1
 364 943 l 1,31,-1
 364 762 l 1,28,-1
EndSplineSet
EndChar

StartChar: hbar
Encoding: 295 295 235
Width: 1126
GlyphClass: 2
Flags: W
LayerCount: 2
Fore
SplineSet
143 0 m 1,0,-1
 143 1020 l 1,1,-1
 42 1020 l 1,2,-1
 42 1195 l 1,3,-1
 143 1195 l 1,4,-1
 143 1362 l 1,5,-1
 388 1362 l 1,6,7
 388 1341 388 1341 381 1315 c 128,-1,8
 374 1289 374 1289 374 1269 c 2,9,-1
 374 1195 l 1,10,-1
 736 1195 l 1,11,-1
 736 1020 l 1,12,-1
 374 1020 l 1,13,-1
 374 808 l 1,14,15
 522 937 522 937 734 937 c 0,16,17
 871 937 871 937 944 855.5 c 128,-1,18
 1017 774 1017 774 1017 590 c 2,19,-1
 1017 0 l 1,20,-1
 786 0 l 1,21,-1
 786 588 l 2,22,23
 786 748 786 748 649 748 c 0,24,25
 551 748 551 748 462.5 683.5 c 128,-1,26
 374 619 374 619 374 533 c 2,27,-1
 374 0 l 1,28,-1
 143 0 l 1,0,-1
EndSplineSet
EndChar

StartChar: Itilde
Encoding: 296 296 236
Width: 1126
GlyphClass: 2
Flags: W
LayerCount: 2
Fore
SplineSet
320.5 1616.5 m 128,-1,1
 372 1657 372 1657 429 1657 c 128,-1,2
 486 1657 486 1657 542.5 1633 c 128,-1,3
 599 1609 599 1609 646 1585 c 128,-1,4
 693 1561 693 1561 720 1561 c 128,-1,5
 747 1561 747 1561 768.5 1580 c 128,-1,6
 790 1599 790 1599 822 1646 c 1,7,-1
 934 1552 l 1,8,9
 870 1460 870 1460 830 1424.5 c 128,-1,10
 790 1389 790 1389 743 1389 c 128,-1,11
 696 1389 696 1389 600 1441.5 c 128,-1,12
 504 1494 504 1494 464 1494 c 128,-1,13
 424 1494 424 1494 391.5 1471.5 c 128,-1,14
 359 1449 359 1449 322 1386 c 1,15,-1
 206 1474 l 1,16,0
 269 1576 269 1576 320.5 1616.5 c 128,-1,1
207 0 m 1,17,-1
 207 203 l 1,18,-1
 438 203 l 1,19,-1
 438 1075 l 1,20,-1
 207 1075 l 1,21,-1
 207 1276 l 1,22,-1
 919 1276 l 1,23,-1
 919 1075 l 1,24,-1
 674 1075 l 1,25,-1
 674 201 l 1,26,-1
 919 201 l 1,27,-1
 919 0 l 1,28,-1
 207 0 l 1,17,-1
EndSplineSet
EndChar

StartChar: itilde
Encoding: 297 297 237
Width: 1126
GlyphClass: 2
Flags: W
LayerCount: 2
Fore
SplineSet
307.5 1372 m 128,-1,1
 361 1420 361 1420 414.5 1420 c 128,-1,2
 468 1420 468 1420 525.5 1388.5 c 128,-1,3
 583 1357 583 1357 631.5 1325.5 c 128,-1,4
 680 1294 680 1294 704.5 1294 c 128,-1,5
 729 1294 729 1294 753 1315.5 c 128,-1,6
 777 1337 777 1337 809 1385 c 1,7,-1
 916 1295 l 1,8,9
 900 1273 900 1273 882 1246 c 128,-1,10
 864 1219 864 1219 851 1201.5 c 128,-1,11
 838 1184 838 1184 831.5 1177 c 128,-1,12
 825 1170 825 1170 814 1158.5 c 128,-1,13
 803 1147 803 1147 795 1142.5 c 128,-1,14
 787 1138 787 1138 776 1132 c 0,15,16
 757 1123 757 1123 728 1123 c 128,-1,17
 699 1123 699 1123 643.5 1157.5 c 128,-1,18
 588 1192 588 1192 531 1226 c 128,-1,19
 474 1260 474 1260 439 1260 c 128,-1,20
 404 1260 404 1260 374.5 1236.5 c 128,-1,21
 345 1213 345 1213 296 1141 c 1,22,-1
 188 1217 l 1,23,0
 254 1324 254 1324 307.5 1372 c 128,-1,1
173 0 m 1,24,-1
 173 186 l 1,25,-1
 448 186 l 1,26,-1
 448 770 l 1,27,-1
 178 770 l 1,28,-1
 178 956 l 1,29,-1
 679 956 l 1,30,-1
 679 186 l 1,31,-1
 954 186 l 1,32,-1
 954 0 l 1,33,-1
 173 0 l 1,24,-1
EndSplineSet
EndChar

StartChar: Imacron
Encoding: 298 298 238
Width: 1126
GlyphClass: 2
Flags: W
LayerCount: 2
Fore
SplineSet
288 1434 m 1,0,-1
 288 1594 l 1,1,-1
 842 1594 l 1,2,-1
 842 1434 l 1,3,-1
 288 1434 l 1,0,-1
207 0 m 1,4,-1
 207 203 l 1,5,-1
 438 203 l 1,6,-1
 438 1075 l 1,7,-1
 207 1075 l 1,8,-1
 207 1276 l 1,9,-1
 919 1276 l 1,10,-1
 919 1075 l 1,11,-1
 674 1075 l 1,12,-1
 674 201 l 1,13,-1
 919 201 l 1,14,-1
 919 0 l 1,15,-1
 207 0 l 1,4,-1
EndSplineSet
EndChar

StartChar: imacron
Encoding: 299 299 239
Width: 1126
GlyphClass: 2
Flags: W
LayerCount: 2
Fore
SplineSet
297 1133 m 1,0,-1
 297 1293 l 1,1,-1
 851 1293 l 1,2,-1
 851 1133 l 1,3,-1
 297 1133 l 1,0,-1
173 0 m 1,4,-1
 173 186 l 1,5,-1
 448 186 l 1,6,-1
 448 770 l 1,7,-1
 178 770 l 1,8,-1
 178 956 l 1,9,-1
 679 956 l 1,10,-1
 679 186 l 1,11,-1
 954 186 l 1,12,-1
 954 0 l 1,13,-1
 173 0 l 1,4,-1
EndSplineSet
EndChar

StartChar: Ibreve
Encoding: 300 300 240
Width: 1126
GlyphClass: 2
Flags: W
LayerCount: 2
Fore
SplineSet
741.5 1398.5 m 128,-1,1
 661 1363 661 1363 560 1363 c 128,-1,2
 459 1363 459 1363 381 1395.5 c 128,-1,3
 303 1428 303 1428 222 1513 c 1,4,-1
 341 1626 l 1,5,6
 383 1576 383 1576 444 1549 c 128,-1,7
 505 1522 505 1522 570 1522 c 0,8,9
 704 1522 704 1522 797 1625 c 1,10,-1
 890 1517 l 1,11,0
 822 1434 822 1434 741.5 1398.5 c 128,-1,1
207 0 m 1,12,-1
 207 203 l 1,13,-1
 438 203 l 1,14,-1
 438 1075 l 1,15,-1
 207 1075 l 1,16,-1
 207 1276 l 1,17,-1
 919 1276 l 1,18,-1
 919 1075 l 1,19,-1
 674 1075 l 1,20,-1
 674 201 l 1,21,-1
 919 201 l 1,22,-1
 919 0 l 1,23,-1
 207 0 l 1,12,-1
EndSplineSet
EndChar

StartChar: ibreve
Encoding: 301 301 241
Width: 1126
GlyphClass: 2
Flags: W
LayerCount: 2
Fore
SplineSet
547 1061 m 0,0,1
 455 1061 455 1061 376.5 1101 c 128,-1,2
 298 1141 298 1141 212 1231 c 1,3,-1
 337 1352 l 1,4,5
 380 1292 380 1292 438.5 1259.5 c 128,-1,6
 497 1227 497 1227 557 1227 c 0,7,8
 682 1227 682 1227 781 1352 c 1,9,-1
 880 1235 l 1,10,11
 738 1061 738 1061 547 1061 c 0,0,1
173 0 m 1,12,-1
 173 186 l 1,13,-1
 448 186 l 1,14,-1
 448 770 l 1,15,-1
 178 770 l 1,16,-1
 178 956 l 1,17,-1
 679 956 l 1,18,-1
 679 186 l 1,19,-1
 954 186 l 1,20,-1
 954 0 l 1,21,-1
 173 0 l 1,12,-1
EndSplineSet
EndChar

StartChar: Iogonek
Encoding: 302 302 242
Width: 1126
GlyphClass: 2
Flags: W
LayerCount: 2
Fore
SplineSet
207 0 m 1,0,-1
 207 203 l 1,1,-1
 438 203 l 1,2,-1
 438 1075 l 1,3,-1
 207 1075 l 1,4,-1
 207 1276 l 1,5,-1
 919 1276 l 1,6,-1
 919 1075 l 1,7,-1
 674 1075 l 1,8,-1
 674 201 l 1,9,-1
 919 201 l 1,10,-1
 919 0 l 1,11,12
 809 -74 809 -74 772 -112 c 128,-1,13
 735 -150 735 -150 735 -180 c 0,14,15
 735 -231 735 -231 800 -231 c 0,16,17
 854 -231 854 -231 919 -172 c 1,18,-1
 919 -307 l 1,19,20
 833 -373 833 -373 740.5 -373 c 128,-1,21
 648 -373 648 -373 592.5 -331 c 128,-1,22
 537 -289 537 -289 537 -224 c 128,-1,23
 537 -159 537 -159 587.5 -106.5 c 128,-1,24
 638 -54 638 -54 760 0 c 1,25,-1
 207 0 l 1,0,-1
EndSplineSet
EndChar

StartChar: iogonek
Encoding: 303 303 243
Width: 1126
GlyphClass: 2
Flags: W
LayerCount: 2
Fore
SplineSet
652.5 1142.5 m 128,-1,1
 609 1102 609 1102 550.5 1102 c 128,-1,2
 492 1102 492 1102 450.5 1142 c 128,-1,3
 409 1182 409 1182 409 1238.5 c 128,-1,4
 409 1295 409 1295 450 1334 c 128,-1,5
 491 1373 491 1373 550 1373 c 128,-1,6
 609 1373 609 1373 652.5 1332.5 c 128,-1,7
 696 1292 696 1292 696 1237.5 c 128,-1,0
 696 1183 696 1183 652.5 1142.5 c 128,-1,1
173 0 m 1,8,-1
 173 186 l 1,9,-1
 448 186 l 1,10,-1
 448 770 l 1,11,-1
 178 770 l 1,12,-1
 178 956 l 1,13,-1
 679 956 l 1,14,-1
 679 186 l 1,15,-1
 954 186 l 1,16,-1
 954 0 l 1,17,18
 844 -74 844 -74 807 -112 c 128,-1,19
 770 -150 770 -150 770 -180 c 0,20,21
 770 -231 770 -231 835 -231 c 0,22,23
 889 -231 889 -231 954 -172 c 1,24,-1
 954 -307 l 1,25,26
 868 -373 868 -373 775.5 -373 c 128,-1,27
 683 -373 683 -373 627.5 -331 c 128,-1,28
 572 -289 572 -289 572 -224 c 128,-1,29
 572 -159 572 -159 622.5 -106.5 c 128,-1,30
 673 -54 673 -54 795 0 c 1,31,-1
 173 0 l 1,8,-1
EndSplineSet
EndChar

StartChar: Idotaccent
Encoding: 304 304 244
Width: 1126
GlyphClass: 2
Flags: W
LayerCount: 2
Fore
SplineSet
663.5 1440 m 128,-1,1
 620 1401 620 1401 562 1401 c 128,-1,2
 504 1401 504 1401 461 1440 c 128,-1,3
 418 1479 418 1479 418 1532.5 c 128,-1,4
 418 1586 418 1586 458 1626.5 c 128,-1,5
 498 1667 498 1667 559 1667 c 128,-1,6
 620 1667 620 1667 663.5 1628 c 128,-1,7
 707 1589 707 1589 707 1534 c 128,-1,0
 707 1479 707 1479 663.5 1440 c 128,-1,1
207 0 m 1,8,-1
 207 203 l 1,9,-1
 438 203 l 1,10,-1
 438 1075 l 1,11,-1
 207 1075 l 1,12,-1
 207 1276 l 1,13,-1
 919 1276 l 1,14,-1
 919 1075 l 1,15,-1
 674 1075 l 1,16,-1
 674 201 l 1,17,-1
 919 201 l 1,18,-1
 919 0 l 1,19,-1
 207 0 l 1,8,-1
EndSplineSet
EndChar

StartChar: dotlessi
Encoding: 305 305 245
Width: 1126
GlyphClass: 2
Flags: W
LayerCount: 2
Fore
SplineSet
173 0 m 1,0,-1
 173 186 l 1,1,-1
 448 186 l 1,2,-1
 448 770 l 1,3,-1
 178 770 l 1,4,-1
 178 956 l 1,5,-1
 679 956 l 1,6,-1
 679 186 l 1,7,-1
 954 186 l 1,8,-1
 954 0 l 1,9,-1
 173 0 l 1,0,-1
EndSplineSet
EndChar

StartChar: IJ
Encoding: 306 306 246
Width: 1126
GlyphClass: 2
Flags: W
LayerCount: 2
Fore
SplineSet
817.5 226.5 m 128,-1,1
 851 291 851 291 851 438 c 2,2,-1
 851 1075 l 1,3,-1
 485 1075 l 1,4,-1
 485 1276 l 1,5,-1
 1087 1276 l 1,6,-1
 1087 412 l 2,7,8
 1087 299 1087 299 1058 211.5 c 128,-1,9
 1029 124 1029 124 978 71 c 0,10,11
 874 -35 874 -35 719 -35 c 0,12,13
 512 -35 512 -35 377 143 c 1,14,-1
 523 319 l 1,15,16
 538 310 538 310 558 270.5 c 128,-1,17
 578 231 578 231 594 210 c 0,18,19
 632 162 632 162 708 162 c 128,-1,0
 784 162 784 162 817.5 226.5 c 128,-1,1
88 0 m 1,20,-1
 88 1276 l 1,21,-1
 324 1276 l 1,22,-1
 324 0 l 1,23,-1
 88 0 l 1,20,-1
EndSplineSet
EndChar

StartChar: ij
Encoding: 307 307 247
Width: 1126
GlyphClass: 2
Flags: W
LayerCount: 2
Fore
SplineSet
861 1103 m 128,-1,1
 796 1103 796 1103 750 1148 c 128,-1,2
 704 1193 704 1193 704 1257.5 c 128,-1,3
 704 1322 704 1322 750 1368 c 128,-1,4
 796 1414 796 1414 861 1414 c 128,-1,5
 926 1414 926 1414 970.5 1369 c 128,-1,6
 1015 1324 1015 1324 1015 1258.5 c 128,-1,7
 1015 1193 1015 1193 970.5 1148 c 128,-1,0
 926 1103 926 1103 861 1103 c 128,-1,1
261 1103 m 128,-1,9
 196 1103 196 1103 150 1148 c 128,-1,10
 104 1193 104 1193 104 1257.5 c 128,-1,11
 104 1322 104 1322 150 1368 c 128,-1,12
 196 1414 196 1414 261 1414 c 128,-1,13
 326 1414 326 1414 370.5 1369 c 128,-1,14
 415 1324 415 1324 415 1258.5 c 128,-1,15
 415 1193 415 1193 370.5 1148 c 128,-1,8
 326 1103 326 1103 261 1103 c 128,-1,9
541.5 -156 m 128,-1,17
 569 -166 569 -166 633 -166 c 128,-1,18
 697 -166 697 -166 739 -116 c 128,-1,19
 781 -66 781 -66 781 39 c 2,20,-1
 781 770 l 1,21,-1
 499 770 l 1,22,-1
 499 956 l 1,23,-1
 1012 956 l 1,24,-1
 1012 47 l 2,25,26
 1012 -159 1012 -159 904.5 -260.5 c 128,-1,27
 797 -362 797 -362 623 -362 c 0,28,29
 521 -362 521 -362 453.5 -336 c 128,-1,30
 386 -310 386 -310 325 -236 c 1,31,-1
 457 -51 l 1,32,33
 478 -70 478 -70 482.5 -88.5 c 128,-1,34
 487 -107 487 -107 495 -119 c 0,35,16
 514 -146 514 -146 541.5 -156 c 128,-1,17
148 0 m 1,36,-1
 148 956 l 1,37,-1
 379 956 l 1,38,-1
 379 0 l 1,39,-1
 148 0 l 1,36,-1
EndSplineSet
EndChar

StartChar: Jcircumflex
Encoding: 308 308 248
Width: 1126
GlyphClass: 2
Flags: W
LayerCount: 2
Fore
SplineSet
405 1325 m 1,0,-1
 335 1407 l 1,1,-1
 618 1648 l 1,2,-1
 681 1648 l 1,3,-1
 949 1411 l 1,4,-1
 871 1319 l 1,5,-1
 646 1474 l 1,6,-1
 405 1325 l 1,0,-1
531.5 226.5 m 128,-1,8
 565 291 565 291 565 438 c 2,9,-1
 565 1075 l 1,10,-1
 301 1075 l 1,11,-1
 301 1276 l 1,12,-1
 1010 1276 l 1,13,-1
 1010 1075 l 1,14,-1
 801 1075 l 1,15,-1
 801 412 l 2,16,17
 801 299 801 299 772 211.5 c 128,-1,18
 743 124 743 124 692 71 c 0,19,20
 588 -35 588 -35 433 -35 c 0,21,22
 226 -35 226 -35 91 143 c 1,23,-1
 237 319 l 1,24,25
 252 310 252 310 272 270.5 c 128,-1,26
 292 231 292 231 308 210 c 0,27,28
 346 162 346 162 422 162 c 128,-1,7
 498 162 498 162 531.5 226.5 c 128,-1,8
EndSplineSet
EndChar

